<svg xmlns="http://www.w3.org/2000/svg" viewBox="0 0 1200 900" preserveAspectRatio="xMidYMid slice">
<defs>
  <linearGradient id="skyx" x1="0" y1="0" x2="0" y2="1">
    <stop offset="0" stop-color="#2b1f3a"/><stop offset=".55" stop-color="#c25b3f"/><stop offset="1" stop-color="#e8a35c"/>
  </linearGradient>
  <linearGradient id="seax" x1="0" y1="0" x2="0" y2="1">
    <stop offset="0" stop-color="#2c6f70"/><stop offset="1" stop-color="#173f46"/>
  </linearGradient>
  <radialGradient id="glowx" cx=".5" cy=".5" r=".5">
    <stop offset="0" stop-color="#f4c479" stop-opacity=".9"/><stop offset="1" stop-color="#f4c479" stop-opacity="0"/>
  </radialGradient>
  <linearGradient id="accx" x1="0" y1="0" x2="1" y2="1">
    <stop offset="0" stop-color="#3f9d6e"/><stop offset="1" stop-color="#3f9d6e" stop-opacity=".6"/>
  </linearGradient>
  <filter id="grainx"><feTurbulence type="fractalNoise" baseFrequency=".9" numOctaves="2" stitchTiles="stitch"/>
    <feColorMatrix type="matrix" values="0 0 0 0 0  0 0 0 0 0  0 0 0 0 0  0 0 0 .06 0"/>
  </filter>
  <filter id="softx" x="-20%" y="-20%" width="140%" height="140%"><feGaussianBlur stdDeviation="18"/></filter>
</defs>
<rect width="1200" height="900" fill="url(#skyx)"/>
<circle cx="219.2" cy="372.6" r="1.6" fill="#fff" opacity="0.17"/><circle cx="1099.6" cy="42.9" r="1.1" fill="#fff" opacity="0.26"/><circle cx="30.4" cy="301.6" r="1.0" fill="#fff" opacity="0.13"/><circle cx="523.6" cy="98.8" r="1.1" fill="#fff" opacity="0.30"/><circle cx="720.4" cy="41.1" r="1.2" fill="#fff" opacity="0.13"/><circle cx="421.4" cy="340.1" r="1.8" fill="#fff" opacity="0.13"/><circle cx="258.1" cy="363.1" r="1.0" fill="#fff" opacity="0.24"/><circle cx="709.0" cy="142.1" r="0.9" fill="#fff" opacity="0.31"/><circle cx="554.7" cy="189.9" r="0.9" fill="#fff" opacity="0.21"/><circle cx="396.8" cy="320.2" r="2.1" fill="#fff" opacity="0.14"/><circle cx="875.7" cy="110.3" r="0.7" fill="#fff" opacity="0.23"/><circle cx="922.7" cy="442.0" r="1.8" fill="#fff" opacity="0.18"/><circle cx="961.8" cy="251.2" r="1.6" fill="#fff" opacity="0.25"/><circle cx="876.5" cy="202.6" r="1.5" fill="#fff" opacity="0.12"/><circle cx="854.8" cy="39.5" r="1.0" fill="#fff" opacity="0.21"/><circle cx="761.7" cy="199.2" r="1.3" fill="#fff" opacity="0.12"/><circle cx="10.4" cy="181.1" r="1.0" fill="#fff" opacity="0.17"/><circle cx="1184.6" cy="222.5" r="1.1" fill="#fff" opacity="0.29"/><circle cx="436.5" cy="305.5" r="1.3" fill="#fff" opacity="0.21"/><circle cx="110.8" cy="51.5" r="1.0" fill="#fff" opacity="0.15"/><circle cx="1003.9" cy="264.2" r="0.9" fill="#fff" opacity="0.12"/><circle cx="765.2" cy="342.0" r="0.8" fill="#fff" opacity="0.29"/><circle cx="957.3" cy="143.6" r="1.5" fill="#fff" opacity="0.29"/><circle cx="1025.9" cy="214.0" r="2.1" fill="#fff" opacity="0.12"/><circle cx="942.5" cy="399.1" r="1.6" fill="#fff" opacity="0.27"/><circle cx="772.9" cy="439.8" r="0.7" fill="#fff" opacity="0.22"/><circle cx="997.0" cy="120.1" r="0.9" fill="#fff" opacity="0.12"/><circle cx="200.2" cy="149.1" r="0.9" fill="#fff" opacity="0.28"/><circle cx="977.2" cy="362.6" r="1.7" fill="#fff" opacity="0.27"/><circle cx="825.1" cy="67.5" r="0.5" fill="#fff" opacity="0.14"/><circle cx="749.2" cy="221.9" r="1.0" fill="#fff" opacity="0.18"/><circle cx="450.7" cy="191.9" r="2.0" fill="#fff" opacity="0.20"/><circle cx="589.8" cy="105.5" r="0.7" fill="#fff" opacity="0.15"/><circle cx="529.4" cy="273.2" r="2.1" fill="#fff" opacity="0.16"/><circle cx="664.4" cy="19.9" r="1.4" fill="#fff" opacity="0.24"/><circle cx="524.8" cy="408.3" r="1.8" fill="#fff" opacity="0.17"/><circle cx="273.6" cy="356.5" r="1.7" fill="#fff" opacity="0.12"/><circle cx="509.3" cy="376.7" r="2.2" fill="#fff" opacity="0.29"/><circle cx="578.7" cy="397.9" r="0.7" fill="#fff" opacity="0.11"/><circle cx="238.9" cy="225.1" r="0.5" fill="#fff" opacity="0.31"/><circle cx="475.6" cy="327.0" r="2.0" fill="#fff" opacity="0.24"/><circle cx="1010.3" cy="62.9" r="0.8" fill="#fff" opacity="0.18"/><circle cx="387.1" cy="179.0" r="1.6" fill="#fff" opacity="0.30"/><circle cx="5.6" cy="198.4" r="0.9" fill="#fff" opacity="0.27"/><circle cx="363.9" cy="100.5" r="1.0" fill="#fff" opacity="0.29"/><circle cx="8.0" cy="71.7" r="0.6" fill="#fff" opacity="0.17"/><circle cx="248.9" cy="271.7" r="1.9" fill="#fff" opacity="0.13"/><circle cx="335.2" cy="245.8" r="1.1" fill="#fff" opacity="0.22"/><circle cx="462.8" cy="414.4" r="0.9" fill="#fff" opacity="0.12"/><circle cx="40.7" cy="22.1" r="1.4" fill="#fff" opacity="0.28"/><circle cx="772.4" cy="264.3" r="1.2" fill="#fff" opacity="0.15"/><circle cx="212.4" cy="91.0" r="1.8" fill="#fff" opacity="0.30"/><circle cx="1077.0" cy="206.2" r="2.2" fill="#fff" opacity="0.26"/><circle cx="206.5" cy="255.8" r="1.6" fill="#fff" opacity="0.18"/><circle cx="590.4" cy="351.3" r="1.4" fill="#fff" opacity="0.23"/><circle cx="544.0" cy="387.5" r="1.3" fill="#fff" opacity="0.29"/><circle cx="219.4" cy="400.0" r="0.8" fill="#fff" opacity="0.22"/><circle cx="937.8" cy="18.0" r="1.0" fill="#fff" opacity="0.29"/><circle cx="1041.7" cy="354.3" r="0.8" fill="#fff" opacity="0.14"/><circle cx="847.8" cy="192.2" r="0.7" fill="#fff" opacity="0.28"/><circle cx="360" cy="198" r="251.6" fill="url(#glow)"/><circle cx="360" cy="198" r="74" fill="#f4c479"/>
    <path d="M0 396 L0 342.2753477948718 L60 335.2887273267843 L120 327.9191566784866 L180 309.3326917863451 L240 322.2540405150503 L300 340.1835832619108 L360 321.8446710417047 L420 343.2345113637857 L480 343.83172861207277 L540 311.78874432481825 L600 372.61151956534013 L660 331.76199217233807 L720 370.25516467075795 L780 370.9657128145918 L840 367.74825706286356 L900 333.947775113862 L960 323.16757367830724 L1020 307.1511363228783 L1080 364.9565441291779 L1140 362.19267002446577 L1200 346.099058393389 L1200 396 Z" fill="#31203a" opacity=".7"/><path d="M0 406 L0 307.11027410719544 L90 207.5000711916946 L180 238.55431840894744 L270 299.8455137819983 L360 297.7370040877722 L450 303.2980667836964 L540 243.58973489049822 L630 297.56703068409115 L720 208.55902338773012 L810 303.74489102186635 L900 294.5227678413503 L990 311.23972225608304 L1080 282.334982838016 L1170 257.9611332635395 L1200 406 Z" fill="#1d1626"/>
    <rect x="0" y="396" width="1200" height="504" fill="url(#seax)"/><path d="M0 410 Q 300 404 600 410 T 1200 410" stroke="#ffffff" stroke-opacity="0.14" stroke-width="2.5" fill="none"/><path d="M0 466 Q 300 460 600 466 T 1200 466" stroke="#ffffff" stroke-opacity="0.128" stroke-width="2.5" fill="none"/><path d="M0 522 Q 300 516 600 522 T 1200 522" stroke="#ffffff" stroke-opacity="0.11600000000000002" stroke-width="2.5" fill="none"/><path d="M0 578 Q 300 572 600 578 T 1200 578" stroke="#ffffff" stroke-opacity="0.10400000000000001" stroke-width="2.5" fill="none"/><path d="M0 634 Q 300 628 600 634 T 1200 634" stroke="#ffffff" stroke-opacity="0.09200000000000001" stroke-width="2.5" fill="none"/><path d="M0 690 Q 300 684 600 690 T 1200 690" stroke="#ffffff" stroke-opacity="0.08000000000000002" stroke-width="2.5" fill="none"/><path d="M0 746 Q 300 740 600 746 T 1200 746" stroke="#ffffff" stroke-opacity="0.068" stroke-width="2.5" fill="none"/><path d="M0 802 Q 300 796 600 802 T 1200 802" stroke="#ffffff" stroke-opacity="0.05600000000000001" stroke-width="2.5" fill="none"/>
    <g transform="translate(255.80201582517475 540.7022468456998) scale(1.032905744947493)" opacity=".5">
      <path d="M0 0 q 22 -14 44 0 q -22 14 -44 0 Z" fill="#f3ecdd"/><path d="M44 0 l 16 -10 v20 Z" fill="#f3ecdd"/></g><g transform="translate(189.61094895377755 760.0498595871031) scale(0.9709242485463618)" opacity=".5">
      <path d="M0 0 q 22 -14 44 0 q -22 14 -44 0 Z" fill="#f3ecdd"/><path d="M44 0 l 16 -10 v20 Z" fill="#f3ecdd"/></g><g transform="translate(728.594809868373 620.8984796460718) scale(0.8034638753160834)" opacity=".5">
      <path d="M0 0 q 22 -14 44 0 q -22 14 -44 0 Z" fill="#f3ecdd"/><path d="M44 0 l 16 -10 v20 Z" fill="#f3ecdd"/></g><g transform="translate(957.8580725518987 589.1214617332444) scale(0.9459088416770101)" opacity=".5">
      <path d="M0 0 q 22 -14 44 0 q -22 14 -44 0 Z" fill="#f3ecdd"/><path d="M44 0 l 16 -10 v20 Z" fill="#f3ecdd"/></g><g transform="translate(791.6275186277926 520.0443695383146) scale(0.9135719629004597)" opacity=".5">
      <path d="M0 0 q 22 -14 44 0 q -22 14 -44 0 Z" fill="#f3ecdd"/><path d="M44 0 l 16 -10 v20 Z" fill="#f3ecdd"/></g>
    <path d="M0 900 L 408.00000000000006 426 L 504 426 L 240 900 Z" fill="#e2cda1" opacity=".9"/>
    <g transform="translate(888 702)">
      <path d="M-140 40 q 140 60 280 0 l -30 -34 h -220 Z" fill="#7a5335"/>
      <rect x="-16" y="-150" width="12" height="160" fill="#4a3826"/>
      <path d="M-10 -150 L 150 -60 L -10 -20 Z" fill="#3f9d6e"/>
    </g>
    <g transform="translate(120 810) scale(1.8)">
    <path d="M0 0 C -10 -60 -26 -110 -46 -150" stroke="#1d1626" stroke-width="14" stroke-linecap="round" fill="none"/>
    <g transform="translate(-46 -150)"><path d="M0 0 q -12.554319953485155 -46 -25.10863990697031 -30" stroke="#1d1626" stroke-width="10" stroke-linecap="round" fill="none"/><path d="M0 0 q -41.108419502715435 -52 -82.21683900543087 -20" stroke="#1d1626" stroke-width="10" stroke-linecap="round" fill="none"/><path d="M0 0 q -57.79413037842027 -58 -115.58826075684054 -10" stroke="#1d1626" stroke-width="10" stroke-linecap="round" fill="none"/><path d="M0 0 q -57.79413037842027 -64 -115.58826075684054 0" stroke="#1d1626" stroke-width="10" stroke-linecap="round" fill="none"/><path d="M0 0 q -41.108419502715435 -70 -82.21683900543087 10" stroke="#1d1626" stroke-width="10" stroke-linecap="round" fill="none"/><path d="M0 0 q -12.554319953485155 -76 -25.10863990697031 20" stroke="#1d1626" stroke-width="10" stroke-linecap="round" fill="none"/></g></g>
    <circle cx="1032" cy="180" r="8" fill="#fff" opacity=".8"/>
    <path d="M983.9999999999999 216 q 40 -30 80 0" stroke="#ffffff88" stroke-width="4" fill="none"/>
<rect width="1200" height="900" filter="url(#grainx)" opacity=".8"/>
  <rect x="0" y="0" width="1200" height="900" fill="none" stroke="#0e0b08" stroke-opacity=".25" stroke-width="2"/>
</svg>