<svg xmlns="http://www.w3.org/2000/svg" viewBox="0 0 1200 900" preserveAspectRatio="xMidYMid slice">
<defs>
  <linearGradient id="skyx" x1="0" y1="0" x2="0" y2="1">
    <stop offset="0" stop-color="#2b1f3a"/><stop offset=".55" stop-color="#c25b3f"/><stop offset="1" stop-color="#e8a35c"/>
  </linearGradient>
  <linearGradient id="seax" x1="0" y1="0" x2="0" y2="1">
    <stop offset="0" stop-color="#2c6f70"/><stop offset="1" stop-color="#173f46"/>
  </linearGradient>
  <radialGradient id="glowx" cx=".5" cy=".5" r=".5">
    <stop offset="0" stop-color="#f4c479" stop-opacity=".9"/><stop offset="1" stop-color="#f4c479" stop-opacity="0"/>
  </radialGradient>
  <linearGradient id="accx" x1="0" y1="0" x2="1" y2="1">
    <stop offset="0" stop-color="#e0723c"/><stop offset="1" stop-color="#e0723c" stop-opacity=".6"/>
  </linearGradient>
  <filter id="grainx"><feTurbulence type="fractalNoise" baseFrequency=".9" numOctaves="2" stitchTiles="stitch"/>
    <feColorMatrix type="matrix" values="0 0 0 0 0  0 0 0 0 0  0 0 0 0 0  0 0 0 .06 0"/>
  </filter>
  <filter id="softx" x="-20%" y="-20%" width="140%" height="140%"><feGaussianBlur stdDeviation="18"/></filter>
</defs>
<rect width="1200" height="900" fill="url(#skyx)"/>
<circle cx="291.7" cy="355.7" r="1.2" fill="#fff" opacity="0.21"/><circle cx="132.0" cy="185.9" r="0.8" fill="#fff" opacity="0.15"/><circle cx="559.5" cy="64.8" r="0.9" fill="#fff" opacity="0.27"/><circle cx="1048.4" cy="31.4" r="0.5" fill="#fff" opacity="0.30"/><circle cx="48.5" cy="421.1" r="1.0" fill="#fff" opacity="0.18"/><circle cx="1133.7" cy="150.0" r="0.7" fill="#fff" opacity="0.26"/><circle cx="984.3" cy="262.4" r="2.1" fill="#fff" opacity="0.19"/><circle cx="112.3" cy="326.0" r="1.4" fill="#fff" opacity="0.26"/><circle cx="1193.1" cy="414.0" r="2.1" fill="#fff" opacity="0.23"/><circle cx="763.4" cy="59.9" r="2.2" fill="#fff" opacity="0.14"/><circle cx="454.5" cy="74.1" r="2.1" fill="#fff" opacity="0.24"/><circle cx="374.2" cy="226.5" r="1.8" fill="#fff" opacity="0.23"/><circle cx="1023.0" cy="350.3" r="0.7" fill="#fff" opacity="0.22"/><circle cx="619.9" cy="164.5" r="1.2" fill="#fff" opacity="0.30"/><circle cx="1132.5" cy="289.4" r="1.2" fill="#fff" opacity="0.11"/><circle cx="187.0" cy="371.9" r="1.3" fill="#fff" opacity="0.22"/><circle cx="294.8" cy="303.8" r="1.8" fill="#fff" opacity="0.12"/><circle cx="1031.9" cy="16.3" r="1.0" fill="#fff" opacity="0.25"/><circle cx="938.1" cy="71.3" r="0.6" fill="#fff" opacity="0.23"/><circle cx="484.7" cy="242.2" r="1.7" fill="#fff" opacity="0.14"/><circle cx="789.8" cy="448.2" r="0.6" fill="#fff" opacity="0.26"/><circle cx="1177.4" cy="43.5" r="2.0" fill="#fff" opacity="0.25"/><circle cx="107.9" cy="85.9" r="1.9" fill="#fff" opacity="0.22"/><circle cx="100.6" cy="203.6" r="0.9" fill="#fff" opacity="0.25"/><circle cx="392.6" cy="433.9" r="0.5" fill="#fff" opacity="0.19"/><circle cx="568.8" cy="220.5" r="2.1" fill="#fff" opacity="0.27"/><circle cx="800.3" cy="437.4" r="1.4" fill="#fff" opacity="0.17"/><circle cx="1171.1" cy="67.4" r="1.2" fill="#fff" opacity="0.24"/><circle cx="460.1" cy="378.0" r="1.7" fill="#fff" opacity="0.27"/><circle cx="583.6" cy="65.6" r="0.7" fill="#fff" opacity="0.16"/><circle cx="555.5" cy="232.5" r="2.0" fill="#fff" opacity="0.30"/><circle cx="957.2" cy="163.0" r="1.5" fill="#fff" opacity="0.28"/><circle cx="271.2" cy="221.9" r="1.9" fill="#fff" opacity="0.25"/><circle cx="471.7" cy="11.5" r="1.9" fill="#fff" opacity="0.27"/><circle cx="1171.6" cy="377.1" r="1.7" fill="#fff" opacity="0.19"/><circle cx="695.1" cy="352.1" r="0.9" fill="#fff" opacity="0.13"/><circle cx="338.8" cy="359.2" r="1.1" fill="#fff" opacity="0.29"/><circle cx="802.1" cy="65.3" r="1.6" fill="#fff" opacity="0.20"/><circle cx="274.0" cy="264.1" r="1.9" fill="#fff" opacity="0.14"/><circle cx="1186.7" cy="324.3" r="0.6" fill="#fff" opacity="0.18"/><circle cx="623.9" cy="220.4" r="2.1" fill="#fff" opacity="0.17"/><circle cx="95.7" cy="54.7" r="1.9" fill="#fff" opacity="0.31"/><circle cx="145.4" cy="71.2" r="1.9" fill="#fff" opacity="0.22"/><circle cx="262.5" cy="227.0" r="0.6" fill="#fff" opacity="0.21"/><circle cx="1190.4" cy="46.6" r="1.8" fill="#fff" opacity="0.12"/><circle cx="57.3" cy="94.8" r="0.9" fill="#fff" opacity="0.28"/><circle cx="1158.0" cy="157.2" r="0.8" fill="#fff" opacity="0.31"/><circle cx="525.9" cy="77.1" r="1.7" fill="#fff" opacity="0.30"/><circle cx="974.0" cy="399.7" r="0.9" fill="#fff" opacity="0.27"/><circle cx="791.3" cy="370.4" r="0.9" fill="#fff" opacity="0.24"/><circle cx="876.2" cy="26.6" r="0.8" fill="#fff" opacity="0.24"/><circle cx="1155.4" cy="408.9" r="1.3" fill="#fff" opacity="0.16"/><circle cx="695.9" cy="282.3" r="2.0" fill="#fff" opacity="0.22"/><circle cx="60.9" cy="250.4" r="1.2" fill="#fff" opacity="0.26"/><circle cx="436.6" cy="181.4" r="0.7" fill="#fff" opacity="0.20"/><circle cx="202.1" cy="39.4" r="0.7" fill="#fff" opacity="0.17"/><circle cx="802.1" cy="171.0" r="0.8" fill="#fff" opacity="0.13"/><circle cx="240.1" cy="300.5" r="1.6" fill="#fff" opacity="0.13"/><circle cx="679.9" cy="307.2" r="1.6" fill="#fff" opacity="0.12"/><circle cx="142.7" cy="122.4" r="1.9" fill="#fff" opacity="0.23"/><circle cx="360" cy="198" r="251.6" fill="url(#glow)"/><circle cx="360" cy="198" r="74" fill="#f4c479"/>
    <path d="M0 396 L0 315.0758376335725 L60 362.4069487946108 L120 361.9796232962981 L180 345.50568742584437 L240 329.03215907420963 L300 346.74602449079975 L360 351.043992693536 L420 345.6028511808254 L480 359.4529155935161 L540 354.489765052218 L600 340.8885670560412 L660 371.12717236066237 L720 357.6922869440168 L780 353.2720043733716 L840 356.5569208203815 L900 353.95039223507047 L960 367.9636696460657 L1020 353.7236080612056 L1080 337.7316932207905 L1140 354.9222109224647 L1200 310.4235401949845 L1200 396 Z" fill="#31203a" opacity=".7"/><path d="M0 406 L0 275.7445120406337 L90 295.7516943188384 L180 260.9552633659914 L270 311.31248891027644 L360 232.11407935852185 L450 306.4021604708396 L540 323.424771275837 L630 222.00284602260217 L720 309.82809574715793 L810 311.78449580818415 L900 312.21125648962334 L990 261.478250537999 L1080 252.21288067428395 L1170 255.363324935548 L1200 406 Z" fill="#1d1626"/>
    <rect x="0" y="396" width="1200" height="504" fill="url(#seax)"/><path d="M0 410 Q 300 404 600 410 T 1200 410" stroke="#ffffff" stroke-opacity="0.14" stroke-width="2.5" fill="none"/><path d="M0 466 Q 300 460 600 466 T 1200 466" stroke="#ffffff" stroke-opacity="0.128" stroke-width="2.5" fill="none"/><path d="M0 522 Q 300 516 600 522 T 1200 522" stroke="#ffffff" stroke-opacity="0.11600000000000002" stroke-width="2.5" fill="none"/><path d="M0 578 Q 300 572 600 578 T 1200 578" stroke="#ffffff" stroke-opacity="0.10400000000000001" stroke-width="2.5" fill="none"/><path d="M0 634 Q 300 628 600 634 T 1200 634" stroke="#ffffff" stroke-opacity="0.09200000000000001" stroke-width="2.5" fill="none"/><path d="M0 690 Q 300 684 600 690 T 1200 690" stroke="#ffffff" stroke-opacity="0.08000000000000002" stroke-width="2.5" fill="none"/><path d="M0 746 Q 300 740 600 746 T 1200 746" stroke="#ffffff" stroke-opacity="0.068" stroke-width="2.5" fill="none"/><path d="M0 802 Q 300 796 600 802 T 1200 802" stroke="#ffffff" stroke-opacity="0.05600000000000001" stroke-width="2.5" fill="none"/>
    <g transform="translate(966.1133639328182 530.5978132123128) scale(0.7374247714877128)" opacity=".5">
      <path d="M0 0 q 22 -14 44 0 q -22 14 -44 0 Z" fill="#f3ecdd"/><path d="M44 0 l 16 -10 v20 Z" fill="#f3ecdd"/></g><g transform="translate(923.3447690075263 631.1834676135331) scale(0.9525780731812119)" opacity=".5">
      <path d="M0 0 q 22 -14 44 0 q -22 14 -44 0 Z" fill="#f3ecdd"/><path d="M44 0 l 16 -10 v20 Z" fill="#f3ecdd"/></g><g transform="translate(555.6671899091452 537.2695666216314) scale(1.476365394331515)" opacity=".5">
      <path d="M0 0 q 22 -14 44 0 q -22 14 -44 0 Z" fill="#f3ecdd"/><path d="M44 0 l 16 -10 v20 Z" fill="#f3ecdd"/></g><g transform="translate(941.9687767792493 587.5210126154125) scale(0.8019548809155821)" opacity=".5">
      <path d="M0 0 q 22 -14 44 0 q -22 14 -44 0 Z" fill="#f3ecdd"/><path d="M44 0 l 16 -10 v20 Z" fill="#f3ecdd"/></g><g transform="translate(872.2548337234184 706.5198625428602) scale(0.7200422758236527)" opacity=".5">
      <path d="M0 0 q 22 -14 44 0 q -22 14 -44 0 Z" fill="#f3ecdd"/><path d="M44 0 l 16 -10 v20 Z" fill="#f3ecdd"/></g>
    <path d="M0 900 L 408.00000000000006 426 L 504 426 L 240 900 Z" fill="#e2cda1" opacity=".9"/>
    <g transform="translate(888 702)">
      <path d="M-140 40 q 140 60 280 0 l -30 -34 h -220 Z" fill="#7a5335"/>
      <rect x="-16" y="-150" width="12" height="160" fill="#4a3826"/>
      <path d="M-10 -150 L 150 -60 L -10 -20 Z" fill="#e0723c"/>
    </g>
    <g transform="translate(120 810) scale(1.8)">
    <path d="M0 0 C -10 -60 -26 -110 -46 -150" stroke="#1d1626" stroke-width="14" stroke-linecap="round" fill="none"/>
    <g transform="translate(-46 -150)"><path d="M0 0 q -12.554319953485155 -46 -25.10863990697031 -30" stroke="#1d1626" stroke-width="10" stroke-linecap="round" fill="none"/><path d="M0 0 q -41.108419502715435 -52 -82.21683900543087 -20" stroke="#1d1626" stroke-width="10" stroke-linecap="round" fill="none"/><path d="M0 0 q -57.79413037842027 -58 -115.58826075684054 -10" stroke="#1d1626" stroke-width="10" stroke-linecap="round" fill="none"/><path d="M0 0 q -57.79413037842027 -64 -115.58826075684054 0" stroke="#1d1626" stroke-width="10" stroke-linecap="round" fill="none"/><path d="M0 0 q -41.108419502715435 -70 -82.21683900543087 10" stroke="#1d1626" stroke-width="10" stroke-linecap="round" fill="none"/><path d="M0 0 q -12.554319953485155 -76 -25.10863990697031 20" stroke="#1d1626" stroke-width="10" stroke-linecap="round" fill="none"/></g></g>
    <circle cx="1032" cy="180" r="8" fill="#fff" opacity=".8"/>
    <path d="M983.9999999999999 216 q 40 -30 80 0" stroke="#ffffff88" stroke-width="4" fill="none"/>
<rect width="1200" height="900" filter="url(#grainx)" opacity=".8"/>
  <rect x="0" y="0" width="1200" height="900" fill="none" stroke="#0e0b08" stroke-opacity=".25" stroke-width="2"/>
</svg>