<svg xmlns="http://www.w3.org/2000/svg" viewBox="0 0 1200 900" preserveAspectRatio="xMidYMid slice">
<defs>
  <linearGradient id="skyx" x1="0" y1="0" x2="0" y2="1">
    <stop offset="0" stop-color="#33415e"/><stop offset=".55" stop-color="#a6738a"/><stop offset="1" stop-color="#e7b98a"/>
  </linearGradient>
  <linearGradient id="seax" x1="0" y1="0" x2="0" y2="1">
    <stop offset="0" stop-color="#3b8a83"/><stop offset="1" stop-color="#1b4e57"/>
  </linearGradient>
  <radialGradient id="glowx" cx=".5" cy=".5" r=".5">
    <stop offset="0" stop-color="#f2d9a6" stop-opacity=".9"/><stop offset="1" stop-color="#f2d9a6" stop-opacity="0"/>
  </radialGradient>
  <linearGradient id="accx" x1="0" y1="0" x2="1" y2="1">
    <stop offset="0" stop-color="#4d8fd1"/><stop offset="1" stop-color="#4d8fd1" stop-opacity=".6"/>
  </linearGradient>
  <filter id="grainx"><feTurbulence type="fractalNoise" baseFrequency=".9" numOctaves="2" stitchTiles="stitch"/>
    <feColorMatrix type="matrix" values="0 0 0 0 0  0 0 0 0 0  0 0 0 0 0  0 0 0 .06 0"/>
  </filter>
  <filter id="softx" x="-20%" y="-20%" width="140%" height="140%"><feGaussianBlur stdDeviation="18"/></filter>
</defs>
<rect width="1200" height="900" fill="url(#skyx)"/>
<circle cx="1085.7" cy="166.0" r="1.6" fill="#fff" opacity="0.12"/><circle cx="145.0" cy="435.1" r="2.0" fill="#fff" opacity="0.08"/><circle cx="1114.9" cy="121.1" r="1.6" fill="#fff" opacity="0.07"/><circle cx="275.3" cy="415.7" r="2.0" fill="#fff" opacity="0.12"/><circle cx="323.2" cy="90.7" r="1.3" fill="#fff" opacity="0.12"/><circle cx="822.3" cy="316.5" r="1.9" fill="#fff" opacity="0.05"/><circle cx="303.1" cy="245.3" r="0.4" fill="#fff" opacity="0.07"/><circle cx="495.9" cy="75.7" r="0.6" fill="#fff" opacity="0.07"/><circle cx="976.4" cy="228.4" r="1.3" fill="#fff" opacity="0.05"/><circle cx="784.3" cy="199.7" r="0.6" fill="#fff" opacity="0.09"/><circle cx="407.3" cy="172.6" r="1.5" fill="#fff" opacity="0.05"/><circle cx="317.3" cy="167.7" r="2.0" fill="#fff" opacity="0.10"/><circle cx="1194.5" cy="81.3" r="1.3" fill="#fff" opacity="0.12"/><circle cx="1011.2" cy="34.8" r="2.2" fill="#fff" opacity="0.12"/><circle cx="106.8" cy="360.5" r="1.3" fill="#fff" opacity="0.10"/><circle cx="1050.5" cy="145.7" r="0.7" fill="#fff" opacity="0.12"/><circle cx="951.8" cy="245.3" r="0.8" fill="#fff" opacity="0.13"/><circle cx="941.0" cy="27.1" r="1.6" fill="#fff" opacity="0.09"/><circle cx="210.9" cy="372.6" r="0.8" fill="#fff" opacity="0.13"/><circle cx="495.2" cy="366.5" r="0.8" fill="#fff" opacity="0.13"/><circle cx="1062.5" cy="115.1" r="1.3" fill="#fff" opacity="0.08"/><circle cx="1163.3" cy="231.9" r="2.2" fill="#fff" opacity="0.06"/><circle cx="340.9" cy="409.2" r="1.7" fill="#fff" opacity="0.06"/><circle cx="1197.9" cy="277.0" r="2.1" fill="#fff" opacity="0.09"/><circle cx="1026.5" cy="219.7" r="0.7" fill="#fff" opacity="0.11"/><circle cx="1014.4" cy="443.8" r="2.1" fill="#fff" opacity="0.06"/><circle cx="272.7" cy="323.7" r="1.1" fill="#fff" opacity="0.09"/><circle cx="796.0" cy="133.3" r="2.0" fill="#fff" opacity="0.09"/><circle cx="33.1" cy="16.1" r="1.7" fill="#fff" opacity="0.09"/><circle cx="1054.0" cy="379.4" r="0.8" fill="#fff" opacity="0.09"/><circle cx="197.1" cy="384.5" r="1.0" fill="#fff" opacity="0.12"/><circle cx="688.3" cy="401.1" r="0.8" fill="#fff" opacity="0.08"/><circle cx="6.2" cy="385.0" r="0.9" fill="#fff" opacity="0.10"/><circle cx="272.6" cy="286.9" r="0.7" fill="#fff" opacity="0.11"/><circle cx="252.4" cy="350.9" r="1.7" fill="#fff" opacity="0.12"/><circle cx="819.5" cy="205.4" r="0.5" fill="#fff" opacity="0.06"/><circle cx="169.9" cy="123.4" r="1.4" fill="#fff" opacity="0.08"/><circle cx="253.2" cy="141.2" r="2.0" fill="#fff" opacity="0.07"/><circle cx="381.7" cy="431.6" r="1.4" fill="#fff" opacity="0.08"/><circle cx="336.6" cy="349.8" r="2.0" fill="#fff" opacity="0.09"/><circle cx="219.4" cy="237.3" r="0.8" fill="#fff" opacity="0.10"/><circle cx="801.8" cy="171.7" r="0.7" fill="#fff" opacity="0.13"/><circle cx="282.6" cy="205.5" r="1.3" fill="#fff" opacity="0.08"/><circle cx="562.4" cy="370.9" r="1.7" fill="#fff" opacity="0.13"/><circle cx="542.9" cy="242.2" r="1.1" fill="#fff" opacity="0.06"/><circle cx="409.3" cy="434.1" r="0.9" fill="#fff" opacity="0.05"/><circle cx="1189.6" cy="116.0" r="0.4" fill="#fff" opacity="0.10"/><circle cx="789.0" cy="345.4" r="0.6" fill="#fff" opacity="0.09"/><circle cx="1099.7" cy="287.9" r="2.0" fill="#fff" opacity="0.06"/><circle cx="109.1" cy="352.8" r="0.5" fill="#fff" opacity="0.13"/><circle cx="484.3" cy="433.8" r="1.6" fill="#fff" opacity="0.11"/><circle cx="977.5" cy="216.6" r="0.6" fill="#fff" opacity="0.09"/><circle cx="685.8" cy="426.1" r="1.8" fill="#fff" opacity="0.09"/><circle cx="511.7" cy="419.6" r="0.5" fill="#fff" opacity="0.12"/><circle cx="864.8" cy="303.9" r="1.7" fill="#fff" opacity="0.05"/><circle cx="212.8" cy="83.5" r="0.7" fill="#fff" opacity="0.09"/><circle cx="934.5" cy="60.0" r="0.6" fill="#fff" opacity="0.11"/><circle cx="478.1" cy="46.0" r="0.4" fill="#fff" opacity="0.06"/><circle cx="875.1" cy="385.7" r="1.1" fill="#fff" opacity="0.09"/><circle cx="1131.8" cy="109.0" r="1.9" fill="#fff" opacity="0.08"/><circle cx="360" cy="198" r="251.6" fill="url(#glow)"/><circle cx="360" cy="198" r="74" fill="#f2d9a6"/>
    <path d="M0 396 L0 307.42991001484916 L60 331.6301069469191 L120 315.27798073971644 L180 341.0961646460928 L240 336.1720962091349 L300 362.9433189067058 L360 355.49585031252354 L420 341.1075208187103 L480 307.58831600565463 L540 352.85898998286575 L600 324.22348962072283 L660 314.6621588165872 L720 342.67660682229325 L780 374.24333901982754 L840 320.7420764621347 L900 307.9535951828584 L960 320.03798709390685 L1020 332.56366472830996 L1080 341.92102515976876 L1140 371.84419823484495 L1200 321.59163324534893 L1200 396 Z" fill="#3d2f48" opacity=".7"/><path d="M0 406 L0 315.7554419678636 L90 227.5326218237169 L180 314.6273190146312 L270 270.2142270714976 L360 309.10230085626245 L450 239.00474895630032 L540 247.1815216462128 L630 254.3758162590675 L720 305.7070922446437 L810 278.22989030648023 L900 321.5724783986807 L990 229.42333339853212 L1080 291.8384979283437 L1170 246.71800028672442 L1200 406 Z" fill="#241d33"/>
    <rect x="0" y="396" width="1200" height="504" fill="url(#seax)"/><path d="M0 410 Q 300 404 600 410 T 1200 410" stroke="#ffffff" stroke-opacity="0.14" stroke-width="2.5" fill="none"/><path d="M0 466 Q 300 460 600 466 T 1200 466" stroke="#ffffff" stroke-opacity="0.128" stroke-width="2.5" fill="none"/><path d="M0 522 Q 300 516 600 522 T 1200 522" stroke="#ffffff" stroke-opacity="0.11600000000000002" stroke-width="2.5" fill="none"/><path d="M0 578 Q 300 572 600 578 T 1200 578" stroke="#ffffff" stroke-opacity="0.10400000000000001" stroke-width="2.5" fill="none"/><path d="M0 634 Q 300 628 600 634 T 1200 634" stroke="#ffffff" stroke-opacity="0.09200000000000001" stroke-width="2.5" fill="none"/><path d="M0 690 Q 300 684 600 690 T 1200 690" stroke="#ffffff" stroke-opacity="0.08000000000000002" stroke-width="2.5" fill="none"/><path d="M0 746 Q 300 740 600 746 T 1200 746" stroke="#ffffff" stroke-opacity="0.068" stroke-width="2.5" fill="none"/><path d="M0 802 Q 300 796 600 802 T 1200 802" stroke="#ffffff" stroke-opacity="0.05600000000000001" stroke-width="2.5" fill="none"/>
    <g transform="translate(951.6354132257402 759.0280136689544) scale(1.2620609698817133)" opacity=".5">
      <path d="M0 0 q 22 -14 44 0 q -22 14 -44 0 Z" fill="#f3ecdd"/><path d="M44 0 l 16 -10 v20 Z" fill="#f3ecdd"/></g><g transform="translate(257.55699335597456 684.8441593293101) scale(1.1494103481993079)" opacity=".5">
      <path d="M0 0 q 22 -14 44 0 q -22 14 -44 0 Z" fill="#f3ecdd"/><path d="M44 0 l 16 -10 v20 Z" fill="#f3ecdd"/></g><g transform="translate(712.2418024856597 524.6410843767226) scale(1.428077714331448)" opacity=".5">
      <path d="M0 0 q 22 -14 44 0 q -22 14 -44 0 Z" fill="#f3ecdd"/><path d="M44 0 l 16 -10 v20 Z" fill="#f3ecdd"/></g><g transform="translate(851.7033834289759 668.611943767406) scale(1.1989757731556892)" opacity=".5">
      <path d="M0 0 q 22 -14 44 0 q -22 14 -44 0 Z" fill="#f3ecdd"/><path d="M44 0 l 16 -10 v20 Z" fill="#f3ecdd"/></g><g transform="translate(699.2860177578405 625.7284093592316) scale(0.9978958209976554)" opacity=".5">
      <path d="M0 0 q 22 -14 44 0 q -22 14 -44 0 Z" fill="#f3ecdd"/><path d="M44 0 l 16 -10 v20 Z" fill="#f3ecdd"/></g>
    <path d="M0 900 L 408.00000000000006 426 L 504 426 L 240 900 Z" fill="#e2cda1" opacity=".9"/>
    <g transform="translate(888 702)">
      <path d="M-140 40 q 140 60 280 0 l -30 -34 h -220 Z" fill="#7a5335"/>
      <rect x="-16" y="-150" width="12" height="160" fill="#4a3826"/>
      <path d="M-10 -150 L 150 -60 L -10 -20 Z" fill="#4d8fd1"/>
    </g>
    <g transform="translate(120 810) scale(1.8)">
    <path d="M0 0 C -10 -60 -26 -110 -46 -150" stroke="#241d33" stroke-width="14" stroke-linecap="round" fill="none"/>
    <g transform="translate(-46 -150)"><path d="M0 0 q -12.554319953485155 -46 -25.10863990697031 -30" stroke="#241d33" stroke-width="10" stroke-linecap="round" fill="none"/><path d="M0 0 q -41.108419502715435 -52 -82.21683900543087 -20" stroke="#241d33" stroke-width="10" stroke-linecap="round" fill="none"/><path d="M0 0 q -57.79413037842027 -58 -115.58826075684054 -10" stroke="#241d33" stroke-width="10" stroke-linecap="round" fill="none"/><path d="M0 0 q -57.79413037842027 -64 -115.58826075684054 0" stroke="#241d33" stroke-width="10" stroke-linecap="round" fill="none"/><path d="M0 0 q -41.108419502715435 -70 -82.21683900543087 10" stroke="#241d33" stroke-width="10" stroke-linecap="round" fill="none"/><path d="M0 0 q -12.554319953485155 -76 -25.10863990697031 20" stroke="#241d33" stroke-width="10" stroke-linecap="round" fill="none"/></g></g>
    <circle cx="1032" cy="180" r="8" fill="#fff" opacity=".8"/>
    <path d="M983.9999999999999 216 q 40 -30 80 0" stroke="#ffffff88" stroke-width="4" fill="none"/>
<rect width="1200" height="900" filter="url(#grainx)" opacity=".8"/>
  <rect x="0" y="0" width="1200" height="900" fill="none" stroke="#0e0b08" stroke-opacity=".25" stroke-width="2"/>
</svg>