<svg xmlns="http://www.w3.org/2000/svg" viewBox="0 0 1200 900" preserveAspectRatio="xMidYMid slice">
<defs>
  <linearGradient id="skyx" x1="0" y1="0" x2="0" y2="1">
    <stop offset="0" stop-color="#7fb6c9"/><stop offset=".55" stop-color="#cfe3dd"/><stop offset="1" stop-color="#efe6cc"/>
  </linearGradient>
  <linearGradient id="seax" x1="0" y1="0" x2="0" y2="1">
    <stop offset="0" stop-color="#57b3a6"/><stop offset="1" stop-color="#1c7a7c"/>
  </linearGradient>
  <radialGradient id="glowx" cx=".5" cy=".5" r=".5">
    <stop offset="0" stop-color="#f7ead0" stop-opacity=".9"/><stop offset="1" stop-color="#f7ead0" stop-opacity="0"/>
  </radialGradient>
  <linearGradient id="accx" x1="0" y1="0" x2="1" y2="1">
    <stop offset="0" stop-color="#e0723c"/><stop offset="1" stop-color="#e0723c" stop-opacity=".6"/>
  </linearGradient>
  <filter id="grainx"><feTurbulence type="fractalNoise" baseFrequency=".9" numOctaves="2" stitchTiles="stitch"/>
    <feColorMatrix type="matrix" values="0 0 0 0 0  0 0 0 0 0  0 0 0 0 0  0 0 0 .06 0"/>
  </filter>
  <filter id="softx" x="-20%" y="-20%" width="140%" height="140%"><feGaussianBlur stdDeviation="18"/></filter>
</defs>
<rect width="1200" height="900" fill="url(#skyx)"/>
<circle cx="522.4514845758677" cy="270" r="251.6" fill="url(#glow)"/><circle cx="522.4514845758677" cy="270" r="74" fill="#f7ead0"/>
    <path d="M0 468 L0 403.8352172933519 L60 402.8502679239027 L120 382.5743324421346 L180 383.86951392237097 L240 443.05480563035235 L300 415.00083980569616 L360 439.1156173120253 L420 401.73424337944016 L480 429.9339986052364 L540 440.76560108177364 L600 409.26118324464187 L660 425.6702254754491 L720 415.6883220486343 L780 437.85611527459696 L840 394.02458802517503 L900 379.95313999196514 L960 404.2707192939706 L1020 443.84331190912053 L1080 378.3342053620145 L1140 445.89500781102106 L1200 423.72838528081775 L1200 468 Z" fill="#c8895a" opacity=".7"/><path d="M0 478 L0 312.55304679227993 L90 356.81995760137215 L180 289.93163925549015 L270 286.3501421310939 L360 303.6989665236324 L450 296.6842084536329 L540 305.3562838858925 L630 354.32793965982273 L720 294.0920158959925 L810 345.82288692658767 L900 326.42757042497396 L990 300.7485851291567 L1080 294.08690284658223 L1170 284.7221664916724 L1200 478 Z" fill="#a5673f"/>
    <rect x="0" y="472" width="1200" height="144" fill="url(#seax)"/><path d="M0 486 Q 300 480 600 486 T 1200 486" stroke="#ffffff" stroke-opacity="0.14" stroke-width="2.5" fill="none"/><path d="M0 502 Q 300 496 600 502 T 1200 502" stroke="#ffffff" stroke-opacity="0.128" stroke-width="2.5" fill="none"/><path d="M0 518 Q 300 512 600 518 T 1200 518" stroke="#ffffff" stroke-opacity="0.11600000000000002" stroke-width="2.5" fill="none"/><path d="M0 534 Q 300 528 600 534 T 1200 534" stroke="#ffffff" stroke-opacity="0.10400000000000001" stroke-width="2.5" fill="none"/><path d="M0 550 Q 300 544 600 550 T 1200 550" stroke="#ffffff" stroke-opacity="0.09200000000000001" stroke-width="2.5" fill="none"/><path d="M0 566 Q 300 560 600 566 T 1200 566" stroke="#ffffff" stroke-opacity="0.08000000000000002" stroke-width="2.5" fill="none"/><path d="M0 582 Q 300 576 600 582 T 1200 582" stroke="#ffffff" stroke-opacity="0.068" stroke-width="2.5" fill="none"/><path d="M0 598 Q 300 592 600 598 T 1200 598" stroke="#ffffff" stroke-opacity="0.05600000000000001" stroke-width="2.5" fill="none"/>
    <rect x="0" y="594" width="1200" height="306" fill="#e2cda1"/>
    <ellipse cx="600" cy="886.5" rx="744" ry="40" fill="#00000022"/>
    <rect x="192" y="450" width="480" height="330" rx="12" fill="#d3bd93"/>
      <rect x="240" y="522" width="120" height="150" rx="8" fill="#7fb6c9" stroke="#3a2c1c" stroke-width="6"/>
      <rect x="528" y="522" width="120" height="220" rx="8" fill="#3a2c1c"/>
      <rect x="192" y="423" width="480" height="36" rx="10" fill="#e0723c"/><g transform="translate(900 774) scale(1.5)">
    <path d="M0 0 C 10 -60 26 -110 46 -150" stroke="#a5673f" stroke-width="14" stroke-linecap="round" fill="none"/>
    <g transform="translate(46 -150)"><path d="M0 0 q 12.554319953485155 -46 25.10863990697031 -30" stroke="#a5673f" stroke-width="10" stroke-linecap="round" fill="none"/><path d="M0 0 q 41.108419502715435 -52 82.21683900543087 -20" stroke="#a5673f" stroke-width="10" stroke-linecap="round" fill="none"/><path d="M0 0 q 57.79413037842027 -58 115.58826075684054 -10" stroke="#a5673f" stroke-width="10" stroke-linecap="round" fill="none"/><path d="M0 0 q 57.79413037842027 -64 115.58826075684054 0" stroke="#a5673f" stroke-width="10" stroke-linecap="round" fill="none"/><path d="M0 0 q 41.108419502715435 -70 82.21683900543087 10" stroke="#a5673f" stroke-width="10" stroke-linecap="round" fill="none"/><path d="M0 0 q 12.554319953485155 -76 25.10863990697031 20" stroke="#a5673f" stroke-width="10" stroke-linecap="round" fill="none"/></g></g>
    <path d="M60 162 Q 600 242 1140 162" stroke="#1a140f" stroke-width="3" fill="none"/><circle cx="168" cy="182.3606797749979" r="5" fill="#f7ead0"/><circle cx="168" cy="182.3606797749979" r="12" fill="#f7ead0" opacity=".25"/><circle cx="276" cy="193.51141009169893" r="5" fill="#f7ead0"/><circle cx="276" cy="193.51141009169893" r="12" fill="#f7ead0" opacity=".25"/><circle cx="384" cy="202.3606797749979" r="5" fill="#f7ead0"/><circle cx="384" cy="202.3606797749979" r="12" fill="#f7ead0" opacity=".25"/><circle cx="492" cy="208.04226065180615" r="5" fill="#f7ead0"/><circle cx="492" cy="208.04226065180615" r="12" fill="#f7ead0" opacity=".25"/><circle cx="600" cy="210" r="5" fill="#f7ead0"/><circle cx="600" cy="210" r="12" fill="#f7ead0" opacity=".25"/><circle cx="708" cy="208.04226065180615" r="5" fill="#f7ead0"/><circle cx="708" cy="208.04226065180615" r="12" fill="#f7ead0" opacity=".25"/><circle cx="816" cy="202.3606797749979" r="5" fill="#f7ead0"/><circle cx="816" cy="202.3606797749979" r="12" fill="#f7ead0" opacity=".25"/><circle cx="924" cy="193.51141009169893" r="5" fill="#f7ead0"/><circle cx="924" cy="193.51141009169893" r="12" fill="#f7ead0" opacity=".25"/><circle cx="1032" cy="182.3606797749979" r="5" fill="#f7ead0"/><circle cx="1032" cy="182.3606797749979" r="12" fill="#f7ead0" opacity=".25"/>
    <g transform="translate(1056 720) scale(1.2)">
    <circle cx="0" cy="26" r="46" fill="#f7ead0" opacity=".28"/>
    <line x1="0" y1="-34" x2="0" y2="-12" stroke="#2a2118" stroke-width="4"/>
    <path d="M-16 -12 h32 l6 14 v22 l-6 14 h-32 l-6 -14 v-22 Z" fill="#2a2118"/>
    <path d="M-10 -6 h20 l4 10 v18 l-4 10 h-20 l-4 -10 v-18 Z" fill="#f7ead0"/>
  </g>
<rect width="1200" height="900" filter="url(#grainx)" opacity=".8"/>
  <rect x="0" y="0" width="1200" height="900" fill="none" stroke="#0e0b08" stroke-opacity=".25" stroke-width="2"/>
</svg>