<svg xmlns="http://www.w3.org/2000/svg" viewBox="0 0 1200 900" preserveAspectRatio="xMidYMid slice">
<defs>
  <linearGradient id="skyx" x1="0" y1="0" x2="0" y2="1">
    <stop offset="0" stop-color="#070d1c"/><stop offset=".55" stop-color="#122036"/><stop offset="1" stop-color="#1d3a4a"/>
  </linearGradient>
  <linearGradient id="seax" x1="0" y1="0" x2="0" y2="1">
    <stop offset="0" stop-color="#174a52"/><stop offset="1" stop-color="#0a2531"/>
  </linearGradient>
  <radialGradient id="glowx" cx=".5" cy=".5" r=".5">
    <stop offset="0" stop-color="#e9e4d0" stop-opacity=".9"/><stop offset="1" stop-color="#e9e4d0" stop-opacity="0"/>
  </radialGradient>
  <linearGradient id="accx" x1="0" y1="0" x2="1" y2="1">
    <stop offset="0" stop-color="#e0723c"/><stop offset="1" stop-color="#e0723c" stop-opacity=".6"/>
  </linearGradient>
  <filter id="grainx"><feTurbulence type="fractalNoise" baseFrequency=".9" numOctaves="2" stitchTiles="stitch"/>
    <feColorMatrix type="matrix" values="0 0 0 0 0  0 0 0 0 0  0 0 0 0 0  0 0 0 .06 0"/>
  </filter>
  <filter id="softx" x="-20%" y="-20%" width="140%" height="140%"><feGaussianBlur stdDeviation="18"/></filter>
</defs>
<rect width="1200" height="900" fill="url(#skyx)"/>
<circle cx="820.4" cy="300.3" r="1.6" fill="#fff" opacity="0.86"/><circle cx="1028.6" cy="100.8" r="1.1" fill="#fff" opacity="0.64"/><circle cx="792.9" cy="140.6" r="0.6" fill="#fff" opacity="0.54"/><circle cx="121.0" cy="92.4" r="0.7" fill="#fff" opacity="0.88"/><circle cx="1019.0" cy="262.5" r="0.8" fill="#fff" opacity="0.46"/><circle cx="643.5" cy="16.9" r="1.8" fill="#fff" opacity="0.80"/><circle cx="604.0" cy="282.8" r="1.0" fill="#fff" opacity="0.74"/><circle cx="990.2" cy="256.0" r="1.0" fill="#fff" opacity="0.54"/><circle cx="465.1" cy="168.5" r="1.1" fill="#fff" opacity="0.57"/><circle cx="914.8" cy="389.5" r="2.2" fill="#fff" opacity="0.62"/><circle cx="731.8" cy="446.9" r="1.0" fill="#fff" opacity="0.52"/><circle cx="905.4" cy="223.7" r="0.9" fill="#fff" opacity="0.81"/><circle cx="1069.6" cy="427.1" r="1.4" fill="#fff" opacity="0.84"/><circle cx="1142.8" cy="210.8" r="1.6" fill="#fff" opacity="0.75"/><circle cx="300.8" cy="417.2" r="1.4" fill="#fff" opacity="0.37"/><circle cx="179.7" cy="48.7" r="0.8" fill="#fff" opacity="0.71"/><circle cx="580.1" cy="327.1" r="2.2" fill="#fff" opacity="0.32"/><circle cx="800.2" cy="443.5" r="1.1" fill="#fff" opacity="0.53"/><circle cx="654.0" cy="45.6" r="2.0" fill="#fff" opacity="0.35"/><circle cx="726.4" cy="250.6" r="1.0" fill="#fff" opacity="0.72"/><circle cx="107.4" cy="367.9" r="1.1" fill="#fff" opacity="0.61"/><circle cx="546.5" cy="132.3" r="0.8" fill="#fff" opacity="0.87"/><circle cx="989.9" cy="204.6" r="1.2" fill="#fff" opacity="0.67"/><circle cx="527.8" cy="30.0" r="1.0" fill="#fff" opacity="0.40"/><circle cx="813.6" cy="309.4" r="1.5" fill="#fff" opacity="0.37"/><circle cx="101.3" cy="84.1" r="1.1" fill="#fff" opacity="0.74"/><circle cx="75.8" cy="350.0" r="1.9" fill="#fff" opacity="0.45"/><circle cx="694.9" cy="74.6" r="0.9" fill="#fff" opacity="0.78"/><circle cx="147.1" cy="315.0" r="0.7" fill="#fff" opacity="0.49"/><circle cx="503.8" cy="171.6" r="1.1" fill="#fff" opacity="0.84"/><circle cx="368.3" cy="309.5" r="0.6" fill="#fff" opacity="0.62"/><circle cx="541.9" cy="332.6" r="1.0" fill="#fff" opacity="0.49"/><circle cx="1168.3" cy="65.1" r="1.2" fill="#fff" opacity="0.31"/><circle cx="1151.6" cy="374.9" r="1.8" fill="#fff" opacity="0.36"/><circle cx="1175.3" cy="108.6" r="1.7" fill="#fff" opacity="0.58"/><circle cx="1017.4" cy="81.4" r="0.7" fill="#fff" opacity="0.57"/><circle cx="3.4" cy="180.0" r="1.3" fill="#fff" opacity="0.43"/><circle cx="1149.2" cy="98.8" r="1.9" fill="#fff" opacity="0.63"/><circle cx="85.7" cy="432.1" r="1.0" fill="#fff" opacity="0.31"/><circle cx="253.1" cy="16.8" r="1.4" fill="#fff" opacity="0.32"/><circle cx="568.2" cy="315.9" r="0.9" fill="#fff" opacity="0.39"/><circle cx="845.3" cy="148.3" r="0.5" fill="#fff" opacity="0.61"/><circle cx="1045.8" cy="150.0" r="0.5" fill="#fff" opacity="0.74"/><circle cx="998.7" cy="338.2" r="1.5" fill="#fff" opacity="0.43"/><circle cx="1147.3" cy="397.8" r="1.8" fill="#fff" opacity="0.67"/><circle cx="478.1" cy="420.8" r="1.1" fill="#fff" opacity="0.88"/><circle cx="939.9" cy="236.9" r="1.0" fill="#fff" opacity="0.36"/><circle cx="941.5" cy="430.1" r="0.5" fill="#fff" opacity="0.55"/><circle cx="370.6" cy="310.7" r="1.7" fill="#fff" opacity="0.80"/><circle cx="473.3" cy="279.8" r="0.8" fill="#fff" opacity="0.41"/><circle cx="40.8" cy="192.5" r="0.5" fill="#fff" opacity="0.69"/><circle cx="616.8" cy="129.5" r="1.2" fill="#fff" opacity="0.64"/><circle cx="485.6" cy="315.9" r="0.9" fill="#fff" opacity="0.54"/><circle cx="300.3" cy="264.4" r="2.1" fill="#fff" opacity="0.48"/><circle cx="813.5" cy="146.6" r="0.5" fill="#fff" opacity="0.82"/><circle cx="720.0" cy="319.5" r="0.8" fill="#fff" opacity="0.34"/><circle cx="692.0" cy="17.0" r="0.9" fill="#fff" opacity="0.48"/><circle cx="636.1" cy="414.0" r="0.9" fill="#fff" opacity="0.49"/><circle cx="881.1" cy="205.5" r="0.9" fill="#fff" opacity="0.72"/><circle cx="834.2" cy="427.0" r="0.9" fill="#fff" opacity="0.70"/><circle cx="936" cy="216" r="156.4" fill="url(#glow)"/><circle cx="936" cy="216" r="46" fill="#e9e4d0"/><circle cx="952" cy="206" r="46" fill="#070d1c"/>
    <path d="M0 450 L0 381.55762617243454 L60 417.11485313484445 L120 382.68751750467345 L180 380.7548515847884 L240 414.63718571932986 L300 391.38281441060826 L360 376.2538150139153 L420 422.85079521825537 L480 417.2265404602513 L540 386.9541713804938 L600 376.50785830803216 L660 404.27517529111356 L720 406.5012487466447 L780 373.0368178919889 L840 419.58092958666384 L900 374.0873626829125 L960 415.11891092173755 L1020 383.265192641411 L1080 372.2010804200545 L1140 373.0548403807916 L1200 364.81855563120916 L1200 450 Z" fill="#16202f" opacity=".7"/><path d="M0 460 L0 330.15558131504804 L90 266.67035578517243 L180 364.9216527538374 L270 315.225122992415 L360 346.66443946771324 L450 387.618212364614 L540 352.8557463269681 L630 282.4986907490529 L720 317.83986864844337 L810 371.3798050931655 L900 351.2905797502026 L990 316.0533576342277 L1080 262.8535503009334 L1170 268.87792544672266 L1200 460 Z" fill="#0b111e"/>
    <rect x="0" y="454" width="1200" height="126.00000000000001" fill="url(#seax)"/><path d="M0 468 Q 300 462 600 468 T 1200 468" stroke="#ffffff" stroke-opacity="0.14" stroke-width="2.5" fill="none"/><path d="M0 482 Q 300 476 600 482 T 1200 482" stroke="#ffffff" stroke-opacity="0.128" stroke-width="2.5" fill="none"/><path d="M0 496 Q 300 490 600 496 T 1200 496" stroke="#ffffff" stroke-opacity="0.11600000000000002" stroke-width="2.5" fill="none"/><path d="M0 510 Q 300 504 600 510 T 1200 510" stroke="#ffffff" stroke-opacity="0.10400000000000001" stroke-width="2.5" fill="none"/><path d="M0 524 Q 300 518 600 524 T 1200 524" stroke="#ffffff" stroke-opacity="0.09200000000000001" stroke-width="2.5" fill="none"/><path d="M0 538 Q 300 532 600 538 T 1200 538" stroke="#ffffff" stroke-opacity="0.08000000000000002" stroke-width="2.5" fill="none"/><path d="M0 552 Q 300 546 600 552 T 1200 552" stroke="#ffffff" stroke-opacity="0.068" stroke-width="2.5" fill="none"/><path d="M0 566 Q 300 560 600 566 T 1200 566" stroke="#ffffff" stroke-opacity="0.05600000000000001" stroke-width="2.5" fill="none"/>
    <rect x="0" y="558" width="1200" height="342" fill="#9c7350"/>
    <g transform="translate(600 648)">
      <ellipse cx="0" cy="60" rx="130" ry="24" fill="#00000033"/>
      <rect x="-110" y="-10" width="220" height="64" rx="12" fill="#7a5335"/>
      <circle cx="0" cy="-30" r="26" fill="#e9e4d0"/>
      <path d="M-14 -30 q14 -46 28 0" fill="#e9e4d0" opacity=".7"/>
      <g stroke="#3a2c1c" stroke-width="5"><line x1="-70" y1="-4" x2="-78" y2="-58"/><line x1="-24" y1="-4" x2="-32" y2="-58"/><line x1="22" y1="-4" x2="14" y2="-58"/><line x1="68" y1="-4" x2="60" y2="-58"/></g>
    </g>
    <g transform="translate(163.0194676667452 720)">
      <ellipse cx="0" cy="34" rx="120" ry="26" fill="#00000022"/>
      <rect x="-100" y="-30" width="200" height="60" rx="26" fill="#e0723c"/>
      <rect x="-100" y="-44" width="200" height="34" rx="17" fill="#f3ecdd" opacity=".9"/>
    </g><g transform="translate(424.9068561475724 720)">
      <ellipse cx="0" cy="34" rx="120" ry="26" fill="#00000022"/>
      <rect x="-100" y="-30" width="200" height="60" rx="26" fill="#f3ecdd"/>
      <rect x="-100" y="-44" width="200" height="34" rx="17" fill="#d8a24a" opacity=".9"/>
    </g><g transform="translate(703.0883970763534 720)">
      <ellipse cx="0" cy="34" rx="120" ry="26" fill="#00000022"/>
      <rect x="-100" y="-30" width="200" height="60" rx="26" fill="#d8a24a"/>
      <rect x="-100" y="-44" width="200" height="34" rx="17" fill="#e0723c" opacity=".9"/>
    </g><g transform="translate(950.9052145667374 720)">
      <ellipse cx="0" cy="34" rx="120" ry="26" fill="#00000022"/>
      <rect x="-100" y="-30" width="200" height="60" rx="26" fill="#e0723c"/>
      <rect x="-100" y="-44" width="200" height="34" rx="17" fill="#e0723c" opacity=".9"/>
    </g>
    <path d="M0 108 Q 600 200 1200 108" stroke="#1a140f" stroke-width="3" fill="none"/><circle cx="120" cy="130.21478174124758" r="5" fill="#e9e4d0"/><circle cx="120" cy="130.21478174124758" r="12" fill="#e9e4d0" opacity=".25"/><circle cx="240" cy="143.03812160545377" r="5" fill="#e9e4d0"/><circle cx="240" cy="143.03812160545377" r="12" fill="#e9e4d0" opacity=".25"/><circle cx="360" cy="153.21478174124758" r="5" fill="#e9e4d0"/><circle cx="360" cy="153.21478174124758" r="12" fill="#e9e4d0" opacity=".25"/><circle cx="480" cy="159.74859974957707" r="5" fill="#e9e4d0"/><circle cx="480" cy="159.74859974957707" r="12" fill="#e9e4d0" opacity=".25"/><circle cx="600" cy="162" r="5" fill="#e9e4d0"/><circle cx="600" cy="162" r="12" fill="#e9e4d0" opacity=".25"/><circle cx="720" cy="159.74859974957707" r="5" fill="#e9e4d0"/><circle cx="720" cy="159.74859974957707" r="12" fill="#e9e4d0" opacity=".25"/><circle cx="840" cy="153.21478174124758" r="5" fill="#e9e4d0"/><circle cx="840" cy="153.21478174124758" r="12" fill="#e9e4d0" opacity=".25"/><circle cx="960" cy="143.03812160545377" r="5" fill="#e9e4d0"/><circle cx="960" cy="143.03812160545377" r="12" fill="#e9e4d0" opacity=".25"/><circle cx="1080" cy="130.21478174124758" r="5" fill="#e9e4d0"/><circle cx="1080" cy="130.21478174124758" r="12" fill="#e9e4d0" opacity=".25"/>
    <g transform="translate(72 594) scale(1.3)">
    <path d="M0 0 C -10 -60 -26 -110 -46 -150" stroke="#0b111e" stroke-width="14" stroke-linecap="round" fill="none"/>
    <g transform="translate(-46 -150)"><path d="M0 0 q -12.554319953485155 -46 -25.10863990697031 -30" stroke="#0b111e" stroke-width="10" stroke-linecap="round" fill="none"/><path d="M0 0 q -41.108419502715435 -52 -82.21683900543087 -20" stroke="#0b111e" stroke-width="10" stroke-linecap="round" fill="none"/><path d="M0 0 q -57.79413037842027 -58 -115.58826075684054 -10" stroke="#0b111e" stroke-width="10" stroke-linecap="round" fill="none"/><path d="M0 0 q -57.79413037842027 -64 -115.58826075684054 0" stroke="#0b111e" stroke-width="10" stroke-linecap="round" fill="none"/><path d="M0 0 q -41.108419502715435 -70 -82.21683900543087 10" stroke="#0b111e" stroke-width="10" stroke-linecap="round" fill="none"/><path d="M0 0 q -12.554319953485155 -76 -25.10863990697031 20" stroke="#0b111e" stroke-width="10" stroke-linecap="round" fill="none"/></g></g>
    <g transform="translate(1128 594) scale(1.4)">
    <path d="M0 0 C 10 -60 26 -110 46 -150" stroke="#0b111e" stroke-width="14" stroke-linecap="round" fill="none"/>
    <g transform="translate(46 -150)"><path d="M0 0 q 12.554319953485155 -46 25.10863990697031 -30" stroke="#0b111e" stroke-width="10" stroke-linecap="round" fill="none"/><path d="M0 0 q 41.108419502715435 -52 82.21683900543087 -20" stroke="#0b111e" stroke-width="10" stroke-linecap="round" fill="none"/><path d="M0 0 q 57.79413037842027 -58 115.58826075684054 -10" stroke="#0b111e" stroke-width="10" stroke-linecap="round" fill="none"/><path d="M0 0 q 57.79413037842027 -64 115.58826075684054 0" stroke="#0b111e" stroke-width="10" stroke-linecap="round" fill="none"/><path d="M0 0 q 41.108419502715435 -70 82.21683900543087 10" stroke="#0b111e" stroke-width="10" stroke-linecap="round" fill="none"/><path d="M0 0 q 12.554319953485155 -76 25.10863990697031 20" stroke="#0b111e" stroke-width="10" stroke-linecap="round" fill="none"/></g></g>
    <g transform="translate(360 594) scale(1.1)">
    <circle cx="0" cy="26" r="46" fill="#e9e4d0" opacity=".28"/>
    <line x1="0" y1="-34" x2="0" y2="-12" stroke="#2a2118" stroke-width="4"/>
    <path d="M-16 -12 h32 l6 14 v22 l-6 14 h-32 l-6 -14 v-22 Z" fill="#2a2118"/>
    <path d="M-10 -6 h20 l4 10 v18 l-4 10 h-20 l-4 -10 v-18 Z" fill="#e9e4d0"/>
  </g><g transform="translate(840 594) scale(1.1)">
    <circle cx="0" cy="26" r="46" fill="#e9e4d0" opacity=".28"/>
    <line x1="0" y1="-34" x2="0" y2="-12" stroke="#2a2118" stroke-width="4"/>
    <path d="M-16 -12 h32 l6 14 v22 l-6 14 h-32 l-6 -14 v-22 Z" fill="#2a2118"/>
    <path d="M-10 -6 h20 l4 10 v18 l-4 10 h-20 l-4 -10 v-18 Z" fill="#e9e4d0"/>
  </g>
<rect width="1200" height="900" filter="url(#grainx)" opacity=".8"/>
  <rect x="0" y="0" width="1200" height="900" fill="none" stroke="#0e0b08" stroke-opacity=".25" stroke-width="2"/>
</svg>