<svg xmlns="http://www.w3.org/2000/svg" viewBox="0 0 1200 900" preserveAspectRatio="xMidYMid slice">
<defs>
  <linearGradient id="skyx" x1="0" y1="0" x2="0" y2="1">
    <stop offset="0" stop-color="#7fb6c9"/><stop offset=".55" stop-color="#cfe3dd"/><stop offset="1" stop-color="#efe6cc"/>
  </linearGradient>
  <linearGradient id="seax" x1="0" y1="0" x2="0" y2="1">
    <stop offset="0" stop-color="#57b3a6"/><stop offset="1" stop-color="#1c7a7c"/>
  </linearGradient>
  <radialGradient id="glowx" cx=".5" cy=".5" r=".5">
    <stop offset="0" stop-color="#f7ead0" stop-opacity=".9"/><stop offset="1" stop-color="#f7ead0" stop-opacity="0"/>
  </radialGradient>
  <linearGradient id="accx" x1="0" y1="0" x2="1" y2="1">
    <stop offset="0" stop-color="#3f9d6e"/><stop offset="1" stop-color="#3f9d6e" stop-opacity=".6"/>
  </linearGradient>
  <filter id="grainx"><feTurbulence type="fractalNoise" baseFrequency=".9" numOctaves="2" stitchTiles="stitch"/>
    <feColorMatrix type="matrix" values="0 0 0 0 0  0 0 0 0 0  0 0 0 0 0  0 0 0 .06 0"/>
  </filter>
  <filter id="softx" x="-20%" y="-20%" width="140%" height="140%"><feGaussianBlur stdDeviation="18"/></filter>
</defs>
<rect width="1200" height="900" fill="url(#skyx)"/>
<circle cx="636.7600547149777" cy="270" r="251.6" fill="url(#glow)"/><circle cx="636.7600547149777" cy="270" r="74" fill="#f7ead0"/>
    <path d="M0 468 L0 415.44475091574714 L60 438.49536030506715 L120 391.17634373670444 L180 381.73232963727787 L240 412.9013375816867 L300 447.95371711440384 L360 446.57785847969353 L420 443.4738949914463 L480 401.84752691257745 L540 378.21825833711773 L600 416.1196687882766 L660 446.2614017324522 L720 408.47063384670764 L780 412.9989282991737 L840 395.9127441183664 L900 408.19703201251104 L960 400.8657178208232 L1020 385.83011802472174 L1080 403.75388733297586 L1140 424.62316403817385 L1200 441.35822406224906 L1200 468 Z" fill="#c8895a" opacity=".7"/><path d="M0 478 L0 346.63113888772205 L90 384.88494295813143 L180 331.6518839141354 L270 362.58891379414126 L360 341.13019240275025 L450 297.3526281416416 L540 288.3898283629678 L630 309.11300027929246 L720 297.9437739397399 L810 284.7646861076355 L900 343.8986199623905 L990 320.66648578457534 L1080 278.327739790082 L1170 326.54515948332846 L1200 478 Z" fill="#a5673f"/>
    <rect x="0" y="472" width="1200" height="144" fill="url(#seax)"/><path d="M0 486 Q 300 480 600 486 T 1200 486" stroke="#ffffff" stroke-opacity="0.14" stroke-width="2.5" fill="none"/><path d="M0 502 Q 300 496 600 502 T 1200 502" stroke="#ffffff" stroke-opacity="0.128" stroke-width="2.5" fill="none"/><path d="M0 518 Q 300 512 600 518 T 1200 518" stroke="#ffffff" stroke-opacity="0.11600000000000002" stroke-width="2.5" fill="none"/><path d="M0 534 Q 300 528 600 534 T 1200 534" stroke="#ffffff" stroke-opacity="0.10400000000000001" stroke-width="2.5" fill="none"/><path d="M0 550 Q 300 544 600 550 T 1200 550" stroke="#ffffff" stroke-opacity="0.09200000000000001" stroke-width="2.5" fill="none"/><path d="M0 566 Q 300 560 600 566 T 1200 566" stroke="#ffffff" stroke-opacity="0.08000000000000002" stroke-width="2.5" fill="none"/><path d="M0 582 Q 300 576 600 582 T 1200 582" stroke="#ffffff" stroke-opacity="0.068" stroke-width="2.5" fill="none"/><path d="M0 598 Q 300 592 600 598 T 1200 598" stroke="#ffffff" stroke-opacity="0.05600000000000001" stroke-width="2.5" fill="none"/>
    <rect x="0" y="594" width="1200" height="306" fill="#e2cda1"/>
    <ellipse cx="600" cy="886.5" rx="744" ry="40" fill="#00000022"/>
    <g>
    <path d="M192 774 h360 v-260 h-360 Z" fill="#caa96f"/>
    <line x1="228" y1="774" x2="228" y2="514" stroke="#00000022" stroke-width="3"/><line x1="264" y1="774" x2="264" y2="514" stroke="#00000022" stroke-width="3"/><line x1="300" y1="774" x2="300" y2="514" stroke="#00000022" stroke-width="3"/><line x1="336" y1="774" x2="336" y2="514" stroke="#00000022" stroke-width="3"/><line x1="372" y1="774" x2="372" y2="514" stroke="#00000022" stroke-width="3"/><line x1="408" y1="774" x2="408" y2="514" stroke="#00000022" stroke-width="3"/><line x1="444" y1="774" x2="444" y2="514" stroke="#00000022" stroke-width="3"/><line x1="480" y1="774" x2="480" y2="514" stroke="#00000022" stroke-width="3"/><line x1="516" y1="774" x2="516" y2="514" stroke="#00000022" stroke-width="3"/>
    <path d="M148.8 514 L372 362.8 L595.2 514 Z" fill="#3f9d6e"/>
    <line x1="154.8" y1="514" x2="140.8" y2="540" stroke="#00000030" stroke-width="4" stroke-linecap="round"/><line x1="192" y1="514" x2="178" y2="540" stroke="#00000030" stroke-width="4" stroke-linecap="round"/><line x1="229.2" y1="514" x2="215.2" y2="540" stroke="#00000030" stroke-width="4" stroke-linecap="round"/><line x1="266.4" y1="514" x2="252.39999999999998" y2="540" stroke="#00000030" stroke-width="4" stroke-linecap="round"/><line x1="303.6" y1="514" x2="289.6" y2="540" stroke="#00000030" stroke-width="4" stroke-linecap="round"/><line x1="340.79999999999995" y1="514" x2="326.79999999999995" y2="540" stroke="#00000030" stroke-width="4" stroke-linecap="round"/><line x1="378" y1="514" x2="364" y2="540" stroke="#00000030" stroke-width="4" stroke-linecap="round"/><line x1="415.2" y1="514" x2="401.2" y2="540" stroke="#00000030" stroke-width="4" stroke-linecap="round"/><line x1="452.4" y1="514" x2="438.4" y2="540" stroke="#00000030" stroke-width="4" stroke-linecap="round"/><line x1="489.59999999999997" y1="514" x2="475.59999999999997" y2="540" stroke="#00000030" stroke-width="4" stroke-linecap="round"/><line x1="526.8" y1="514" x2="512.8" y2="540" stroke="#00000030" stroke-width="4" stroke-linecap="round"/><line x1="564" y1="514" x2="550" y2="540" stroke="#00000030" stroke-width="4" stroke-linecap="round"/>
    <rect x="328.8" y="586.8" width="86.39999999999999" height="187.2" rx="6" fill="#3a2c1c"/>
  </g><g transform="translate(864 783) scale(1.5)">
    <path d="M0 0 C 10 -60 26 -110 46 -150" stroke="#a5673f" stroke-width="14" stroke-linecap="round" fill="none"/>
    <g transform="translate(46 -150)"><path d="M0 0 q 12.554319953485155 -46 25.10863990697031 -30" stroke="#a5673f" stroke-width="10" stroke-linecap="round" fill="none"/><path d="M0 0 q 41.108419502715435 -52 82.21683900543087 -20" stroke="#a5673f" stroke-width="10" stroke-linecap="round" fill="none"/><path d="M0 0 q 57.79413037842027 -58 115.58826075684054 -10" stroke="#a5673f" stroke-width="10" stroke-linecap="round" fill="none"/><path d="M0 0 q 57.79413037842027 -64 115.58826075684054 0" stroke="#a5673f" stroke-width="10" stroke-linecap="round" fill="none"/><path d="M0 0 q 41.108419502715435 -70 82.21683900543087 10" stroke="#a5673f" stroke-width="10" stroke-linecap="round" fill="none"/><path d="M0 0 q 12.554319953485155 -76 25.10863990697031 20" stroke="#a5673f" stroke-width="10" stroke-linecap="round" fill="none"/></g></g><g transform="translate(108 792) scale(1.1)">
    <path d="M0 0 C -10 -60 -26 -110 -46 -150" stroke="#a5673f" stroke-width="14" stroke-linecap="round" fill="none"/>
    <g transform="translate(-46 -150)"><path d="M0 0 q -12.554319953485155 -46 -25.10863990697031 -30" stroke="#a5673f" stroke-width="10" stroke-linecap="round" fill="none"/><path d="M0 0 q -41.108419502715435 -52 -82.21683900543087 -20" stroke="#a5673f" stroke-width="10" stroke-linecap="round" fill="none"/><path d="M0 0 q -57.79413037842027 -58 -115.58826075684054 -10" stroke="#a5673f" stroke-width="10" stroke-linecap="round" fill="none"/><path d="M0 0 q -57.79413037842027 -64 -115.58826075684054 0" stroke="#a5673f" stroke-width="10" stroke-linecap="round" fill="none"/><path d="M0 0 q -41.108419502715435 -70 -82.21683900543087 10" stroke="#a5673f" stroke-width="10" stroke-linecap="round" fill="none"/><path d="M0 0 q -12.554319953485155 -76 -25.10863990697031 20" stroke="#a5673f" stroke-width="10" stroke-linecap="round" fill="none"/></g></g>
    <path d="M60 162 Q 600 242 1140 162" stroke="#1a140f" stroke-width="3" fill="none"/><circle cx="168" cy="182.3606797749979" r="5" fill="#f7ead0"/><circle cx="168" cy="182.3606797749979" r="12" fill="#f7ead0" opacity=".25"/><circle cx="276" cy="193.51141009169893" r="5" fill="#f7ead0"/><circle cx="276" cy="193.51141009169893" r="12" fill="#f7ead0" opacity=".25"/><circle cx="384" cy="202.3606797749979" r="5" fill="#f7ead0"/><circle cx="384" cy="202.3606797749979" r="12" fill="#f7ead0" opacity=".25"/><circle cx="492" cy="208.04226065180615" r="5" fill="#f7ead0"/><circle cx="492" cy="208.04226065180615" r="12" fill="#f7ead0" opacity=".25"/><circle cx="600" cy="210" r="5" fill="#f7ead0"/><circle cx="600" cy="210" r="12" fill="#f7ead0" opacity=".25"/><circle cx="708" cy="208.04226065180615" r="5" fill="#f7ead0"/><circle cx="708" cy="208.04226065180615" r="12" fill="#f7ead0" opacity=".25"/><circle cx="816" cy="202.3606797749979" r="5" fill="#f7ead0"/><circle cx="816" cy="202.3606797749979" r="12" fill="#f7ead0" opacity=".25"/><circle cx="924" cy="193.51141009169893" r="5" fill="#f7ead0"/><circle cx="924" cy="193.51141009169893" r="12" fill="#f7ead0" opacity=".25"/><circle cx="1032" cy="182.3606797749979" r="5" fill="#f7ead0"/><circle cx="1032" cy="182.3606797749979" r="12" fill="#f7ead0" opacity=".25"/>
    <g transform="translate(1056 720) scale(1.2)">
    <circle cx="0" cy="26" r="46" fill="#f7ead0" opacity=".28"/>
    <line x1="0" y1="-34" x2="0" y2="-12" stroke="#2a2118" stroke-width="4"/>
    <path d="M-16 -12 h32 l6 14 v22 l-6 14 h-32 l-6 -14 v-22 Z" fill="#2a2118"/>
    <path d="M-10 -6 h20 l4 10 v18 l-4 10 h-20 l-4 -10 v-18 Z" fill="#f7ead0"/>
  </g>
<rect width="1200" height="900" filter="url(#grainx)" opacity=".8"/>
  <rect x="0" y="0" width="1200" height="900" fill="none" stroke="#0e0b08" stroke-opacity=".25" stroke-width="2"/>
</svg>