<svg xmlns="http://www.w3.org/2000/svg" viewBox="0 0 1200 900" preserveAspectRatio="xMidYMid slice">
<defs>
  <linearGradient id="skyx" x1="0" y1="0" x2="0" y2="1">
    <stop offset="0" stop-color="#7fb6c9"/><stop offset=".55" stop-color="#cfe3dd"/><stop offset="1" stop-color="#efe6cc"/>
  </linearGradient>
  <linearGradient id="seax" x1="0" y1="0" x2="0" y2="1">
    <stop offset="0" stop-color="#57b3a6"/><stop offset="1" stop-color="#1c7a7c"/>
  </linearGradient>
  <radialGradient id="glowx" cx=".5" cy=".5" r=".5">
    <stop offset="0" stop-color="#f7ead0" stop-opacity=".9"/><stop offset="1" stop-color="#f7ead0" stop-opacity="0"/>
  </radialGradient>
  <linearGradient id="accx" x1="0" y1="0" x2="1" y2="1">
    <stop offset="0" stop-color="#2ba7a0"/><stop offset="1" stop-color="#2ba7a0" stop-opacity=".6"/>
  </linearGradient>
  <filter id="grainx"><feTurbulence type="fractalNoise" baseFrequency=".9" numOctaves="2" stitchTiles="stitch"/>
    <feColorMatrix type="matrix" values="0 0 0 0 0  0 0 0 0 0  0 0 0 0 0  0 0 0 .06 0"/>
  </filter>
  <filter id="softx" x="-20%" y="-20%" width="140%" height="140%"><feGaussianBlur stdDeviation="18"/></filter>
</defs>
<rect width="1200" height="900" fill="url(#skyx)"/>
<circle cx="840" cy="216" r="251.6" fill="url(#glow)"/><circle cx="840" cy="216" r="74" fill="#f7ead0"/><path d="M0 450 L0 408.1495797378011 L60 396.07097909552976 L120 375.9791765199043 L180 391.44727861043066 L240 414.4464369886555 L300 427.93422396760434 L360 429.6629497152753 L420 393.9590227417648 L480 375.9765010490082 L540 370.7224719552323 L600 422.2144639864564 L660 365.2685843477957 L720 391.4513599104248 L780 367.69986843224615 L840 371.9341184012592 L900 405.7098549581133 L960 360.24537563091144 L1020 425.969437842723 L1080 367.51936476444826 L1140 412.2747356444597 L1200 416.02428627666086 L1200 450 Z" fill="#c8895a" opacity=".7"/><path d="M0 460 L0 372.40881296107545 L90 359.69465497881174 L180 295.0035535544157 L270 289.73569218534976 L360 298.36714989040047 L450 378.7246250221506 L540 322.07362674642354 L630 274.36396373901516 L720 377.8285029856488 L810 368.62131469417363 L900 341.5248561440967 L990 386.44617886049673 L1080 289.2048787116073 L1170 322.61894018854946 L1200 460 Z" fill="#a5673f"/><rect x="0" y="450" width="1200" height="450" fill="url(#seax)"/><path d="M0 464 Q 300 458 600 464 T 1200 464" stroke="#ffffff" stroke-opacity="0.14" stroke-width="2.5" fill="none"/><path d="M0 514 Q 300 508 600 514 T 1200 514" stroke="#ffffff" stroke-opacity="0.128" stroke-width="2.5" fill="none"/><path d="M0 564 Q 300 558 600 564 T 1200 564" stroke="#ffffff" stroke-opacity="0.11600000000000002" stroke-width="2.5" fill="none"/><path d="M0 614 Q 300 608 600 614 T 1200 614" stroke="#ffffff" stroke-opacity="0.10400000000000001" stroke-width="2.5" fill="none"/><path d="M0 664 Q 300 658 600 664 T 1200 664" stroke="#ffffff" stroke-opacity="0.09200000000000001" stroke-width="2.5" fill="none"/><path d="M0 714 Q 300 708 600 714 T 1200 714" stroke="#ffffff" stroke-opacity="0.08000000000000002" stroke-width="2.5" fill="none"/><path d="M0 764 Q 300 758 600 764 T 1200 764" stroke="#ffffff" stroke-opacity="0.068" stroke-width="2.5" fill="none"/><path d="M0 814 Q 300 808 600 814 T 1200 814" stroke="#ffffff" stroke-opacity="0.05600000000000001" stroke-width="2.5" fill="none"/><g transform="translate(480 630)"><circle r="60" fill="#0b2c33"/><rect x="-14" y="-90" width="28" height="46" rx="10" fill="#2ba7a0"/><circle cx="0" cy="-14" r="34" fill="#123c44" stroke="#f3ecdd" stroke-width="8"/><path d="M-70 30 q 70 50 140 0" stroke="#2ba7a0" stroke-width="10" fill="none"/><circle cx="20" cy="-86" r="7" fill="#fff" opacity=".7"/><circle cx="40" cy="-112" r="9" fill="#fff" opacity=".7"/><circle cx="60" cy="-138" r="11" fill="#fff" opacity=".7"/></g>
<rect width="1200" height="900" filter="url(#grainx)" opacity=".8"/>
  <rect x="0" y="0" width="1200" height="900" fill="none" stroke="#0e0b08" stroke-opacity=".25" stroke-width="2"/>
</svg>