<svg xmlns="http://www.w3.org/2000/svg" viewBox="0 0 1200 900" preserveAspectRatio="xMidYMid slice">
<defs>
  <linearGradient id="skyx" x1="0" y1="0" x2="0" y2="1">
    <stop offset="0" stop-color="#070d1c"/><stop offset=".55" stop-color="#122036"/><stop offset="1" stop-color="#1d3a4a"/>
  </linearGradient>
  <linearGradient id="seax" x1="0" y1="0" x2="0" y2="1">
    <stop offset="0" stop-color="#174a52"/><stop offset="1" stop-color="#0a2531"/>
  </linearGradient>
  <radialGradient id="glowx" cx=".5" cy=".5" r=".5">
    <stop offset="0" stop-color="#e9e4d0" stop-opacity=".9"/><stop offset="1" stop-color="#e9e4d0" stop-opacity="0"/>
  </radialGradient>
  <linearGradient id="accx" x1="0" y1="0" x2="1" y2="1">
    <stop offset="0" stop-color="#ff5c39"/><stop offset="1" stop-color="#ff5c39" stop-opacity=".6"/>
  </linearGradient>
  <filter id="grainx"><feTurbulence type="fractalNoise" baseFrequency=".9" numOctaves="2" stitchTiles="stitch"/>
    <feColorMatrix type="matrix" values="0 0 0 0 0  0 0 0 0 0  0 0 0 0 0  0 0 0 .06 0"/>
  </filter>
  <filter id="softx" x="-20%" y="-20%" width="140%" height="140%"><feGaussianBlur stdDeviation="18"/></filter>
</defs>
<rect width="1200" height="900" fill="url(#skyx)"/>
<circle cx="639.3" cy="257.4" r="2.2" fill="#fff" opacity="0.75"/><circle cx="173.2" cy="91.8" r="2.0" fill="#fff" opacity="0.86"/><circle cx="3.1" cy="108.3" r="0.7" fill="#fff" opacity="0.34"/><circle cx="52.2" cy="43.4" r="1.8" fill="#fff" opacity="0.52"/><circle cx="1087.6" cy="290.5" r="1.7" fill="#fff" opacity="0.78"/><circle cx="205.7" cy="220.5" r="2.1" fill="#fff" opacity="0.78"/><circle cx="971.7" cy="83.8" r="1.6" fill="#fff" opacity="0.88"/><circle cx="1023.9" cy="8.8" r="1.3" fill="#fff" opacity="0.80"/><circle cx="154.1" cy="194.9" r="0.5" fill="#fff" opacity="0.79"/><circle cx="1088.6" cy="198.7" r="1.1" fill="#fff" opacity="0.88"/><circle cx="596.0" cy="86.2" r="1.7" fill="#fff" opacity="0.50"/><circle cx="225.9" cy="281.1" r="1.8" fill="#fff" opacity="0.61"/><circle cx="866.0" cy="446.6" r="1.2" fill="#fff" opacity="0.56"/><circle cx="1153.2" cy="124.0" r="2.1" fill="#fff" opacity="0.47"/><circle cx="476.5" cy="175.9" r="2.0" fill="#fff" opacity="0.44"/><circle cx="75.4" cy="6.5" r="1.3" fill="#fff" opacity="0.74"/><circle cx="627.3" cy="180.0" r="1.9" fill="#fff" opacity="0.69"/><circle cx="139.7" cy="382.2" r="1.2" fill="#fff" opacity="0.39"/><circle cx="749.2" cy="327.7" r="1.5" fill="#fff" opacity="0.67"/><circle cx="1107.1" cy="350.6" r="2.0" fill="#fff" opacity="0.87"/><circle cx="229.4" cy="113.8" r="0.7" fill="#fff" opacity="0.39"/><circle cx="1176.9" cy="125.9" r="1.4" fill="#fff" opacity="0.43"/><circle cx="188.4" cy="156.8" r="0.8" fill="#fff" opacity="0.37"/><circle cx="125.2" cy="57.5" r="2.1" fill="#fff" opacity="0.70"/><circle cx="560.2" cy="234.6" r="1.2" fill="#fff" opacity="0.70"/><circle cx="422.9" cy="199.6" r="1.1" fill="#fff" opacity="0.79"/><circle cx="920.8" cy="221.3" r="1.7" fill="#fff" opacity="0.89"/><circle cx="364.9" cy="159.0" r="2.1" fill="#fff" opacity="0.56"/><circle cx="148.0" cy="129.7" r="1.6" fill="#fff" opacity="0.64"/><circle cx="29.8" cy="383.7" r="0.5" fill="#fff" opacity="0.83"/><circle cx="662.4" cy="229.3" r="1.1" fill="#fff" opacity="0.60"/><circle cx="92.7" cy="53.5" r="1.9" fill="#fff" opacity="0.38"/><circle cx="677.2" cy="191.9" r="0.6" fill="#fff" opacity="0.76"/><circle cx="934.0" cy="370.0" r="0.6" fill="#fff" opacity="0.77"/><circle cx="707.2" cy="284.6" r="2.1" fill="#fff" opacity="0.32"/><circle cx="426.7" cy="286.9" r="1.2" fill="#fff" opacity="0.36"/><circle cx="823.1" cy="296.2" r="1.5" fill="#fff" opacity="0.54"/><circle cx="1024.0" cy="437.6" r="0.4" fill="#fff" opacity="0.89"/><circle cx="260.3" cy="159.1" r="2.1" fill="#fff" opacity="0.73"/><circle cx="24.4" cy="77.9" r="1.7" fill="#fff" opacity="0.84"/><circle cx="313.5" cy="21.4" r="0.8" fill="#fff" opacity="0.81"/><circle cx="976.6" cy="420.0" r="0.4" fill="#fff" opacity="0.57"/><circle cx="585.9" cy="325.1" r="1.0" fill="#fff" opacity="0.44"/><circle cx="634.9" cy="444.7" r="0.6" fill="#fff" opacity="0.77"/><circle cx="239.5" cy="21.6" r="1.2" fill="#fff" opacity="0.32"/><circle cx="277.5" cy="244.6" r="1.0" fill="#fff" opacity="0.70"/><circle cx="948.3" cy="186.1" r="2.1" fill="#fff" opacity="0.61"/><circle cx="492.2" cy="139.9" r="0.6" fill="#fff" opacity="0.75"/><circle cx="427.2" cy="95.3" r="0.6" fill="#fff" opacity="0.73"/><circle cx="1013.1" cy="121.8" r="2.1" fill="#fff" opacity="0.84"/><circle cx="492.1" cy="274.7" r="0.7" fill="#fff" opacity="0.51"/><circle cx="61.6" cy="163.0" r="0.7" fill="#fff" opacity="0.52"/><circle cx="1141.3" cy="256.9" r="1.9" fill="#fff" opacity="0.51"/><circle cx="1029.8" cy="216.4" r="2.0" fill="#fff" opacity="0.34"/><circle cx="72.2" cy="75.5" r="0.6" fill="#fff" opacity="0.80"/><circle cx="62.4" cy="422.4" r="2.2" fill="#fff" opacity="0.53"/><circle cx="133.5" cy="328.6" r="1.1" fill="#fff" opacity="0.57"/><circle cx="1172.7" cy="233.0" r="2.1" fill="#fff" opacity="0.80"/><circle cx="573.6" cy="94.1" r="1.7" fill="#fff" opacity="0.64"/><circle cx="747.7" cy="16.0" r="1.8" fill="#fff" opacity="0.37"/><circle cx="840" cy="216" r="156.4" fill="url(#glow)"/><circle cx="840" cy="216" r="46" fill="#e9e4d0"/><circle cx="856" cy="206" r="46" fill="#070d1c"/><path d="M0 450 L0 364.4533243216574 L60 396.1361621087417 L120 427.4377942690626 L180 429.908921434544 L240 422.7417733729817 L300 392.6525458483957 L360 392.92246017837897 L420 401.19066261220723 L480 393.38979025604203 L540 407.20620677340776 L600 400.53800735389814 L660 380.2863975870423 L720 373.0075428704731 L780 375.84235559683293 L840 397.3358229803853 L900 417.36826138803735 L960 415.4095707531087 L1020 423.61326138023287 L1080 387.46355746872723 L1140 373.53760949568823 L1200 399.0867469157092 L1200 450 Z" fill="#16202f" opacity=".7"/><path d="M0 460 L0 271.748553852085 L90 265.01650613499805 L180 356.29704190883785 L270 336.763397755567 L360 286.17348642088473 L450 310.51370611647144 L540 316.75139545230195 L630 280.16918539535254 L720 316.3398758810945 L810 364.58404160570353 L900 361.95037609897554 L990 304.5941379503347 L1080 269.734036992304 L1170 303.6563461320475 L1200 460 Z" fill="#0b111e"/><rect x="0" y="450" width="1200" height="450" fill="url(#seax)"/><path d="M0 464 Q 300 458 600 464 T 1200 464" stroke="#ffffff" stroke-opacity="0.14" stroke-width="2.5" fill="none"/><path d="M0 514 Q 300 508 600 514 T 1200 514" stroke="#ffffff" stroke-opacity="0.128" stroke-width="2.5" fill="none"/><path d="M0 564 Q 300 558 600 564 T 1200 564" stroke="#ffffff" stroke-opacity="0.11600000000000002" stroke-width="2.5" fill="none"/><path d="M0 614 Q 300 608 600 614 T 1200 614" stroke="#ffffff" stroke-opacity="0.10400000000000001" stroke-width="2.5" fill="none"/><path d="M0 664 Q 300 658 600 664 T 1200 664" stroke="#ffffff" stroke-opacity="0.09200000000000001" stroke-width="2.5" fill="none"/><path d="M0 714 Q 300 708 600 714 T 1200 714" stroke="#ffffff" stroke-opacity="0.08000000000000002" stroke-width="2.5" fill="none"/><path d="M0 764 Q 300 758 600 764 T 1200 764" stroke="#ffffff" stroke-opacity="0.068" stroke-width="2.5" fill="none"/><path d="M0 814 Q 300 808 600 814 T 1200 814" stroke="#ffffff" stroke-opacity="0.05600000000000001" stroke-width="2.5" fill="none"/><g transform="translate(600 648)"><ellipse cy="66" rx="220" ry="30" fill="#00000033"/><rect x="-200" y="18" width="80" height="26" rx="13" fill="#5c4128"/><rect x="120" y="18" width="80" height="26" rx="13" fill="#5c4128"/><path d="M-40 40 q -10 -90 40 -130 q -6 60 30 80 q 20 -26 16 -60 q 40 50 10 110 Z" fill="#ff5c39"/><path d="M-18 40 q 0 -50 22 -70 q 10 34 18 44 q 8 -12 6 -30 q 22 30 2 56 Z" fill="#ffd98a"/></g>
<rect width="1200" height="900" filter="url(#grainx)" opacity=".8"/>
  <rect x="0" y="0" width="1200" height="900" fill="none" stroke="#0e0b08" stroke-opacity=".25" stroke-width="2"/>
</svg>