<svg xmlns="http://www.w3.org/2000/svg" viewBox="0 0 1200 900" preserveAspectRatio="xMidYMid slice">
<defs>
  <linearGradient id="skyx" x1="0" y1="0" x2="0" y2="1">
    <stop offset="0" stop-color="#33415e"/><stop offset=".55" stop-color="#a6738a"/><stop offset="1" stop-color="#e7b98a"/>
  </linearGradient>
  <linearGradient id="seax" x1="0" y1="0" x2="0" y2="1">
    <stop offset="0" stop-color="#3b8a83"/><stop offset="1" stop-color="#1b4e57"/>
  </linearGradient>
  <radialGradient id="glowx" cx=".5" cy=".5" r=".5">
    <stop offset="0" stop-color="#f2d9a6" stop-opacity=".9"/><stop offset="1" stop-color="#f2d9a6" stop-opacity="0"/>
  </radialGradient>
  <linearGradient id="accx" x1="0" y1="0" x2="1" y2="1">
    <stop offset="0" stop-color="#4d8fd1"/><stop offset="1" stop-color="#4d8fd1" stop-opacity=".6"/>
  </linearGradient>
  <filter id="grainx"><feTurbulence type="fractalNoise" baseFrequency=".9" numOctaves="2" stitchTiles="stitch"/>
    <feColorMatrix type="matrix" values="0 0 0 0 0  0 0 0 0 0  0 0 0 0 0  0 0 0 .06 0"/>
  </filter>
  <filter id="softx" x="-20%" y="-20%" width="140%" height="140%"><feGaussianBlur stdDeviation="18"/></filter>
</defs>
<rect width="1200" height="900" fill="url(#skyx)"/>
<circle cx="253.3" cy="284.1" r="1.7" fill="#fff" opacity="0.05"/><circle cx="1197.7" cy="101.5" r="0.9" fill="#fff" opacity="0.10"/><circle cx="906.9" cy="225.8" r="0.6" fill="#fff" opacity="0.07"/><circle cx="917.7" cy="234.8" r="0.7" fill="#fff" opacity="0.12"/><circle cx="228.5" cy="446.4" r="1.4" fill="#fff" opacity="0.06"/><circle cx="583.9" cy="194.7" r="1.1" fill="#fff" opacity="0.07"/><circle cx="558.2" cy="236.6" r="1.9" fill="#fff" opacity="0.07"/><circle cx="325.2" cy="421.8" r="1.6" fill="#fff" opacity="0.12"/><circle cx="58.4" cy="379.9" r="0.4" fill="#fff" opacity="0.11"/><circle cx="531.9" cy="131.2" r="1.4" fill="#fff" opacity="0.08"/><circle cx="30.8" cy="294.6" r="0.9" fill="#fff" opacity="0.10"/><circle cx="118.2" cy="198.0" r="0.7" fill="#fff" opacity="0.08"/><circle cx="641.4" cy="398.1" r="1.7" fill="#fff" opacity="0.06"/><circle cx="319.7" cy="238.1" r="2.1" fill="#fff" opacity="0.05"/><circle cx="827.2" cy="401.0" r="0.7" fill="#fff" opacity="0.09"/><circle cx="322.8" cy="219.2" r="1.7" fill="#fff" opacity="0.08"/><circle cx="1025.2" cy="351.7" r="1.2" fill="#fff" opacity="0.07"/><circle cx="234.9" cy="296.3" r="1.7" fill="#fff" opacity="0.13"/><circle cx="317.7" cy="378.3" r="0.7" fill="#fff" opacity="0.11"/><circle cx="681.0" cy="61.8" r="1.3" fill="#fff" opacity="0.08"/><circle cx="947.1" cy="100.9" r="1.9" fill="#fff" opacity="0.12"/><circle cx="364.6" cy="37.8" r="2.2" fill="#fff" opacity="0.06"/><circle cx="76.7" cy="423.4" r="2.0" fill="#fff" opacity="0.05"/><circle cx="328.0" cy="89.8" r="2.1" fill="#fff" opacity="0.06"/><circle cx="1078.6" cy="287.8" r="1.4" fill="#fff" opacity="0.05"/><circle cx="1070.6" cy="69.0" r="1.6" fill="#fff" opacity="0.08"/><circle cx="219.1" cy="247.3" r="2.1" fill="#fff" opacity="0.07"/><circle cx="258.1" cy="441.3" r="1.4" fill="#fff" opacity="0.09"/><circle cx="354.6" cy="246.2" r="0.5" fill="#fff" opacity="0.11"/><circle cx="1154.4" cy="253.1" r="1.4" fill="#fff" opacity="0.08"/><circle cx="1024.2" cy="388.4" r="0.7" fill="#fff" opacity="0.10"/><circle cx="749.7" cy="56.7" r="0.7" fill="#fff" opacity="0.07"/><circle cx="708.6" cy="15.2" r="1.8" fill="#fff" opacity="0.05"/><circle cx="28.7" cy="439.5" r="0.9" fill="#fff" opacity="0.06"/><circle cx="646.3" cy="101.4" r="0.4" fill="#fff" opacity="0.08"/><circle cx="9.8" cy="314.8" r="1.1" fill="#fff" opacity="0.09"/><circle cx="1159.6" cy="343.1" r="1.4" fill="#fff" opacity="0.05"/><circle cx="654.2" cy="140.1" r="2.2" fill="#fff" opacity="0.11"/><circle cx="1188.2" cy="101.3" r="1.7" fill="#fff" opacity="0.05"/><circle cx="792.1" cy="296.4" r="1.4" fill="#fff" opacity="0.09"/><circle cx="279.3" cy="307.2" r="1.1" fill="#fff" opacity="0.08"/><circle cx="209.4" cy="257.3" r="2.0" fill="#fff" opacity="0.08"/><circle cx="458.7" cy="302.0" r="1.5" fill="#fff" opacity="0.08"/><circle cx="798.4" cy="262.2" r="0.4" fill="#fff" opacity="0.12"/><circle cx="1051.2" cy="67.2" r="1.4" fill="#fff" opacity="0.10"/><circle cx="1165.5" cy="347.0" r="0.5" fill="#fff" opacity="0.05"/><circle cx="840.0" cy="210.3" r="1.4" fill="#fff" opacity="0.12"/><circle cx="861.1" cy="224.8" r="1.0" fill="#fff" opacity="0.12"/><circle cx="16.7" cy="401.6" r="1.8" fill="#fff" opacity="0.11"/><circle cx="732.0" cy="319.7" r="0.9" fill="#fff" opacity="0.11"/><circle cx="580.9" cy="390.6" r="0.5" fill="#fff" opacity="0.12"/><circle cx="948.7" cy="402.2" r="1.9" fill="#fff" opacity="0.09"/><circle cx="821.6" cy="52.2" r="1.2" fill="#fff" opacity="0.09"/><circle cx="879.5" cy="331.2" r="0.8" fill="#fff" opacity="0.07"/><circle cx="596.7" cy="317.5" r="1.4" fill="#fff" opacity="0.13"/><circle cx="793.1" cy="440.4" r="1.6" fill="#fff" opacity="0.12"/><circle cx="1162.8" cy="106.6" r="0.4" fill="#fff" opacity="0.11"/><circle cx="1021.7" cy="407.5" r="1.0" fill="#fff" opacity="0.06"/><circle cx="873.5" cy="47.2" r="1.1" fill="#fff" opacity="0.13"/><circle cx="507.0" cy="348.5" r="1.4" fill="#fff" opacity="0.09"/><circle cx="840" cy="216" r="251.6" fill="url(#glow)"/><circle cx="840" cy="216" r="74" fill="#f2d9a6"/><path d="M0 450 L0 382.58050127653405 L60 393.79510761937127 L120 425.2484911400825 L180 386.8757389206439 L240 422.2811975236982 L300 389.76507417391986 L360 407.9660868924111 L420 383.210069804918 L480 373.0006187176332 L540 372.186243403703 L600 425.883802450262 L660 366.51033889502287 L720 393.616101865191 L780 414.448265673127 L840 419.4140593172051 L900 362.29341657599434 L960 415.7429206580855 L1020 416.9974188879132 L1080 362.0515667065047 L1140 428.0364220566116 L1200 361.7707657534629 L1200 450 Z" fill="#3d2f48" opacity=".7"/><path d="M0 460 L0 349.2249938403256 L90 288.2896947162226 L180 362.18696219148114 L270 276.77871408639476 L360 260.70797976106405 L450 384.79946334380656 L540 269.54343535238877 L630 358.0632314225659 L720 363.7232554424554 L810 290.453272073064 L900 313.07679052930325 L990 296.1396675882861 L1080 320.044574837666 L1170 311.6211934480816 L1200 460 Z" fill="#241d33"/><rect x="0" y="450" width="1200" height="450" fill="url(#seax)"/><path d="M0 464 Q 300 458 600 464 T 1200 464" stroke="#ffffff" stroke-opacity="0.14" stroke-width="2.5" fill="none"/><path d="M0 514 Q 300 508 600 514 T 1200 514" stroke="#ffffff" stroke-opacity="0.128" stroke-width="2.5" fill="none"/><path d="M0 564 Q 300 558 600 564 T 1200 564" stroke="#ffffff" stroke-opacity="0.11600000000000002" stroke-width="2.5" fill="none"/><path d="M0 614 Q 300 608 600 614 T 1200 614" stroke="#ffffff" stroke-opacity="0.10400000000000001" stroke-width="2.5" fill="none"/><path d="M0 664 Q 300 658 600 664 T 1200 664" stroke="#ffffff" stroke-opacity="0.09200000000000001" stroke-width="2.5" fill="none"/><path d="M0 714 Q 300 708 600 714 T 1200 714" stroke="#ffffff" stroke-opacity="0.08000000000000002" stroke-width="2.5" fill="none"/><path d="M0 764 Q 300 758 600 764 T 1200 764" stroke="#ffffff" stroke-opacity="0.068" stroke-width="2.5" fill="none"/><path d="M0 814 Q 300 808 600 814 T 1200 814" stroke="#ffffff" stroke-opacity="0.05600000000000001" stroke-width="2.5" fill="none"/><g transform="translate(600 594)"><path d="M0 -40 q 30 60 0 160" stroke="#10333b" stroke-width="26" stroke-linecap="round" fill="none"/><circle cy="-58" r="26" fill="#10333b"/><path d="M-8 120 l 30 44 M8 118 l 34 30" stroke="#4d8fd1" stroke-width="16" stroke-linecap="round"/></g><circle cx="600" cy="378" r="90" fill="#0b3a44" opacity=".5"/>
<rect width="1200" height="900" filter="url(#grainx)" opacity=".8"/>
  <rect x="0" y="0" width="1200" height="900" fill="none" stroke="#0e0b08" stroke-opacity=".25" stroke-width="2"/>
</svg>