<svg xmlns="http://www.w3.org/2000/svg" viewBox="0 0 1200 900" preserveAspectRatio="xMidYMid slice">
<defs>
  <linearGradient id="skyx" x1="0" y1="0" x2="0" y2="1">
    <stop offset="0" stop-color="#2b1f3a"/><stop offset=".55" stop-color="#c25b3f"/><stop offset="1" stop-color="#e8a35c"/>
  </linearGradient>
  <linearGradient id="seax" x1="0" y1="0" x2="0" y2="1">
    <stop offset="0" stop-color="#2c6f70"/><stop offset="1" stop-color="#173f46"/>
  </linearGradient>
  <radialGradient id="glowx" cx=".5" cy=".5" r=".5">
    <stop offset="0" stop-color="#f4c479" stop-opacity=".9"/><stop offset="1" stop-color="#f4c479" stop-opacity="0"/>
  </radialGradient>
  <linearGradient id="accx" x1="0" y1="0" x2="1" y2="1">
    <stop offset="0" stop-color="#e0723c"/><stop offset="1" stop-color="#e0723c" stop-opacity=".6"/>
  </linearGradient>
  <filter id="grainx"><feTurbulence type="fractalNoise" baseFrequency=".9" numOctaves="2" stitchTiles="stitch"/>
    <feColorMatrix type="matrix" values="0 0 0 0 0  0 0 0 0 0  0 0 0 0 0  0 0 0 .06 0"/>
  </filter>
  <filter id="softx" x="-20%" y="-20%" width="140%" height="140%"><feGaussianBlur stdDeviation="18"/></filter>
</defs>
<rect width="1200" height="900" fill="url(#skyx)"/>
<circle cx="798.1" cy="373.5" r="1.1" fill="#fff" opacity="0.24"/><circle cx="388.2" cy="67.1" r="1.3" fill="#fff" opacity="0.13"/><circle cx="742.5" cy="308.6" r="0.9" fill="#fff" opacity="0.12"/><circle cx="569.1" cy="384.4" r="1.7" fill="#fff" opacity="0.13"/><circle cx="690.0" cy="402.9" r="1.8" fill="#fff" opacity="0.30"/><circle cx="389.7" cy="93.8" r="2.0" fill="#fff" opacity="0.25"/><circle cx="1108.5" cy="176.0" r="1.3" fill="#fff" opacity="0.30"/><circle cx="257.2" cy="50.9" r="1.0" fill="#fff" opacity="0.25"/><circle cx="1156.4" cy="213.6" r="1.4" fill="#fff" opacity="0.18"/><circle cx="113.7" cy="15.0" r="1.4" fill="#fff" opacity="0.27"/><circle cx="1129.6" cy="399.9" r="1.7" fill="#fff" opacity="0.14"/><circle cx="435.9" cy="234.7" r="1.7" fill="#fff" opacity="0.27"/><circle cx="569.5" cy="11.9" r="0.7" fill="#fff" opacity="0.30"/><circle cx="479.0" cy="376.2" r="1.0" fill="#fff" opacity="0.23"/><circle cx="3.4" cy="396.3" r="0.7" fill="#fff" opacity="0.23"/><circle cx="798.5" cy="157.5" r="0.9" fill="#fff" opacity="0.22"/><circle cx="1149.9" cy="18.1" r="1.4" fill="#fff" opacity="0.31"/><circle cx="347.3" cy="249.9" r="2.0" fill="#fff" opacity="0.20"/><circle cx="205.7" cy="205.1" r="1.4" fill="#fff" opacity="0.25"/><circle cx="409.3" cy="279.4" r="1.9" fill="#fff" opacity="0.19"/><circle cx="947.5" cy="35.2" r="2.1" fill="#fff" opacity="0.22"/><circle cx="26.0" cy="277.0" r="1.4" fill="#fff" opacity="0.25"/><circle cx="1052.4" cy="81.9" r="1.7" fill="#fff" opacity="0.17"/><circle cx="58.2" cy="59.6" r="0.7" fill="#fff" opacity="0.19"/><circle cx="533.5" cy="182.0" r="1.2" fill="#fff" opacity="0.26"/><circle cx="190.3" cy="237.2" r="2.0" fill="#fff" opacity="0.22"/><circle cx="536.7" cy="34.9" r="0.5" fill="#fff" opacity="0.31"/><circle cx="449.3" cy="358.8" r="1.2" fill="#fff" opacity="0.26"/><circle cx="578.8" cy="284.0" r="0.9" fill="#fff" opacity="0.22"/><circle cx="964.8" cy="200.7" r="1.1" fill="#fff" opacity="0.21"/><circle cx="1080.5" cy="157.1" r="1.4" fill="#fff" opacity="0.11"/><circle cx="148.3" cy="127.0" r="1.4" fill="#fff" opacity="0.22"/><circle cx="86.1" cy="253.2" r="0.9" fill="#fff" opacity="0.28"/><circle cx="187.4" cy="3.1" r="1.6" fill="#fff" opacity="0.19"/><circle cx="208.3" cy="447.4" r="1.5" fill="#fff" opacity="0.15"/><circle cx="498.2" cy="364.5" r="1.0" fill="#fff" opacity="0.13"/><circle cx="420.5" cy="163.7" r="1.7" fill="#fff" opacity="0.19"/><circle cx="937.2" cy="227.5" r="1.6" fill="#fff" opacity="0.26"/><circle cx="440.9" cy="2.1" r="1.2" fill="#fff" opacity="0.14"/><circle cx="1028.2" cy="146.8" r="2.0" fill="#fff" opacity="0.23"/><circle cx="479.9" cy="118.9" r="0.6" fill="#fff" opacity="0.27"/><circle cx="1118.5" cy="372.1" r="0.7" fill="#fff" opacity="0.18"/><circle cx="1167.4" cy="149.2" r="1.3" fill="#fff" opacity="0.14"/><circle cx="808.4" cy="415.3" r="1.4" fill="#fff" opacity="0.30"/><circle cx="505.9" cy="399.2" r="1.6" fill="#fff" opacity="0.21"/><circle cx="1104.6" cy="92.0" r="1.0" fill="#fff" opacity="0.25"/><circle cx="579.9" cy="365.8" r="0.6" fill="#fff" opacity="0.15"/><circle cx="432.3" cy="104.8" r="0.8" fill="#fff" opacity="0.19"/><circle cx="376.8" cy="153.6" r="0.8" fill="#fff" opacity="0.29"/><circle cx="791.6" cy="275.6" r="0.7" fill="#fff" opacity="0.31"/><circle cx="797.6" cy="3.2" r="1.7" fill="#fff" opacity="0.17"/><circle cx="705.1" cy="48.9" r="1.6" fill="#fff" opacity="0.17"/><circle cx="728.8" cy="224.7" r="0.5" fill="#fff" opacity="0.31"/><circle cx="1010.9" cy="388.7" r="1.2" fill="#fff" opacity="0.11"/><circle cx="811.3" cy="315.4" r="1.1" fill="#fff" opacity="0.14"/><circle cx="358.2" cy="258.5" r="1.7" fill="#fff" opacity="0.22"/><circle cx="284.4" cy="234.5" r="2.0" fill="#fff" opacity="0.19"/><circle cx="523.7" cy="396.6" r="1.1" fill="#fff" opacity="0.11"/><circle cx="71.1" cy="122.6" r="1.3" fill="#fff" opacity="0.21"/><circle cx="172.8" cy="75.3" r="1.8" fill="#fff" opacity="0.23"/><circle cx="840" cy="216" r="251.6" fill="url(#glow)"/><circle cx="840" cy="216" r="74" fill="#f4c479"/><path d="M0 450 L0 374.3644646904431 L60 402.8849222161807 L120 417.213622208219 L180 377.16721267439425 L240 399.47747844969854 L300 369.9089753883891 L360 368.7003477010876 L420 379.6804117737338 L480 382.4643788347021 L540 426.0847513261251 L600 368.8762298831716 L660 373.53448698297143 L720 404.30010781856254 L780 374.2545925057493 L840 394.915613795165 L900 418.0402714922093 L960 376.00428498582914 L1020 401.3369786227122 L1080 419.84539376804605 L1140 428.89092040481046 L1200 385.0832504616119 L1200 450 Z" fill="#31203a" opacity=".7"/><path d="M0 460 L0 303.9291938743554 L90 384.35484503628686 L180 363.7018425995484 L270 261.55588229652494 L360 345.9831652697176 L450 272.50543614150956 L540 367.3320439364761 L630 260.9916584775783 L720 360.48973062075675 L810 264.4746587704867 L900 329.6793267596513 L990 380.05615742178634 L1080 325.45217661652714 L1170 351.21615970740095 L1200 460 Z" fill="#1d1626"/><rect x="0" y="450" width="1200" height="450" fill="url(#seax)"/><path d="M0 464 Q 300 458 600 464 T 1200 464" stroke="#ffffff" stroke-opacity="0.14" stroke-width="2.5" fill="none"/><path d="M0 514 Q 300 508 600 514 T 1200 514" stroke="#ffffff" stroke-opacity="0.128" stroke-width="2.5" fill="none"/><path d="M0 564 Q 300 558 600 564 T 1200 564" stroke="#ffffff" stroke-opacity="0.11600000000000002" stroke-width="2.5" fill="none"/><path d="M0 614 Q 300 608 600 614 T 1200 614" stroke="#ffffff" stroke-opacity="0.10400000000000001" stroke-width="2.5" fill="none"/><path d="M0 664 Q 300 658 600 664 T 1200 664" stroke="#ffffff" stroke-opacity="0.09200000000000001" stroke-width="2.5" fill="none"/><path d="M0 714 Q 300 708 600 714 T 1200 714" stroke="#ffffff" stroke-opacity="0.08000000000000002" stroke-width="2.5" fill="none"/><path d="M0 764 Q 300 758 600 764 T 1200 764" stroke="#ffffff" stroke-opacity="0.068" stroke-width="2.5" fill="none"/><path d="M0 814 Q 300 808 600 814 T 1200 814" stroke="#ffffff" stroke-opacity="0.05600000000000001" stroke-width="2.5" fill="none"/><g transform="translate(552 630)"><path d="M-60 0 q 0 -60 60 -60 q 60 0 60 60 l 30 0 q 20 0 20 -30 q 0 -60 -60 -80 l 0 -20 q 30 -10 30 -40" stroke="#3a2c1c" stroke-width="18" fill="none" stroke-linecap="round"/><ellipse cx="10" cy="30" rx="120" ry="18" fill="#00000022"/><path d="M-90 20 q 40 -110 130 -60 q 70 40 90 30" stroke="#e0723c" stroke-width="0" fill="none"/><path d="M-110 6 h40 M120 6 h40" stroke="#3a2c1c" stroke-width="14" stroke-linecap="round"/></g>
<rect width="1200" height="900" filter="url(#grainx)" opacity=".8"/>
  <rect x="0" y="0" width="1200" height="900" fill="none" stroke="#0e0b08" stroke-opacity=".25" stroke-width="2"/>
</svg>