<svg xmlns="http://www.w3.org/2000/svg" viewBox="0 0 1200 900" preserveAspectRatio="xMidYMid slice">
<defs>
  <linearGradient id="skyx" x1="0" y1="0" x2="0" y2="1">
    <stop offset="0" stop-color="#33415e"/><stop offset=".55" stop-color="#a6738a"/><stop offset="1" stop-color="#e7b98a"/>
  </linearGradient>
  <linearGradient id="seax" x1="0" y1="0" x2="0" y2="1">
    <stop offset="0" stop-color="#3b8a83"/><stop offset="1" stop-color="#1b4e57"/>
  </linearGradient>
  <radialGradient id="glowx" cx=".5" cy=".5" r=".5">
    <stop offset="0" stop-color="#f2d9a6" stop-opacity=".9"/><stop offset="1" stop-color="#f2d9a6" stop-opacity="0"/>
  </radialGradient>
  <linearGradient id="accx" x1="0" y1="0" x2="1" y2="1">
    <stop offset="0" stop-color="#d8a24a"/><stop offset="1" stop-color="#d8a24a" stop-opacity=".6"/>
  </linearGradient>
  <filter id="grainx"><feTurbulence type="fractalNoise" baseFrequency=".9" numOctaves="2" stitchTiles="stitch"/>
    <feColorMatrix type="matrix" values="0 0 0 0 0  0 0 0 0 0  0 0 0 0 0  0 0 0 .06 0"/>
  </filter>
  <filter id="softx" x="-20%" y="-20%" width="140%" height="140%"><feGaussianBlur stdDeviation="18"/></filter>
</defs>
<rect width="1200" height="900" fill="url(#skyx)"/>
<circle cx="593.7" cy="178.1" r="1.1" fill="#fff" opacity="0.08"/><circle cx="967.1" cy="319.7" r="0.5" fill="#fff" opacity="0.12"/><circle cx="167.5" cy="309.5" r="1.8" fill="#fff" opacity="0.10"/><circle cx="380.8" cy="397.2" r="0.5" fill="#fff" opacity="0.07"/><circle cx="329.4" cy="270.3" r="1.0" fill="#fff" opacity="0.11"/><circle cx="1127.3" cy="417.6" r="0.8" fill="#fff" opacity="0.07"/><circle cx="1075.0" cy="178.2" r="1.8" fill="#fff" opacity="0.10"/><circle cx="726.9" cy="245.7" r="1.7" fill="#fff" opacity="0.11"/><circle cx="795.1" cy="29.9" r="1.4" fill="#fff" opacity="0.12"/><circle cx="914.6" cy="419.5" r="1.9" fill="#fff" opacity="0.09"/><circle cx="1083.0" cy="218.5" r="1.5" fill="#fff" opacity="0.07"/><circle cx="155.5" cy="29.8" r="1.6" fill="#fff" opacity="0.09"/><circle cx="807.8" cy="232.6" r="1.8" fill="#fff" opacity="0.11"/><circle cx="447.6" cy="101.5" r="0.9" fill="#fff" opacity="0.05"/><circle cx="686.2" cy="32.4" r="2.0" fill="#fff" opacity="0.05"/><circle cx="1119.6" cy="60.9" r="0.8" fill="#fff" opacity="0.08"/><circle cx="934.2" cy="205.1" r="1.1" fill="#fff" opacity="0.13"/><circle cx="349.4" cy="291.6" r="1.5" fill="#fff" opacity="0.08"/><circle cx="323.2" cy="135.3" r="1.2" fill="#fff" opacity="0.08"/><circle cx="586.3" cy="306.0" r="0.8" fill="#fff" opacity="0.07"/><circle cx="455.9" cy="16.7" r="0.8" fill="#fff" opacity="0.05"/><circle cx="202.1" cy="237.0" r="0.7" fill="#fff" opacity="0.06"/><circle cx="1132.6" cy="324.8" r="1.5" fill="#fff" opacity="0.06"/><circle cx="974.1" cy="69.5" r="1.4" fill="#fff" opacity="0.06"/><circle cx="491.5" cy="133.7" r="0.5" fill="#fff" opacity="0.09"/><circle cx="264.6" cy="442.6" r="0.8" fill="#fff" opacity="0.07"/><circle cx="1129.7" cy="376.5" r="2.1" fill="#fff" opacity="0.05"/><circle cx="1007.0" cy="240.2" r="1.5" fill="#fff" opacity="0.05"/><circle cx="1167.5" cy="338.3" r="1.5" fill="#fff" opacity="0.10"/><circle cx="854.0" cy="10.2" r="1.6" fill="#fff" opacity="0.09"/><circle cx="238.8" cy="256.8" r="0.6" fill="#fff" opacity="0.05"/><circle cx="758.4" cy="333.4" r="1.8" fill="#fff" opacity="0.07"/><circle cx="581.7" cy="56.0" r="1.6" fill="#fff" opacity="0.10"/><circle cx="190.8" cy="90.5" r="0.5" fill="#fff" opacity="0.07"/><circle cx="861.6" cy="352.9" r="2.0" fill="#fff" opacity="0.07"/><circle cx="459.6" cy="78.3" r="0.7" fill="#fff" opacity="0.08"/><circle cx="289.1" cy="13.2" r="1.9" fill="#fff" opacity="0.09"/><circle cx="805.1" cy="431.6" r="0.9" fill="#fff" opacity="0.07"/><circle cx="1193.8" cy="93.0" r="1.6" fill="#fff" opacity="0.05"/><circle cx="369.8" cy="390.6" r="2.1" fill="#fff" opacity="0.11"/><circle cx="476.1" cy="388.9" r="0.4" fill="#fff" opacity="0.12"/><circle cx="1188.3" cy="110.9" r="1.1" fill="#fff" opacity="0.07"/><circle cx="1138.3" cy="48.1" r="1.7" fill="#fff" opacity="0.10"/><circle cx="573.3" cy="249.3" r="1.6" fill="#fff" opacity="0.12"/><circle cx="731.3" cy="160.3" r="1.4" fill="#fff" opacity="0.13"/><circle cx="148.0" cy="114.7" r="0.7" fill="#fff" opacity="0.09"/><circle cx="191.2" cy="294.5" r="1.5" fill="#fff" opacity="0.12"/><circle cx="342.3" cy="293.5" r="1.1" fill="#fff" opacity="0.12"/><circle cx="487.8" cy="112.4" r="1.7" fill="#fff" opacity="0.08"/><circle cx="828.5" cy="127.3" r="2.0" fill="#fff" opacity="0.12"/><circle cx="199.5" cy="394.5" r="2.1" fill="#fff" opacity="0.12"/><circle cx="761.0" cy="224.0" r="2.0" fill="#fff" opacity="0.13"/><circle cx="1086.7" cy="266.1" r="1.6" fill="#fff" opacity="0.07"/><circle cx="206.3" cy="324.7" r="0.9" fill="#fff" opacity="0.12"/><circle cx="1134.2" cy="347.8" r="2.1" fill="#fff" opacity="0.07"/><circle cx="706.6" cy="318.3" r="1.9" fill="#fff" opacity="0.05"/><circle cx="1134.6" cy="146.7" r="1.3" fill="#fff" opacity="0.11"/><circle cx="15.7" cy="177.1" r="1.7" fill="#fff" opacity="0.12"/><circle cx="904.0" cy="257.7" r="1.2" fill="#fff" opacity="0.10"/><circle cx="12.9" cy="274.6" r="2.2" fill="#fff" opacity="0.07"/><circle cx="840" cy="216" r="251.6" fill="url(#glow)"/><circle cx="840" cy="216" r="74" fill="#f2d9a6"/><path d="M0 450 L0 411.0208737757057 L60 419.0524881798774 L120 383.7980009894818 L180 413.03509132703766 L240 403.12945645535365 L300 406.28963987343013 L360 425.4497948428616 L420 412.0270507130772 L480 389.2063565994613 L540 420.1201348588802 L600 380.4777018399909 L660 360.7766494108364 L720 401.9027303461917 L780 371.3493291242048 L840 419.393811984919 L900 400.0435441080481 L960 380.69011432584375 L1020 363.4235596493818 L1080 424.6794633916579 L1140 374.8489184468053 L1200 409.3457445432432 L1200 450 Z" fill="#3d2f48" opacity=".7"/><path d="M0 460 L0 311.24986679293215 L90 387.8598180692643 L180 333.06890222709626 L270 355.9352856874466 L360 375.06941630737856 L450 280.5816327710636 L540 334.8671321873553 L630 278.858036394231 L720 309.2295916005969 L810 312.3893922404386 L900 313.2888880674727 L990 285.5511330300942 L1080 262.04796528210863 L1170 263.66377252619714 L1200 460 Z" fill="#241d33"/><rect x="0" y="450" width="1200" height="450" fill="url(#seax)"/><path d="M0 464 Q 300 458 600 464 T 1200 464" stroke="#ffffff" stroke-opacity="0.14" stroke-width="2.5" fill="none"/><path d="M0 514 Q 300 508 600 514 T 1200 514" stroke="#ffffff" stroke-opacity="0.128" stroke-width="2.5" fill="none"/><path d="M0 564 Q 300 558 600 564 T 1200 564" stroke="#ffffff" stroke-opacity="0.11600000000000002" stroke-width="2.5" fill="none"/><path d="M0 614 Q 300 608 600 614 T 1200 614" stroke="#ffffff" stroke-opacity="0.10400000000000001" stroke-width="2.5" fill="none"/><path d="M0 664 Q 300 658 600 664 T 1200 664" stroke="#ffffff" stroke-opacity="0.09200000000000001" stroke-width="2.5" fill="none"/><path d="M0 714 Q 300 708 600 714 T 1200 714" stroke="#ffffff" stroke-opacity="0.08000000000000002" stroke-width="2.5" fill="none"/><path d="M0 764 Q 300 758 600 764 T 1200 764" stroke="#ffffff" stroke-opacity="0.068" stroke-width="2.5" fill="none"/><path d="M0 814 Q 300 808 600 814 T 1200 814" stroke="#ffffff" stroke-opacity="0.05600000000000001" stroke-width="2.5" fill="none"/><g transform="translate(600 558)"><ellipse cy="60" rx="150" ry="20" fill="#00000022"/><rect x="-150" y="40" width="300" height="18" rx="9" fill="#d8a24a"/><circle cy="-70" r="24" fill="#3a2c1c"/><path d="M0 -46 v70 M0 24 l -60 36 M0 24 l 60 36 M0 -20 l -70 -16 M0 -20 l 70 -16" stroke="#3a2c1c" stroke-width="16" stroke-linecap="round"/></g>
<rect width="1200" height="900" filter="url(#grainx)" opacity=".8"/>
  <rect x="0" y="0" width="1200" height="900" fill="none" stroke="#0e0b08" stroke-opacity=".25" stroke-width="2"/>
</svg>