<svg xmlns="http://www.w3.org/2000/svg" viewBox="0 0 1200 900" preserveAspectRatio="xMidYMid slice">
<defs>
  <linearGradient id="skyx" x1="0" y1="0" x2="0" y2="1">
    <stop offset="0" stop-color="#33415e"/><stop offset=".55" stop-color="#a6738a"/><stop offset="1" stop-color="#e7b98a"/>
  </linearGradient>
  <linearGradient id="seax" x1="0" y1="0" x2="0" y2="1">
    <stop offset="0" stop-color="#3b8a83"/><stop offset="1" stop-color="#1b4e57"/>
  </linearGradient>
  <radialGradient id="glowx" cx=".5" cy=".5" r=".5">
    <stop offset="0" stop-color="#f2d9a6" stop-opacity=".9"/><stop offset="1" stop-color="#f2d9a6" stop-opacity="0"/>
  </radialGradient>
  <linearGradient id="accx" x1="0" y1="0" x2="1" y2="1">
    <stop offset="0" stop-color="#e2557b"/><stop offset="1" stop-color="#e2557b" stop-opacity=".6"/>
  </linearGradient>
  <filter id="grainx"><feTurbulence type="fractalNoise" baseFrequency=".9" numOctaves="2" stitchTiles="stitch"/>
    <feColorMatrix type="matrix" values="0 0 0 0 0  0 0 0 0 0  0 0 0 0 0  0 0 0 .06 0"/>
  </filter>
  <filter id="softx" x="-20%" y="-20%" width="140%" height="140%"><feGaussianBlur stdDeviation="18"/></filter>
</defs>
<rect width="1200" height="900" fill="url(#skyx)"/>
<circle cx="907.4" cy="155.8" r="1.7" fill="#fff" opacity="0.08"/><circle cx="191.5" cy="214.2" r="1.4" fill="#fff" opacity="0.07"/><circle cx="1107.7" cy="103.5" r="1.1" fill="#fff" opacity="0.06"/><circle cx="1195.5" cy="146.6" r="0.4" fill="#fff" opacity="0.11"/><circle cx="1078.0" cy="236.9" r="0.9" fill="#fff" opacity="0.07"/><circle cx="724.3" cy="167.7" r="2.0" fill="#fff" opacity="0.08"/><circle cx="571.1" cy="5.5" r="1.6" fill="#fff" opacity="0.05"/><circle cx="165.5" cy="268.7" r="1.8" fill="#fff" opacity="0.08"/><circle cx="827.2" cy="15.1" r="0.7" fill="#fff" opacity="0.09"/><circle cx="1096.8" cy="15.8" r="0.9" fill="#fff" opacity="0.05"/><circle cx="722.1" cy="189.4" r="0.6" fill="#fff" opacity="0.12"/><circle cx="466.8" cy="276.8" r="2.0" fill="#fff" opacity="0.11"/><circle cx="560.6" cy="342.4" r="1.8" fill="#fff" opacity="0.11"/><circle cx="142.8" cy="111.3" r="1.9" fill="#fff" opacity="0.13"/><circle cx="961.5" cy="194.4" r="1.4" fill="#fff" opacity="0.12"/><circle cx="1016.2" cy="213.6" r="2.0" fill="#fff" opacity="0.07"/><circle cx="121.6" cy="237.9" r="1.3" fill="#fff" opacity="0.08"/><circle cx="566.4" cy="263.3" r="0.9" fill="#fff" opacity="0.06"/><circle cx="529.7" cy="63.3" r="1.9" fill="#fff" opacity="0.12"/><circle cx="798.3" cy="252.6" r="2.0" fill="#fff" opacity="0.12"/><circle cx="817.6" cy="332.5" r="1.4" fill="#fff" opacity="0.10"/><circle cx="823.7" cy="401.9" r="2.0" fill="#fff" opacity="0.13"/><circle cx="1060.1" cy="440.0" r="0.7" fill="#fff" opacity="0.11"/><circle cx="199.5" cy="430.8" r="0.9" fill="#fff" opacity="0.09"/><circle cx="105.4" cy="322.8" r="1.9" fill="#fff" opacity="0.11"/><circle cx="286.9" cy="406.2" r="2.1" fill="#fff" opacity="0.07"/><circle cx="238.7" cy="149.8" r="0.5" fill="#fff" opacity="0.10"/><circle cx="1081.8" cy="90.2" r="0.8" fill="#fff" opacity="0.13"/><circle cx="1070.7" cy="109.4" r="1.2" fill="#fff" opacity="0.10"/><circle cx="991.0" cy="405.3" r="1.0" fill="#fff" opacity="0.05"/><circle cx="106.7" cy="256.5" r="1.3" fill="#fff" opacity="0.09"/><circle cx="27.2" cy="252.5" r="1.1" fill="#fff" opacity="0.10"/><circle cx="557.0" cy="22.8" r="1.4" fill="#fff" opacity="0.08"/><circle cx="1169.6" cy="286.6" r="1.2" fill="#fff" opacity="0.12"/><circle cx="28.6" cy="20.7" r="1.8" fill="#fff" opacity="0.12"/><circle cx="705.2" cy="146.9" r="1.8" fill="#fff" opacity="0.12"/><circle cx="589.4" cy="73.7" r="2.1" fill="#fff" opacity="0.08"/><circle cx="959.1" cy="222.5" r="1.8" fill="#fff" opacity="0.07"/><circle cx="511.3" cy="302.6" r="1.4" fill="#fff" opacity="0.10"/><circle cx="950.7" cy="410.4" r="1.1" fill="#fff" opacity="0.08"/><circle cx="1157.5" cy="76.2" r="0.7" fill="#fff" opacity="0.13"/><circle cx="92.2" cy="110.4" r="2.1" fill="#fff" opacity="0.09"/><circle cx="46.4" cy="40.8" r="1.8" fill="#fff" opacity="0.05"/><circle cx="91.7" cy="174.5" r="1.7" fill="#fff" opacity="0.11"/><circle cx="439.6" cy="319.8" r="1.9" fill="#fff" opacity="0.06"/><circle cx="711.5" cy="343.7" r="1.2" fill="#fff" opacity="0.06"/><circle cx="836.0" cy="206.0" r="0.6" fill="#fff" opacity="0.05"/><circle cx="1019.4" cy="175.4" r="2.1" fill="#fff" opacity="0.06"/><circle cx="564.6" cy="411.2" r="0.8" fill="#fff" opacity="0.05"/><circle cx="936.8" cy="363.4" r="1.0" fill="#fff" opacity="0.11"/><circle cx="517.0" cy="255.0" r="1.9" fill="#fff" opacity="0.05"/><circle cx="1122.9" cy="125.6" r="1.3" fill="#fff" opacity="0.13"/><circle cx="88.5" cy="195.5" r="1.7" fill="#fff" opacity="0.10"/><circle cx="997.1" cy="211.9" r="1.0" fill="#fff" opacity="0.09"/><circle cx="309.3" cy="146.6" r="1.8" fill="#fff" opacity="0.10"/><circle cx="294.7" cy="155.4" r="0.7" fill="#fff" opacity="0.05"/><circle cx="419.2" cy="143.8" r="1.4" fill="#fff" opacity="0.09"/><circle cx="238.8" cy="361.8" r="0.6" fill="#fff" opacity="0.05"/><circle cx="62.4" cy="161.6" r="1.3" fill="#fff" opacity="0.07"/><circle cx="868.1" cy="88.3" r="1.9" fill="#fff" opacity="0.10"/><circle cx="360" cy="198" r="251.6" fill="url(#glow)"/><circle cx="360" cy="198" r="74" fill="#f2d9a6"/>
    <path d="M0 396 L0 318.77572653023526 L60 364.0165644874796 L120 369.57388048199937 L180 324.2386780739762 L240 340.1288634785451 L300 373.3584857187234 L360 340.84749300871044 L420 311.07279119454324 L480 348.7821390237659 L540 367.14921828499064 L600 366.0363040296361 L660 362.83086496545 L720 328.98254657536745 L780 369.41099367477 L840 344.74662672868 L900 333.0020939572714 L960 337.7960875178687 L1020 320.623557345476 L1080 319.10258481884375 L1140 319.87516492512077 L1200 332.71538174850866 L1200 396 Z" fill="#3d2f48" opacity=".7"/><path d="M0 406 L0 285.76701511535794 L90 248.23401562310755 L180 209.81438328884542 L270 212.63230556994677 L360 274.7236935994588 L450 262.762581076473 L540 256.5406826687977 L630 206.16737828729674 L720 255.20132835628465 L810 249.59039213508368 L900 287.6502173244953 L990 236.4306204826571 L1080 265.2463494790718 L1170 256.5051605566405 L1200 406 Z" fill="#241d33"/>
    <rect x="0" y="396" width="1200" height="504" fill="url(#seax)"/><path d="M0 410 Q 300 404 600 410 T 1200 410" stroke="#ffffff" stroke-opacity="0.14" stroke-width="2.5" fill="none"/><path d="M0 466 Q 300 460 600 466 T 1200 466" stroke="#ffffff" stroke-opacity="0.128" stroke-width="2.5" fill="none"/><path d="M0 522 Q 300 516 600 522 T 1200 522" stroke="#ffffff" stroke-opacity="0.11600000000000002" stroke-width="2.5" fill="none"/><path d="M0 578 Q 300 572 600 578 T 1200 578" stroke="#ffffff" stroke-opacity="0.10400000000000001" stroke-width="2.5" fill="none"/><path d="M0 634 Q 300 628 600 634 T 1200 634" stroke="#ffffff" stroke-opacity="0.09200000000000001" stroke-width="2.5" fill="none"/><path d="M0 690 Q 300 684 600 690 T 1200 690" stroke="#ffffff" stroke-opacity="0.08000000000000002" stroke-width="2.5" fill="none"/><path d="M0 746 Q 300 740 600 746 T 1200 746" stroke="#ffffff" stroke-opacity="0.068" stroke-width="2.5" fill="none"/><path d="M0 802 Q 300 796 600 802 T 1200 802" stroke="#ffffff" stroke-opacity="0.05600000000000001" stroke-width="2.5" fill="none"/>
    <g transform="translate(920.8442660328001 668.4901309935376) scale(1.0194949563592672)" opacity=".5">
      <path d="M0 0 q 22 -14 44 0 q -22 14 -44 0 Z" fill="#f3ecdd"/><path d="M44 0 l 16 -10 v20 Z" fill="#f3ecdd"/></g><g transform="translate(547.6580197038129 732.6097281500697) scale(1.0543298590928316)" opacity=".5">
      <path d="M0 0 q 22 -14 44 0 q -22 14 -44 0 Z" fill="#f3ecdd"/><path d="M44 0 l 16 -10 v20 Z" fill="#f3ecdd"/></g><g transform="translate(527.3570254957303 644.4251465182751) scale(1.31685442160815)" opacity=".5">
      <path d="M0 0 q 22 -14 44 0 q -22 14 -44 0 Z" fill="#f3ecdd"/><path d="M44 0 l 16 -10 v20 Z" fill="#f3ecdd"/></g><g transform="translate(541.846804744564 553.7181350067258) scale(0.7878508646041155)" opacity=".5">
      <path d="M0 0 q 22 -14 44 0 q -22 14 -44 0 Z" fill="#f3ecdd"/><path d="M44 0 l 16 -10 v20 Z" fill="#f3ecdd"/></g><g transform="translate(929.8273754585534 703.5167003832757) scale(0.992415995337069)" opacity=".5">
      <path d="M0 0 q 22 -14 44 0 q -22 14 -44 0 Z" fill="#f3ecdd"/><path d="M44 0 l 16 -10 v20 Z" fill="#f3ecdd"/></g>
    <path d="M0 900 L 408.00000000000006 426 L 504 426 L 240 900 Z" fill="#e2cda1" opacity=".9"/>
    <g transform="translate(888 702)">
      <path d="M-140 40 q 140 60 280 0 l -30 -34 h -220 Z" fill="#7a5335"/>
      <rect x="-16" y="-150" width="12" height="160" fill="#4a3826"/>
      <path d="M-10 -150 L 150 -60 L -10 -20 Z" fill="#e2557b"/>
    </g>
    <g transform="translate(120 810) scale(1.8)">
    <path d="M0 0 C -10 -60 -26 -110 -46 -150" stroke="#241d33" stroke-width="14" stroke-linecap="round" fill="none"/>
    <g transform="translate(-46 -150)"><path d="M0 0 q -12.554319953485155 -46 -25.10863990697031 -30" stroke="#241d33" stroke-width="10" stroke-linecap="round" fill="none"/><path d="M0 0 q -41.108419502715435 -52 -82.21683900543087 -20" stroke="#241d33" stroke-width="10" stroke-linecap="round" fill="none"/><path d="M0 0 q -57.79413037842027 -58 -115.58826075684054 -10" stroke="#241d33" stroke-width="10" stroke-linecap="round" fill="none"/><path d="M0 0 q -57.79413037842027 -64 -115.58826075684054 0" stroke="#241d33" stroke-width="10" stroke-linecap="round" fill="none"/><path d="M0 0 q -41.108419502715435 -70 -82.21683900543087 10" stroke="#241d33" stroke-width="10" stroke-linecap="round" fill="none"/><path d="M0 0 q -12.554319953485155 -76 -25.10863990697031 20" stroke="#241d33" stroke-width="10" stroke-linecap="round" fill="none"/></g></g>
    <circle cx="1032" cy="180" r="8" fill="#fff" opacity=".8"/>
    <path d="M983.9999999999999 216 q 40 -30 80 0" stroke="#ffffff88" stroke-width="4" fill="none"/>
<rect width="1200" height="900" filter="url(#grainx)" opacity=".8"/>
  <rect x="0" y="0" width="1200" height="900" fill="none" stroke="#0e0b08" stroke-opacity=".25" stroke-width="2"/>
</svg>