<svg xmlns="http://www.w3.org/2000/svg" viewBox="0 0 1200 900" preserveAspectRatio="xMidYMid slice">
<defs>
  <linearGradient id="skyx" x1="0" y1="0" x2="0" y2="1">
    <stop offset="0" stop-color="#33415e"/><stop offset=".55" stop-color="#a6738a"/><stop offset="1" stop-color="#e7b98a"/>
  </linearGradient>
  <linearGradient id="seax" x1="0" y1="0" x2="0" y2="1">
    <stop offset="0" stop-color="#3b8a83"/><stop offset="1" stop-color="#1b4e57"/>
  </linearGradient>
  <radialGradient id="glowx" cx=".5" cy=".5" r=".5">
    <stop offset="0" stop-color="#f2d9a6" stop-opacity=".9"/><stop offset="1" stop-color="#f2d9a6" stop-opacity="0"/>
  </radialGradient>
  <linearGradient id="accx" x1="0" y1="0" x2="1" y2="1">
    <stop offset="0" stop-color="#e2557b"/><stop offset="1" stop-color="#e2557b" stop-opacity=".6"/>
  </linearGradient>
  <filter id="grainx"><feTurbulence type="fractalNoise" baseFrequency=".9" numOctaves="2" stitchTiles="stitch"/>
    <feColorMatrix type="matrix" values="0 0 0 0 0  0 0 0 0 0  0 0 0 0 0  0 0 0 .06 0"/>
  </filter>
  <filter id="softx" x="-20%" y="-20%" width="140%" height="140%"><feGaussianBlur stdDeviation="18"/></filter>
</defs>
<rect width="1200" height="900" fill="url(#skyx)"/>
<circle cx="309.7" cy="32.0" r="1.0" fill="#fff" opacity="0.09"/><circle cx="644.0" cy="309.9" r="0.4" fill="#fff" opacity="0.08"/><circle cx="621.7" cy="156.0" r="1.0" fill="#fff" opacity="0.06"/><circle cx="373.5" cy="39.7" r="0.8" fill="#fff" opacity="0.07"/><circle cx="1009.2" cy="120.5" r="0.7" fill="#fff" opacity="0.06"/><circle cx="734.1" cy="370.2" r="0.5" fill="#fff" opacity="0.09"/><circle cx="1104.9" cy="49.2" r="1.0" fill="#fff" opacity="0.09"/><circle cx="529.4" cy="327.3" r="1.5" fill="#fff" opacity="0.10"/><circle cx="668.0" cy="388.9" r="1.6" fill="#fff" opacity="0.13"/><circle cx="925.2" cy="392.3" r="0.5" fill="#fff" opacity="0.13"/><circle cx="424.3" cy="427.0" r="1.9" fill="#fff" opacity="0.13"/><circle cx="422.4" cy="290.1" r="0.6" fill="#fff" opacity="0.09"/><circle cx="539.8" cy="165.5" r="0.4" fill="#fff" opacity="0.10"/><circle cx="93.9" cy="370.7" r="1.7" fill="#fff" opacity="0.09"/><circle cx="272.9" cy="36.9" r="1.5" fill="#fff" opacity="0.09"/><circle cx="602.1" cy="77.0" r="0.8" fill="#fff" opacity="0.13"/><circle cx="807.1" cy="338.3" r="1.5" fill="#fff" opacity="0.07"/><circle cx="716.4" cy="134.6" r="0.8" fill="#fff" opacity="0.09"/><circle cx="737.3" cy="214.6" r="1.9" fill="#fff" opacity="0.10"/><circle cx="39.1" cy="46.3" r="1.1" fill="#fff" opacity="0.08"/><circle cx="799.4" cy="110.9" r="0.9" fill="#fff" opacity="0.12"/><circle cx="1100.9" cy="437.4" r="1.6" fill="#fff" opacity="0.07"/><circle cx="1144.2" cy="50.1" r="2.2" fill="#fff" opacity="0.06"/><circle cx="8.4" cy="128.9" r="1.4" fill="#fff" opacity="0.07"/><circle cx="227.2" cy="298.6" r="2.0" fill="#fff" opacity="0.13"/><circle cx="793.8" cy="165.9" r="1.0" fill="#fff" opacity="0.05"/><circle cx="994.2" cy="59.3" r="1.6" fill="#fff" opacity="0.13"/><circle cx="429.7" cy="51.2" r="0.7" fill="#fff" opacity="0.08"/><circle cx="195.3" cy="280.0" r="0.7" fill="#fff" opacity="0.06"/><circle cx="253.1" cy="430.0" r="0.9" fill="#fff" opacity="0.10"/><circle cx="795.6" cy="161.8" r="0.4" fill="#fff" opacity="0.05"/><circle cx="731.4" cy="421.6" r="1.2" fill="#fff" opacity="0.08"/><circle cx="1076.7" cy="6.5" r="1.2" fill="#fff" opacity="0.13"/><circle cx="986.0" cy="8.6" r="1.4" fill="#fff" opacity="0.07"/><circle cx="374.4" cy="35.6" r="2.0" fill="#fff" opacity="0.07"/><circle cx="521.5" cy="328.5" r="1.2" fill="#fff" opacity="0.12"/><circle cx="165.5" cy="114.6" r="2.0" fill="#fff" opacity="0.08"/><circle cx="521.8" cy="92.8" r="1.8" fill="#fff" opacity="0.08"/><circle cx="1066.0" cy="165.3" r="1.7" fill="#fff" opacity="0.08"/><circle cx="884.8" cy="317.5" r="1.1" fill="#fff" opacity="0.10"/><circle cx="800.0" cy="358.9" r="2.2" fill="#fff" opacity="0.08"/><circle cx="676.8" cy="70.9" r="1.1" fill="#fff" opacity="0.11"/><circle cx="41.3" cy="371.6" r="1.7" fill="#fff" opacity="0.06"/><circle cx="262.8" cy="144.6" r="1.3" fill="#fff" opacity="0.05"/><circle cx="169.6" cy="369.7" r="2.0" fill="#fff" opacity="0.06"/><circle cx="1037.5" cy="436.7" r="1.2" fill="#fff" opacity="0.12"/><circle cx="67.2" cy="305.6" r="1.2" fill="#fff" opacity="0.09"/><circle cx="111.9" cy="135.1" r="1.5" fill="#fff" opacity="0.07"/><circle cx="771.8" cy="110.5" r="2.0" fill="#fff" opacity="0.07"/><circle cx="861.0" cy="330.3" r="1.4" fill="#fff" opacity="0.09"/><circle cx="681.0" cy="41.7" r="0.5" fill="#fff" opacity="0.09"/><circle cx="738.7" cy="400.4" r="1.7" fill="#fff" opacity="0.12"/><circle cx="102.6" cy="402.0" r="0.7" fill="#fff" opacity="0.07"/><circle cx="61.6" cy="258.9" r="0.6" fill="#fff" opacity="0.08"/><circle cx="187.3" cy="352.3" r="0.9" fill="#fff" opacity="0.08"/><circle cx="243.3" cy="74.4" r="1.9" fill="#fff" opacity="0.12"/><circle cx="259.7" cy="134.0" r="0.9" fill="#fff" opacity="0.09"/><circle cx="799.4" cy="365.5" r="0.8" fill="#fff" opacity="0.10"/><circle cx="423.3" cy="271.6" r="0.8" fill="#fff" opacity="0.05"/><circle cx="982.5" cy="389.2" r="1.5" fill="#fff" opacity="0.05"/><circle cx="360" cy="198" r="251.6" fill="url(#glow)"/><circle cx="360" cy="198" r="74" fill="#f2d9a6"/>
    <path d="M0 396 L0 358.1111070760526 L60 353.35657026525587 L120 330.5040287123993 L180 347.9779452099465 L240 332.8750858376734 L300 346.6232200865634 L360 355.079073430039 L420 319.6090833321214 L480 335.16094248648733 L540 369.2533059758134 L600 336.11976341949776 L660 334.55813591973856 L720 369.0459157959558 L780 318.3343860777095 L840 318.3331583221443 L900 362.8049348285422 L960 310.69544135034084 L1020 371.1994899357669 L1080 356.7322532986291 L1140 358.7300594653934 L1200 315.5180966495536 L1200 396 Z" fill="#3d2f48" opacity=".7"/><path d="M0 406 L0 258.37750303698704 L90 287.8709908775054 L180 292.25850999960676 L270 317.6813398315571 L360 266.70056467549875 L450 286.8278072718531 L540 287.30929961102083 L630 291.75424772221595 L720 335.59136181976646 L810 239.47715418087319 L900 277.73353121150285 L990 259.3475083136 L1080 310.5158132119104 L1170 225.15220723487437 L1200 406 Z" fill="#241d33"/>
    <rect x="0" y="396" width="1200" height="504" fill="url(#seax)"/><path d="M0 410 Q 300 404 600 410 T 1200 410" stroke="#ffffff" stroke-opacity="0.14" stroke-width="2.5" fill="none"/><path d="M0 466 Q 300 460 600 466 T 1200 466" stroke="#ffffff" stroke-opacity="0.128" stroke-width="2.5" fill="none"/><path d="M0 522 Q 300 516 600 522 T 1200 522" stroke="#ffffff" stroke-opacity="0.11600000000000002" stroke-width="2.5" fill="none"/><path d="M0 578 Q 300 572 600 578 T 1200 578" stroke="#ffffff" stroke-opacity="0.10400000000000001" stroke-width="2.5" fill="none"/><path d="M0 634 Q 300 628 600 634 T 1200 634" stroke="#ffffff" stroke-opacity="0.09200000000000001" stroke-width="2.5" fill="none"/><path d="M0 690 Q 300 684 600 690 T 1200 690" stroke="#ffffff" stroke-opacity="0.08000000000000002" stroke-width="2.5" fill="none"/><path d="M0 746 Q 300 740 600 746 T 1200 746" stroke="#ffffff" stroke-opacity="0.068" stroke-width="2.5" fill="none"/><path d="M0 802 Q 300 796 600 802 T 1200 802" stroke="#ffffff" stroke-opacity="0.05600000000000001" stroke-width="2.5" fill="none"/>
    <g transform="translate(285.54200970567763 685.8643685365096) scale(0.8684902431443333)" opacity=".5">
      <path d="M0 0 q 22 -14 44 0 q -22 14 -44 0 Z" fill="#f3ecdd"/><path d="M44 0 l 16 -10 v20 Z" fill="#f3ecdd"/></g><g transform="translate(313.5615276452154 636.7283556135371) scale(0.911911205202341)" opacity=".5">
      <path d="M0 0 q 22 -14 44 0 q -22 14 -44 0 Z" fill="#f3ecdd"/><path d="M44 0 l 16 -10 v20 Z" fill="#f3ecdd"/></g><g transform="translate(880.1784515194595 532.3342146715149) scale(0.7638562101870775)" opacity=".5">
      <path d="M0 0 q 22 -14 44 0 q -22 14 -44 0 Z" fill="#f3ecdd"/><path d="M44 0 l 16 -10 v20 Z" fill="#f3ecdd"/></g><g transform="translate(775.2603980060667 624.3454471454024) scale(1.1175450261682272)" opacity=".5">
      <path d="M0 0 q 22 -14 44 0 q -22 14 -44 0 Z" fill="#f3ecdd"/><path d="M44 0 l 16 -10 v20 Z" fill="#f3ecdd"/></g><g transform="translate(435.11987156700343 566.2955399081111) scale(0.7571564711630344)" opacity=".5">
      <path d="M0 0 q 22 -14 44 0 q -22 14 -44 0 Z" fill="#f3ecdd"/><path d="M44 0 l 16 -10 v20 Z" fill="#f3ecdd"/></g>
    <path d="M0 900 L 408.00000000000006 426 L 504 426 L 240 900 Z" fill="#e2cda1" opacity=".9"/>
    <g transform="translate(888 702)">
      <path d="M-140 40 q 140 60 280 0 l -30 -34 h -220 Z" fill="#7a5335"/>
      <rect x="-16" y="-150" width="12" height="160" fill="#4a3826"/>
      <path d="M-10 -150 L 150 -60 L -10 -20 Z" fill="#e2557b"/>
    </g>
    <g transform="translate(120 810) scale(1.8)">
    <path d="M0 0 C -10 -60 -26 -110 -46 -150" stroke="#241d33" stroke-width="14" stroke-linecap="round" fill="none"/>
    <g transform="translate(-46 -150)"><path d="M0 0 q -12.554319953485155 -46 -25.10863990697031 -30" stroke="#241d33" stroke-width="10" stroke-linecap="round" fill="none"/><path d="M0 0 q -41.108419502715435 -52 -82.21683900543087 -20" stroke="#241d33" stroke-width="10" stroke-linecap="round" fill="none"/><path d="M0 0 q -57.79413037842027 -58 -115.58826075684054 -10" stroke="#241d33" stroke-width="10" stroke-linecap="round" fill="none"/><path d="M0 0 q -57.79413037842027 -64 -115.58826075684054 0" stroke="#241d33" stroke-width="10" stroke-linecap="round" fill="none"/><path d="M0 0 q -41.108419502715435 -70 -82.21683900543087 10" stroke="#241d33" stroke-width="10" stroke-linecap="round" fill="none"/><path d="M0 0 q -12.554319953485155 -76 -25.10863990697031 20" stroke="#241d33" stroke-width="10" stroke-linecap="round" fill="none"/></g></g>
    <circle cx="1032" cy="180" r="8" fill="#fff" opacity=".8"/>
    <path d="M983.9999999999999 216 q 40 -30 80 0" stroke="#ffffff88" stroke-width="4" fill="none"/>
<rect width="1200" height="900" filter="url(#grainx)" opacity=".8"/>
  <rect x="0" y="0" width="1200" height="900" fill="none" stroke="#0e0b08" stroke-opacity=".25" stroke-width="2"/>
</svg>