<svg xmlns="http://www.w3.org/2000/svg" viewBox="0 0 1200 900" preserveAspectRatio="xMidYMid slice">
<defs>
  <linearGradient id="skyx" x1="0" y1="0" x2="0" y2="1">
    <stop offset="0" stop-color="#070d1c"/><stop offset=".55" stop-color="#122036"/><stop offset="1" stop-color="#1d3a4a"/>
  </linearGradient>
  <linearGradient id="seax" x1="0" y1="0" x2="0" y2="1">
    <stop offset="0" stop-color="#174a52"/><stop offset="1" stop-color="#0a2531"/>
  </linearGradient>
  <radialGradient id="glowx" cx=".5" cy=".5" r=".5">
    <stop offset="0" stop-color="#e9e4d0" stop-opacity=".9"/><stop offset="1" stop-color="#e9e4d0" stop-opacity="0"/>
  </radialGradient>
  <linearGradient id="accx" x1="0" y1="0" x2="1" y2="1">
    <stop offset="0" stop-color="#ff5c39"/><stop offset="1" stop-color="#ff5c39" stop-opacity=".6"/>
  </linearGradient>
  <filter id="grainx"><feTurbulence type="fractalNoise" baseFrequency=".9" numOctaves="2" stitchTiles="stitch"/>
    <feColorMatrix type="matrix" values="0 0 0 0 0  0 0 0 0 0  0 0 0 0 0  0 0 0 .06 0"/>
  </filter>
  <filter id="softx" x="-20%" y="-20%" width="140%" height="140%"><feGaussianBlur stdDeviation="18"/></filter>
</defs>
<rect width="1200" height="900" fill="url(#skyx)"/>
<circle cx="158.9" cy="265.1" r="1.2" fill="#fff" opacity="0.58"/><circle cx="989.6" cy="57.6" r="1.1" fill="#fff" opacity="0.79"/><circle cx="170.6" cy="104.8" r="2.0" fill="#fff" opacity="0.38"/><circle cx="383.8" cy="31.3" r="1.1" fill="#fff" opacity="0.74"/><circle cx="501.6" cy="326.4" r="2.1" fill="#fff" opacity="0.34"/><circle cx="632.5" cy="183.2" r="0.9" fill="#fff" opacity="0.68"/><circle cx="159.6" cy="395.2" r="1.5" fill="#fff" opacity="0.75"/><circle cx="378.5" cy="153.6" r="1.1" fill="#fff" opacity="0.61"/><circle cx="305.2" cy="262.7" r="0.6" fill="#fff" opacity="0.84"/><circle cx="172.4" cy="188.0" r="1.0" fill="#fff" opacity="0.85"/><circle cx="86.4" cy="248.2" r="0.4" fill="#fff" opacity="0.87"/><circle cx="137.4" cy="12.1" r="1.1" fill="#fff" opacity="0.84"/><circle cx="850.1" cy="388.6" r="1.6" fill="#fff" opacity="0.46"/><circle cx="576.4" cy="244.1" r="0.7" fill="#fff" opacity="0.36"/><circle cx="398.6" cy="20.9" r="1.5" fill="#fff" opacity="0.63"/><circle cx="305.6" cy="420.6" r="1.6" fill="#fff" opacity="0.35"/><circle cx="360.4" cy="33.2" r="1.8" fill="#fff" opacity="0.62"/><circle cx="1198.6" cy="296.8" r="0.5" fill="#fff" opacity="0.81"/><circle cx="772.9" cy="439.5" r="2.2" fill="#fff" opacity="0.71"/><circle cx="625.2" cy="273.7" r="0.7" fill="#fff" opacity="0.31"/><circle cx="452.0" cy="141.1" r="1.4" fill="#fff" opacity="0.83"/><circle cx="323.8" cy="269.3" r="1.2" fill="#fff" opacity="0.83"/><circle cx="698.3" cy="324.6" r="0.5" fill="#fff" opacity="0.50"/><circle cx="1117.8" cy="89.2" r="0.9" fill="#fff" opacity="0.58"/><circle cx="329.8" cy="94.4" r="1.9" fill="#fff" opacity="0.65"/><circle cx="644.8" cy="345.3" r="1.4" fill="#fff" opacity="0.69"/><circle cx="230.4" cy="101.4" r="1.6" fill="#fff" opacity="0.41"/><circle cx="776.2" cy="286.9" r="0.6" fill="#fff" opacity="0.43"/><circle cx="41.4" cy="131.6" r="1.8" fill="#fff" opacity="0.48"/><circle cx="958.1" cy="17.7" r="1.8" fill="#fff" opacity="0.31"/><circle cx="1033.5" cy="401.4" r="1.4" fill="#fff" opacity="0.44"/><circle cx="1028.7" cy="27.5" r="2.2" fill="#fff" opacity="0.79"/><circle cx="70.9" cy="306.8" r="1.7" fill="#fff" opacity="0.89"/><circle cx="284.6" cy="423.2" r="1.7" fill="#fff" opacity="0.55"/><circle cx="317.4" cy="277.0" r="0.9" fill="#fff" opacity="0.83"/><circle cx="841.4" cy="151.2" r="2.0" fill="#fff" opacity="0.73"/><circle cx="846.9" cy="101.8" r="2.0" fill="#fff" opacity="0.71"/><circle cx="396.7" cy="221.3" r="0.5" fill="#fff" opacity="0.35"/><circle cx="1037.7" cy="178.6" r="1.4" fill="#fff" opacity="0.66"/><circle cx="380.9" cy="67.9" r="2.0" fill="#fff" opacity="0.83"/><circle cx="778.5" cy="141.8" r="1.0" fill="#fff" opacity="0.56"/><circle cx="736.0" cy="164.7" r="1.9" fill="#fff" opacity="0.62"/><circle cx="1043.8" cy="190.4" r="1.9" fill="#fff" opacity="0.75"/><circle cx="1096.0" cy="376.6" r="1.6" fill="#fff" opacity="0.39"/><circle cx="672.0" cy="129.2" r="0.6" fill="#fff" opacity="0.89"/><circle cx="326.2" cy="91.5" r="0.5" fill="#fff" opacity="0.31"/><circle cx="497.4" cy="143.1" r="1.2" fill="#fff" opacity="0.57"/><circle cx="149.7" cy="293.0" r="1.6" fill="#fff" opacity="0.38"/><circle cx="848.0" cy="123.4" r="0.6" fill="#fff" opacity="0.46"/><circle cx="777.7" cy="377.4" r="2.1" fill="#fff" opacity="0.58"/><circle cx="314.7" cy="281.8" r="1.1" fill="#fff" opacity="0.86"/><circle cx="893.6" cy="74.8" r="2.0" fill="#fff" opacity="0.56"/><circle cx="103.6" cy="287.6" r="1.4" fill="#fff" opacity="0.66"/><circle cx="1191.4" cy="58.3" r="1.3" fill="#fff" opacity="0.54"/><circle cx="983.7" cy="259.5" r="1.3" fill="#fff" opacity="0.37"/><circle cx="869.6" cy="275.0" r="2.2" fill="#fff" opacity="0.87"/><circle cx="580.0" cy="253.0" r="0.7" fill="#fff" opacity="0.84"/><circle cx="423.8" cy="428.0" r="1.5" fill="#fff" opacity="0.72"/><circle cx="714.0" cy="373.2" r="1.8" fill="#fff" opacity="0.38"/><circle cx="3.1" cy="446.5" r="1.6" fill="#fff" opacity="0.49"/><circle cx="360" cy="198" r="156.4" fill="url(#glow)"/><circle cx="360" cy="198" r="46" fill="#e9e4d0"/><circle cx="376" cy="188" r="46" fill="#070d1c"/>
    <path d="M0 396 L0 343.8004614356905 L60 349.28278272179887 L120 344.30882569542155 L180 326.2106964029372 L240 324.6698575457558 L300 366.6303243804723 L360 342.7626781738363 L420 313.41977685596794 L480 325.5526364678517 L540 374.31327884225175 L600 341.66521923756227 L660 327.7726004496217 L720 308.96127011533827 L780 325.77289504371583 L840 347.99211119906977 L900 325.48122521629557 L960 314.96637273952365 L1020 367.7316185962409 L1080 353.97288171947 L1140 366.1091344258748 L1200 369.5827593365684 L1200 396 Z" fill="#16202f" opacity=".7"/><path d="M0 406 L0 312.13112896448 L90 280.6665777382441 L180 285.9167563091032 L270 224.73245298629627 L360 240.46625816170126 L450 244.4313370846212 L540 324.60184491379187 L630 291.2086901082657 L720 240.30035347118974 L810 314.54357053060085 L900 246.63352924538776 L990 240.476496912539 L1080 288.70711238728836 L1170 290.4762847200036 L1200 406 Z" fill="#0b111e"/>
    <rect x="0" y="396" width="1200" height="504" fill="url(#seax)"/><path d="M0 410 Q 300 404 600 410 T 1200 410" stroke="#ffffff" stroke-opacity="0.14" stroke-width="2.5" fill="none"/><path d="M0 466 Q 300 460 600 466 T 1200 466" stroke="#ffffff" stroke-opacity="0.128" stroke-width="2.5" fill="none"/><path d="M0 522 Q 300 516 600 522 T 1200 522" stroke="#ffffff" stroke-opacity="0.11600000000000002" stroke-width="2.5" fill="none"/><path d="M0 578 Q 300 572 600 578 T 1200 578" stroke="#ffffff" stroke-opacity="0.10400000000000001" stroke-width="2.5" fill="none"/><path d="M0 634 Q 300 628 600 634 T 1200 634" stroke="#ffffff" stroke-opacity="0.09200000000000001" stroke-width="2.5" fill="none"/><path d="M0 690 Q 300 684 600 690 T 1200 690" stroke="#ffffff" stroke-opacity="0.08000000000000002" stroke-width="2.5" fill="none"/><path d="M0 746 Q 300 740 600 746 T 1200 746" stroke="#ffffff" stroke-opacity="0.068" stroke-width="2.5" fill="none"/><path d="M0 802 Q 300 796 600 802 T 1200 802" stroke="#ffffff" stroke-opacity="0.05600000000000001" stroke-width="2.5" fill="none"/>
    <g transform="translate(704.0159774757922 575.3707623332739) scale(0.7190520353615284)" opacity=".5">
      <path d="M0 0 q 22 -14 44 0 q -22 14 -44 0 Z" fill="#f3ecdd"/><path d="M44 0 l 16 -10 v20 Z" fill="#f3ecdd"/></g><g transform="translate(496.0142401093617 583.1868129679933) scale(1.460273439064622)" opacity=".5">
      <path d="M0 0 q 22 -14 44 0 q -22 14 -44 0 Z" fill="#f3ecdd"/><path d="M44 0 l 16 -10 v20 Z" fill="#f3ecdd"/></g><g transform="translate(705.1581358350813 691.6772732362151) scale(1.3414572386071086)" opacity=".5">
      <path d="M0 0 q 22 -14 44 0 q -22 14 -44 0 Z" fill="#f3ecdd"/><path d="M44 0 l 16 -10 v20 Z" fill="#f3ecdd"/></g><g transform="translate(367.6854361128062 736.7166047673672) scale(1.1581462286412716)" opacity=".5">
      <path d="M0 0 q 22 -14 44 0 q -22 14 -44 0 Z" fill="#f3ecdd"/><path d="M44 0 l 16 -10 v20 Z" fill="#f3ecdd"/></g><g transform="translate(590.4560650745407 581.0412948522717) scale(1.3497272660955786)" opacity=".5">
      <path d="M0 0 q 22 -14 44 0 q -22 14 -44 0 Z" fill="#f3ecdd"/><path d="M44 0 l 16 -10 v20 Z" fill="#f3ecdd"/></g>
    <path d="M0 900 L 408.00000000000006 426 L 504 426 L 240 900 Z" fill="#e2cda1" opacity=".9"/>
    <g transform="translate(888 702)">
      <path d="M-140 40 q 140 60 280 0 l -30 -34 h -220 Z" fill="#7a5335"/>
      <rect x="-16" y="-150" width="12" height="160" fill="#4a3826"/>
      <path d="M-10 -150 L 150 -60 L -10 -20 Z" fill="#ff5c39"/>
    </g>
    <g transform="translate(120 810) scale(1.8)">
    <path d="M0 0 C -10 -60 -26 -110 -46 -150" stroke="#0b111e" stroke-width="14" stroke-linecap="round" fill="none"/>
    <g transform="translate(-46 -150)"><path d="M0 0 q -12.554319953485155 -46 -25.10863990697031 -30" stroke="#0b111e" stroke-width="10" stroke-linecap="round" fill="none"/><path d="M0 0 q -41.108419502715435 -52 -82.21683900543087 -20" stroke="#0b111e" stroke-width="10" stroke-linecap="round" fill="none"/><path d="M0 0 q -57.79413037842027 -58 -115.58826075684054 -10" stroke="#0b111e" stroke-width="10" stroke-linecap="round" fill="none"/><path d="M0 0 q -57.79413037842027 -64 -115.58826075684054 0" stroke="#0b111e" stroke-width="10" stroke-linecap="round" fill="none"/><path d="M0 0 q -41.108419502715435 -70 -82.21683900543087 10" stroke="#0b111e" stroke-width="10" stroke-linecap="round" fill="none"/><path d="M0 0 q -12.554319953485155 -76 -25.10863990697031 20" stroke="#0b111e" stroke-width="10" stroke-linecap="round" fill="none"/></g></g>
    <circle cx="1032" cy="180" r="8" fill="#fff" opacity=".8"/>
    <path d="M983.9999999999999 216 q 40 -30 80 0" stroke="#ffffff88" stroke-width="4" fill="none"/>
<rect width="1200" height="900" filter="url(#grainx)" opacity=".8"/>
  <rect x="0" y="0" width="1200" height="900" fill="none" stroke="#0e0b08" stroke-opacity=".25" stroke-width="2"/>
</svg>