<svg xmlns="http://www.w3.org/2000/svg" viewBox="0 0 1200 900" preserveAspectRatio="xMidYMid slice">
<defs>
  <linearGradient id="skyx" x1="0" y1="0" x2="0" y2="1">
    <stop offset="0" stop-color="#070d1c"/><stop offset=".55" stop-color="#122036"/><stop offset="1" stop-color="#1d3a4a"/>
  </linearGradient>
  <linearGradient id="seax" x1="0" y1="0" x2="0" y2="1">
    <stop offset="0" stop-color="#174a52"/><stop offset="1" stop-color="#0a2531"/>
  </linearGradient>
  <radialGradient id="glowx" cx=".5" cy=".5" r=".5">
    <stop offset="0" stop-color="#e9e4d0" stop-opacity=".9"/><stop offset="1" stop-color="#e9e4d0" stop-opacity="0"/>
  </radialGradient>
  <linearGradient id="accx" x1="0" y1="0" x2="1" y2="1">
    <stop offset="0" stop-color="#4d8fd1"/><stop offset="1" stop-color="#4d8fd1" stop-opacity=".6"/>
  </linearGradient>
  <filter id="grainx"><feTurbulence type="fractalNoise" baseFrequency=".9" numOctaves="2" stitchTiles="stitch"/>
    <feColorMatrix type="matrix" values="0 0 0 0 0  0 0 0 0 0  0 0 0 0 0  0 0 0 .06 0"/>
  </filter>
  <filter id="softx" x="-20%" y="-20%" width="140%" height="140%"><feGaussianBlur stdDeviation="18"/></filter>
</defs>
<rect width="1200" height="900" fill="url(#skyx)"/>
<circle cx="308.3" cy="118.5" r="0.6" fill="#fff" opacity="0.64"/><circle cx="528.3" cy="132.9" r="2.1" fill="#fff" opacity="0.48"/><circle cx="657.1" cy="69.4" r="0.7" fill="#fff" opacity="0.35"/><circle cx="834.0" cy="284.8" r="1.5" fill="#fff" opacity="0.83"/><circle cx="201.1" cy="140.2" r="1.3" fill="#fff" opacity="0.59"/><circle cx="715.2" cy="68.0" r="1.9" fill="#fff" opacity="0.74"/><circle cx="138.4" cy="166.4" r="1.0" fill="#fff" opacity="0.41"/><circle cx="1057.2" cy="148.9" r="2.0" fill="#fff" opacity="0.34"/><circle cx="41.6" cy="105.2" r="1.8" fill="#fff" opacity="0.88"/><circle cx="996.5" cy="131.6" r="1.1" fill="#fff" opacity="0.35"/><circle cx="450.9" cy="200.2" r="1.1" fill="#fff" opacity="0.35"/><circle cx="653.3" cy="89.6" r="1.6" fill="#fff" opacity="0.52"/><circle cx="337.2" cy="83.4" r="1.3" fill="#fff" opacity="0.87"/><circle cx="400.2" cy="302.5" r="0.5" fill="#fff" opacity="0.76"/><circle cx="1089.6" cy="360.5" r="0.4" fill="#fff" opacity="0.33"/><circle cx="634.7" cy="297.7" r="1.0" fill="#fff" opacity="0.74"/><circle cx="458.6" cy="287.1" r="1.8" fill="#fff" opacity="0.65"/><circle cx="199.7" cy="1.4" r="0.8" fill="#fff" opacity="0.54"/><circle cx="1082.7" cy="68.4" r="2.2" fill="#fff" opacity="0.30"/><circle cx="260.2" cy="167.8" r="2.0" fill="#fff" opacity="0.42"/><circle cx="354.7" cy="11.7" r="1.4" fill="#fff" opacity="0.59"/><circle cx="118.4" cy="225.9" r="1.3" fill="#fff" opacity="0.86"/><circle cx="112.2" cy="191.7" r="2.0" fill="#fff" opacity="0.86"/><circle cx="480.1" cy="240.2" r="1.2" fill="#fff" opacity="0.70"/><circle cx="1040.7" cy="65.0" r="0.8" fill="#fff" opacity="0.31"/><circle cx="304.5" cy="143.5" r="1.8" fill="#fff" opacity="0.52"/><circle cx="953.9" cy="445.2" r="1.7" fill="#fff" opacity="0.31"/><circle cx="244.3" cy="205.6" r="2.1" fill="#fff" opacity="0.30"/><circle cx="998.4" cy="377.7" r="0.4" fill="#fff" opacity="0.52"/><circle cx="131.5" cy="293.0" r="0.6" fill="#fff" opacity="0.39"/><circle cx="731.2" cy="321.5" r="1.7" fill="#fff" opacity="0.85"/><circle cx="907.8" cy="229.9" r="1.5" fill="#fff" opacity="0.43"/><circle cx="1195.7" cy="412.8" r="2.0" fill="#fff" opacity="0.46"/><circle cx="1122.4" cy="169.3" r="0.7" fill="#fff" opacity="0.53"/><circle cx="0.5" cy="83.8" r="1.5" fill="#fff" opacity="0.76"/><circle cx="214.3" cy="277.6" r="1.1" fill="#fff" opacity="0.48"/><circle cx="161.5" cy="200.2" r="0.8" fill="#fff" opacity="0.45"/><circle cx="734.1" cy="286.7" r="1.6" fill="#fff" opacity="0.31"/><circle cx="908.0" cy="158.5" r="0.5" fill="#fff" opacity="0.63"/><circle cx="369.1" cy="324.4" r="1.1" fill="#fff" opacity="0.31"/><circle cx="939.9" cy="361.6" r="1.8" fill="#fff" opacity="0.52"/><circle cx="898.3" cy="439.8" r="0.9" fill="#fff" opacity="0.59"/><circle cx="501.2" cy="260.8" r="1.8" fill="#fff" opacity="0.72"/><circle cx="785.7" cy="282.7" r="0.9" fill="#fff" opacity="0.33"/><circle cx="1107.4" cy="134.7" r="0.4" fill="#fff" opacity="0.61"/><circle cx="642.2" cy="402.0" r="2.2" fill="#fff" opacity="0.51"/><circle cx="169.2" cy="49.8" r="1.7" fill="#fff" opacity="0.85"/><circle cx="1074.2" cy="390.2" r="0.6" fill="#fff" opacity="0.36"/><circle cx="774.2" cy="86.9" r="2.1" fill="#fff" opacity="0.70"/><circle cx="1070.1" cy="206.1" r="0.6" fill="#fff" opacity="0.74"/><circle cx="50.6" cy="79.4" r="0.6" fill="#fff" opacity="0.56"/><circle cx="427.3" cy="217.0" r="1.7" fill="#fff" opacity="0.88"/><circle cx="407.1" cy="425.3" r="0.5" fill="#fff" opacity="0.36"/><circle cx="115.6" cy="393.5" r="0.4" fill="#fff" opacity="0.70"/><circle cx="775.1" cy="423.5" r="1.6" fill="#fff" opacity="0.59"/><circle cx="1126.7" cy="378.6" r="0.9" fill="#fff" opacity="0.31"/><circle cx="1043.6" cy="51.7" r="1.3" fill="#fff" opacity="0.90"/><circle cx="928.2" cy="196.3" r="1.8" fill="#fff" opacity="0.57"/><circle cx="870.4" cy="65.8" r="0.6" fill="#fff" opacity="0.89"/><circle cx="562.5" cy="386.0" r="1.3" fill="#fff" opacity="0.38"/><circle cx="606.3976535573602" cy="270" r="156.4" fill="url(#glow)"/><circle cx="606.3976535573602" cy="270" r="46" fill="#e9e4d0"/><circle cx="622.3976535573602" cy="260" r="46" fill="#070d1c"/>
    <path d="M0 468 L0 401.5159307043068 L60 394.57404551515356 L120 446.22701258119196 L180 404.6510558058508 L240 379.0262082214467 L300 382.79217300890014 L360 424.35496862465516 L420 425.3674666346051 L480 399.3160429894924 L540 417.13803465198725 L600 432.9880006839521 L660 445.2599884169176 L720 445.1311365044676 L780 378.42983916122466 L840 415.17311977175996 L900 397.0367205440998 L960 393.5324596189894 L1020 428.1013262546621 L1080 389.1610671970993 L1140 397.3178757536225 L1200 432.69141776440665 L1200 468 Z" fill="#16202f" opacity=".7"/><path d="M0 478 L0 346.319133000914 L90 405.0990723138675 L180 351.32864217692986 L270 301.22338346159086 L360 351.9709343598224 L450 328.6029648263939 L540 339.16189336171374 L630 361.3267547353171 L720 397.9665877688676 L810 341.27050402993336 L900 344.38766546500847 L990 393.35220832331106 L1080 322.97136674122885 L1170 324.94733060430735 L1200 478 Z" fill="#0b111e"/>
    <rect x="0" y="472" width="1200" height="144" fill="url(#seax)"/><path d="M0 486 Q 300 480 600 486 T 1200 486" stroke="#ffffff" stroke-opacity="0.14" stroke-width="2.5" fill="none"/><path d="M0 502 Q 300 496 600 502 T 1200 502" stroke="#ffffff" stroke-opacity="0.128" stroke-width="2.5" fill="none"/><path d="M0 518 Q 300 512 600 518 T 1200 518" stroke="#ffffff" stroke-opacity="0.11600000000000002" stroke-width="2.5" fill="none"/><path d="M0 534 Q 300 528 600 534 T 1200 534" stroke="#ffffff" stroke-opacity="0.10400000000000001" stroke-width="2.5" fill="none"/><path d="M0 550 Q 300 544 600 550 T 1200 550" stroke="#ffffff" stroke-opacity="0.09200000000000001" stroke-width="2.5" fill="none"/><path d="M0 566 Q 300 560 600 566 T 1200 566" stroke="#ffffff" stroke-opacity="0.08000000000000002" stroke-width="2.5" fill="none"/><path d="M0 582 Q 300 576 600 582 T 1200 582" stroke="#ffffff" stroke-opacity="0.068" stroke-width="2.5" fill="none"/><path d="M0 598 Q 300 592 600 598 T 1200 598" stroke="#ffffff" stroke-opacity="0.05600000000000001" stroke-width="2.5" fill="none"/>
    <rect x="0" y="594" width="1200" height="306" fill="#8a6a4d"/>
    <ellipse cx="600" cy="886.5" rx="744" ry="40" fill="#00000022"/>
    <rect x="192" y="450" width="480" height="330" rx="12" fill="#d3bd93"/>
      <rect x="240" y="522" width="120" height="150" rx="8" fill="#070d1c" stroke="#3a2c1c" stroke-width="6"/>
      <rect x="528" y="522" width="120" height="220" rx="8" fill="#3a2c1c"/>
      <rect x="192" y="423" width="480" height="36" rx="10" fill="#4d8fd1"/><g transform="translate(900 774) scale(1.5)">
    <path d="M0 0 C 10 -60 26 -110 46 -150" stroke="#0b111e" stroke-width="14" stroke-linecap="round" fill="none"/>
    <g transform="translate(46 -150)"><path d="M0 0 q 12.554319953485155 -46 25.10863990697031 -30" stroke="#0b111e" stroke-width="10" stroke-linecap="round" fill="none"/><path d="M0 0 q 41.108419502715435 -52 82.21683900543087 -20" stroke="#0b111e" stroke-width="10" stroke-linecap="round" fill="none"/><path d="M0 0 q 57.79413037842027 -58 115.58826075684054 -10" stroke="#0b111e" stroke-width="10" stroke-linecap="round" fill="none"/><path d="M0 0 q 57.79413037842027 -64 115.58826075684054 0" stroke="#0b111e" stroke-width="10" stroke-linecap="round" fill="none"/><path d="M0 0 q 41.108419502715435 -70 82.21683900543087 10" stroke="#0b111e" stroke-width="10" stroke-linecap="round" fill="none"/><path d="M0 0 q 12.554319953485155 -76 25.10863990697031 20" stroke="#0b111e" stroke-width="10" stroke-linecap="round" fill="none"/></g></g>
    <path d="M60 162 Q 600 242 1140 162" stroke="#1a140f" stroke-width="3" fill="none"/><circle cx="168" cy="182.3606797749979" r="5" fill="#e9e4d0"/><circle cx="168" cy="182.3606797749979" r="12" fill="#e9e4d0" opacity=".25"/><circle cx="276" cy="193.51141009169893" r="5" fill="#e9e4d0"/><circle cx="276" cy="193.51141009169893" r="12" fill="#e9e4d0" opacity=".25"/><circle cx="384" cy="202.3606797749979" r="5" fill="#e9e4d0"/><circle cx="384" cy="202.3606797749979" r="12" fill="#e9e4d0" opacity=".25"/><circle cx="492" cy="208.04226065180615" r="5" fill="#e9e4d0"/><circle cx="492" cy="208.04226065180615" r="12" fill="#e9e4d0" opacity=".25"/><circle cx="600" cy="210" r="5" fill="#e9e4d0"/><circle cx="600" cy="210" r="12" fill="#e9e4d0" opacity=".25"/><circle cx="708" cy="208.04226065180615" r="5" fill="#e9e4d0"/><circle cx="708" cy="208.04226065180615" r="12" fill="#e9e4d0" opacity=".25"/><circle cx="816" cy="202.3606797749979" r="5" fill="#e9e4d0"/><circle cx="816" cy="202.3606797749979" r="12" fill="#e9e4d0" opacity=".25"/><circle cx="924" cy="193.51141009169893" r="5" fill="#e9e4d0"/><circle cx="924" cy="193.51141009169893" r="12" fill="#e9e4d0" opacity=".25"/><circle cx="1032" cy="182.3606797749979" r="5" fill="#e9e4d0"/><circle cx="1032" cy="182.3606797749979" r="12" fill="#e9e4d0" opacity=".25"/>
    <g transform="translate(1056 720) scale(1.2)">
    <circle cx="0" cy="26" r="46" fill="#e9e4d0" opacity=".28"/>
    <line x1="0" y1="-34" x2="0" y2="-12" stroke="#2a2118" stroke-width="4"/>
    <path d="M-16 -12 h32 l6 14 v22 l-6 14 h-32 l-6 -14 v-22 Z" fill="#2a2118"/>
    <path d="M-10 -6 h20 l4 10 v18 l-4 10 h-20 l-4 -10 v-18 Z" fill="#e9e4d0"/>
  </g>
<rect width="1200" height="900" filter="url(#grainx)" opacity=".8"/>
  <rect x="0" y="0" width="1200" height="900" fill="none" stroke="#0e0b08" stroke-opacity=".25" stroke-width="2"/>
</svg>