<svg xmlns="http://www.w3.org/2000/svg" viewBox="0 0 1200 900" preserveAspectRatio="xMidYMid slice">
<defs>
  <linearGradient id="skyx" x1="0" y1="0" x2="0" y2="1">
    <stop offset="0" stop-color="#33415e"/><stop offset=".55" stop-color="#a6738a"/><stop offset="1" stop-color="#e7b98a"/>
  </linearGradient>
  <linearGradient id="seax" x1="0" y1="0" x2="0" y2="1">
    <stop offset="0" stop-color="#3b8a83"/><stop offset="1" stop-color="#1b4e57"/>
  </linearGradient>
  <radialGradient id="glowx" cx=".5" cy=".5" r=".5">
    <stop offset="0" stop-color="#f2d9a6" stop-opacity=".9"/><stop offset="1" stop-color="#f2d9a6" stop-opacity="0"/>
  </radialGradient>
  <linearGradient id="accx" x1="0" y1="0" x2="1" y2="1">
    <stop offset="0" stop-color="#2ba7a0"/><stop offset="1" stop-color="#2ba7a0" stop-opacity=".6"/>
  </linearGradient>
  <filter id="grainx"><feTurbulence type="fractalNoise" baseFrequency=".9" numOctaves="2" stitchTiles="stitch"/>
    <feColorMatrix type="matrix" values="0 0 0 0 0  0 0 0 0 0  0 0 0 0 0  0 0 0 .06 0"/>
  </filter>
  <filter id="softx" x="-20%" y="-20%" width="140%" height="140%"><feGaussianBlur stdDeviation="18"/></filter>
</defs>
<rect width="1200" height="900" fill="url(#skyx)"/>
<circle cx="376.2" cy="277.6" r="0.6" fill="#fff" opacity="0.12"/><circle cx="371.9" cy="289.1" r="1.5" fill="#fff" opacity="0.09"/><circle cx="517.6" cy="437.6" r="0.7" fill="#fff" opacity="0.13"/><circle cx="1075.7" cy="26.0" r="2.0" fill="#fff" opacity="0.06"/><circle cx="328.4" cy="194.7" r="0.5" fill="#fff" opacity="0.12"/><circle cx="931.6" cy="297.1" r="1.5" fill="#fff" opacity="0.07"/><circle cx="1057.7" cy="27.9" r="0.6" fill="#fff" opacity="0.12"/><circle cx="54.4" cy="338.1" r="0.4" fill="#fff" opacity="0.12"/><circle cx="475.9" cy="241.1" r="1.8" fill="#fff" opacity="0.12"/><circle cx="1142.7" cy="226.4" r="2.1" fill="#fff" opacity="0.10"/><circle cx="453.4" cy="235.3" r="1.9" fill="#fff" opacity="0.13"/><circle cx="909.8" cy="250.1" r="0.9" fill="#fff" opacity="0.05"/><circle cx="519.9" cy="360.7" r="2.0" fill="#fff" opacity="0.10"/><circle cx="220.4" cy="229.5" r="0.5" fill="#fff" opacity="0.10"/><circle cx="760.7" cy="194.7" r="0.7" fill="#fff" opacity="0.11"/><circle cx="286.5" cy="46.0" r="0.9" fill="#fff" opacity="0.10"/><circle cx="468.7" cy="289.3" r="0.8" fill="#fff" opacity="0.05"/><circle cx="225.9" cy="28.0" r="1.4" fill="#fff" opacity="0.08"/><circle cx="571.1" cy="20.9" r="1.7" fill="#fff" opacity="0.09"/><circle cx="271.4" cy="76.2" r="1.3" fill="#fff" opacity="0.13"/><circle cx="950.4" cy="204.4" r="1.5" fill="#fff" opacity="0.13"/><circle cx="1024.5" cy="324.3" r="1.6" fill="#fff" opacity="0.06"/><circle cx="128.1" cy="48.9" r="2.2" fill="#fff" opacity="0.08"/><circle cx="209.9" cy="167.4" r="1.4" fill="#fff" opacity="0.05"/><circle cx="884.7" cy="181.4" r="1.4" fill="#fff" opacity="0.06"/><circle cx="432.2" cy="111.0" r="1.4" fill="#fff" opacity="0.06"/><circle cx="1196.0" cy="346.6" r="1.2" fill="#fff" opacity="0.08"/><circle cx="980.2" cy="192.6" r="1.7" fill="#fff" opacity="0.13"/><circle cx="161.3" cy="132.4" r="2.0" fill="#fff" opacity="0.06"/><circle cx="740.9" cy="160.1" r="1.8" fill="#fff" opacity="0.13"/><circle cx="240.1" cy="342.1" r="1.7" fill="#fff" opacity="0.13"/><circle cx="693.0" cy="229.0" r="1.8" fill="#fff" opacity="0.09"/><circle cx="265.2" cy="412.0" r="1.1" fill="#fff" opacity="0.07"/><circle cx="744.5" cy="201.5" r="0.6" fill="#fff" opacity="0.06"/><circle cx="492.5" cy="194.1" r="0.8" fill="#fff" opacity="0.13"/><circle cx="696.7" cy="304.1" r="1.6" fill="#fff" opacity="0.05"/><circle cx="281.7" cy="422.1" r="2.1" fill="#fff" opacity="0.13"/><circle cx="214.7" cy="328.2" r="1.7" fill="#fff" opacity="0.13"/><circle cx="287.7" cy="284.6" r="1.7" fill="#fff" opacity="0.10"/><circle cx="283.9" cy="265.4" r="1.0" fill="#fff" opacity="0.08"/><circle cx="507.3" cy="321.6" r="2.0" fill="#fff" opacity="0.06"/><circle cx="664.9" cy="425.7" r="1.5" fill="#fff" opacity="0.06"/><circle cx="773.7" cy="42.4" r="0.5" fill="#fff" opacity="0.13"/><circle cx="864.6" cy="248.1" r="1.1" fill="#fff" opacity="0.11"/><circle cx="315.6" cy="354.1" r="2.0" fill="#fff" opacity="0.08"/><circle cx="814.3" cy="432.2" r="1.4" fill="#fff" opacity="0.09"/><circle cx="868.0" cy="324.7" r="1.9" fill="#fff" opacity="0.05"/><circle cx="182.3" cy="5.1" r="2.1" fill="#fff" opacity="0.12"/><circle cx="755.8" cy="141.2" r="1.5" fill="#fff" opacity="0.12"/><circle cx="618.8" cy="255.1" r="1.8" fill="#fff" opacity="0.11"/><circle cx="515.4" cy="243.0" r="2.1" fill="#fff" opacity="0.07"/><circle cx="855.3" cy="423.4" r="1.6" fill="#fff" opacity="0.12"/><circle cx="980.6" cy="282.1" r="0.7" fill="#fff" opacity="0.07"/><circle cx="1063.8" cy="344.7" r="1.8" fill="#fff" opacity="0.07"/><circle cx="1140.4" cy="340.7" r="2.0" fill="#fff" opacity="0.12"/><circle cx="278.7" cy="181.7" r="0.9" fill="#fff" opacity="0.06"/><circle cx="203.7" cy="281.8" r="2.1" fill="#fff" opacity="0.08"/><circle cx="962.8" cy="156.2" r="1.9" fill="#fff" opacity="0.10"/><circle cx="265.1" cy="81.0" r="2.1" fill="#fff" opacity="0.09"/><circle cx="609.0" cy="66.5" r="2.2" fill="#fff" opacity="0.11"/><circle cx="680.685549043119" cy="270" r="251.6" fill="url(#glow)"/><circle cx="680.685549043119" cy="270" r="74" fill="#f2d9a6"/>
    <path d="M0 468 L0 429.7511896463111 L60 390.6840518438257 L120 428.2997163380496 L180 435.8552760882303 L240 381.0316837085411 L300 395.4632444232702 L360 435.2739975131117 L420 436.60971197485924 L480 400.7531980513595 L540 441.24858924373984 L600 426.6308987578377 L660 412.5712050772272 L720 417.4926260272041 L780 422.9492115643807 L840 447.09863786771894 L900 398.16890624770895 L960 416.3212971664034 L1020 446.96754117915407 L1080 378.7879739976488 L1140 386.1996440910734 L1200 398.7121691061184 L1200 468 Z" fill="#3d2f48" opacity=".7"/><path d="M0 478 L0 366.5103945620358 L90 380.2145073278807 L180 324.53150072088465 L270 357.4330596434884 L360 366.9006301108748 L450 335.01951899798587 L540 312.3213625694625 L630 340.4009397882037 L720 336.7389576132409 L810 371.3781573479064 L900 371.92174527281895 L990 279.3577739847824 L1080 407.30014800978824 L1170 405.5070273154415 L1200 478 Z" fill="#241d33"/>
    <rect x="0" y="472" width="1200" height="144" fill="url(#seax)"/><path d="M0 486 Q 300 480 600 486 T 1200 486" stroke="#ffffff" stroke-opacity="0.14" stroke-width="2.5" fill="none"/><path d="M0 502 Q 300 496 600 502 T 1200 502" stroke="#ffffff" stroke-opacity="0.128" stroke-width="2.5" fill="none"/><path d="M0 518 Q 300 512 600 518 T 1200 518" stroke="#ffffff" stroke-opacity="0.11600000000000002" stroke-width="2.5" fill="none"/><path d="M0 534 Q 300 528 600 534 T 1200 534" stroke="#ffffff" stroke-opacity="0.10400000000000001" stroke-width="2.5" fill="none"/><path d="M0 550 Q 300 544 600 550 T 1200 550" stroke="#ffffff" stroke-opacity="0.09200000000000001" stroke-width="2.5" fill="none"/><path d="M0 566 Q 300 560 600 566 T 1200 566" stroke="#ffffff" stroke-opacity="0.08000000000000002" stroke-width="2.5" fill="none"/><path d="M0 582 Q 300 576 600 582 T 1200 582" stroke="#ffffff" stroke-opacity="0.068" stroke-width="2.5" fill="none"/><path d="M0 598 Q 300 592 600 598 T 1200 598" stroke="#ffffff" stroke-opacity="0.05600000000000001" stroke-width="2.5" fill="none"/>
    <rect x="0" y="594" width="1200" height="306" fill="#8a6a4d"/>
    <ellipse cx="600" cy="886.5" rx="744" ry="40" fill="#00000022"/>
    <rect x="144" y="504.00000000000006" width="620" height="270" rx="10" fill="#cbb489"/>
      <rect x="194" y="558" width="86" height="110" rx="8" fill="#33415e" stroke="#3a2c1c" stroke-width="6"/><rect x="344" y="558" width="86" height="110" rx="8" fill="#33415e" stroke="#3a2c1c" stroke-width="6"/><rect x="494" y="558" width="86" height="110" rx="8" fill="#33415e" stroke="#3a2c1c" stroke-width="6"/><rect x="644" y="558" width="86" height="110" rx="8" fill="#33415e" stroke="#3a2c1c" stroke-width="6"/>
      <rect x="144" y="477" width="620" height="34" rx="8" fill="#2ba7a0"/><g transform="translate(960 783) scale(1.6)">
    <path d="M0 0 C 10 -60 26 -110 46 -150" stroke="#241d33" stroke-width="14" stroke-linecap="round" fill="none"/>
    <g transform="translate(46 -150)"><path d="M0 0 q 12.554319953485155 -46 25.10863990697031 -30" stroke="#241d33" stroke-width="10" stroke-linecap="round" fill="none"/><path d="M0 0 q 41.108419502715435 -52 82.21683900543087 -20" stroke="#241d33" stroke-width="10" stroke-linecap="round" fill="none"/><path d="M0 0 q 57.79413037842027 -58 115.58826075684054 -10" stroke="#241d33" stroke-width="10" stroke-linecap="round" fill="none"/><path d="M0 0 q 57.79413037842027 -64 115.58826075684054 0" stroke="#241d33" stroke-width="10" stroke-linecap="round" fill="none"/><path d="M0 0 q 41.108419502715435 -70 82.21683900543087 10" stroke="#241d33" stroke-width="10" stroke-linecap="round" fill="none"/><path d="M0 0 q 12.554319953485155 -76 25.10863990697031 20" stroke="#241d33" stroke-width="10" stroke-linecap="round" fill="none"/></g></g>
    <path d="M60 162 Q 600 242 1140 162" stroke="#1a140f" stroke-width="3" fill="none"/><circle cx="168" cy="182.3606797749979" r="5" fill="#f2d9a6"/><circle cx="168" cy="182.3606797749979" r="12" fill="#f2d9a6" opacity=".25"/><circle cx="276" cy="193.51141009169893" r="5" fill="#f2d9a6"/><circle cx="276" cy="193.51141009169893" r="12" fill="#f2d9a6" opacity=".25"/><circle cx="384" cy="202.3606797749979" r="5" fill="#f2d9a6"/><circle cx="384" cy="202.3606797749979" r="12" fill="#f2d9a6" opacity=".25"/><circle cx="492" cy="208.04226065180615" r="5" fill="#f2d9a6"/><circle cx="492" cy="208.04226065180615" r="12" fill="#f2d9a6" opacity=".25"/><circle cx="600" cy="210" r="5" fill="#f2d9a6"/><circle cx="600" cy="210" r="12" fill="#f2d9a6" opacity=".25"/><circle cx="708" cy="208.04226065180615" r="5" fill="#f2d9a6"/><circle cx="708" cy="208.04226065180615" r="12" fill="#f2d9a6" opacity=".25"/><circle cx="816" cy="202.3606797749979" r="5" fill="#f2d9a6"/><circle cx="816" cy="202.3606797749979" r="12" fill="#f2d9a6" opacity=".25"/><circle cx="924" cy="193.51141009169893" r="5" fill="#f2d9a6"/><circle cx="924" cy="193.51141009169893" r="12" fill="#f2d9a6" opacity=".25"/><circle cx="1032" cy="182.3606797749979" r="5" fill="#f2d9a6"/><circle cx="1032" cy="182.3606797749979" r="12" fill="#f2d9a6" opacity=".25"/>
    <g transform="translate(1056 720) scale(1.2)">
    <circle cx="0" cy="26" r="46" fill="#f2d9a6" opacity=".28"/>
    <line x1="0" y1="-34" x2="0" y2="-12" stroke="#2a2118" stroke-width="4"/>
    <path d="M-16 -12 h32 l6 14 v22 l-6 14 h-32 l-6 -14 v-22 Z" fill="#2a2118"/>
    <path d="M-10 -6 h20 l4 10 v18 l-4 10 h-20 l-4 -10 v-18 Z" fill="#f2d9a6"/>
  </g>
<rect width="1200" height="900" filter="url(#grainx)" opacity=".8"/>
  <rect x="0" y="0" width="1200" height="900" fill="none" stroke="#0e0b08" stroke-opacity=".25" stroke-width="2"/>
</svg>