<svg xmlns="http://www.w3.org/2000/svg" viewBox="0 0 1200 900" preserveAspectRatio="xMidYMid slice">
<defs>
  <linearGradient id="skyx" x1="0" y1="0" x2="0" y2="1">
    <stop offset="0" stop-color="#7fb6c9"/><stop offset=".55" stop-color="#cfe3dd"/><stop offset="1" stop-color="#efe6cc"/>
  </linearGradient>
  <linearGradient id="seax" x1="0" y1="0" x2="0" y2="1">
    <stop offset="0" stop-color="#57b3a6"/><stop offset="1" stop-color="#1c7a7c"/>
  </linearGradient>
  <radialGradient id="glowx" cx=".5" cy=".5" r=".5">
    <stop offset="0" stop-color="#f7ead0" stop-opacity=".9"/><stop offset="1" stop-color="#f7ead0" stop-opacity="0"/>
  </radialGradient>
  <linearGradient id="accx" x1="0" y1="0" x2="1" y2="1">
    <stop offset="0" stop-color="#2ba7a0"/><stop offset="1" stop-color="#2ba7a0" stop-opacity=".6"/>
  </linearGradient>
  <filter id="grainx"><feTurbulence type="fractalNoise" baseFrequency=".9" numOctaves="2" stitchTiles="stitch"/>
    <feColorMatrix type="matrix" values="0 0 0 0 0  0 0 0 0 0  0 0 0 0 0  0 0 0 .06 0"/>
  </filter>
  <filter id="softx" x="-20%" y="-20%" width="140%" height="140%"><feGaussianBlur stdDeviation="18"/></filter>
</defs>
<rect width="1200" height="900" fill="url(#skyx)"/>
<circle cx="360" cy="198" r="251.6" fill="url(#glow)"/><circle cx="360" cy="198" r="74" fill="#f7ead0"/>
    <path d="M0 396 L0 311.805169318337 L60 356.7213410711847 L120 321.8622419089079 L180 355.2341587552801 L240 362.14501749165356 L300 321.63786594895646 L360 323.7356730517931 L420 348.2817669669166 L480 359.46269412199035 L540 370.6488433657214 L600 310.7830075514503 L660 325.0415767394006 L720 361.26937040966004 L780 352.79961522109807 L840 366.4918066249229 L900 308.12347565451637 L960 307.4222505874932 L1020 327.94416743703187 L1080 315.01268070796505 L1140 351.74981346260756 L1200 335.00261119008064 L1200 396 Z" fill="#c8895a" opacity=".7"/><path d="M0 406 L0 326.50035815220326 L90 241.88811228284612 L180 290.754966404289 L270 240.43325047148392 L360 312.455783538986 L450 254.6767377681099 L540 235.16392667451873 L630 276.21964804269373 L720 239.2866226718761 L810 291.9745794837363 L900 217.76438682246953 L990 234.54786197189242 L1080 209.4215506259352 L1170 334.0455784057267 L1200 406 Z" fill="#a5673f"/>
    <rect x="0" y="396" width="1200" height="504" fill="url(#seax)"/><path d="M0 410 Q 300 404 600 410 T 1200 410" stroke="#ffffff" stroke-opacity="0.14" stroke-width="2.5" fill="none"/><path d="M0 466 Q 300 460 600 466 T 1200 466" stroke="#ffffff" stroke-opacity="0.128" stroke-width="2.5" fill="none"/><path d="M0 522 Q 300 516 600 522 T 1200 522" stroke="#ffffff" stroke-opacity="0.11600000000000002" stroke-width="2.5" fill="none"/><path d="M0 578 Q 300 572 600 578 T 1200 578" stroke="#ffffff" stroke-opacity="0.10400000000000001" stroke-width="2.5" fill="none"/><path d="M0 634 Q 300 628 600 634 T 1200 634" stroke="#ffffff" stroke-opacity="0.09200000000000001" stroke-width="2.5" fill="none"/><path d="M0 690 Q 300 684 600 690 T 1200 690" stroke="#ffffff" stroke-opacity="0.08000000000000002" stroke-width="2.5" fill="none"/><path d="M0 746 Q 300 740 600 746 T 1200 746" stroke="#ffffff" stroke-opacity="0.068" stroke-width="2.5" fill="none"/><path d="M0 802 Q 300 796 600 802 T 1200 802" stroke="#ffffff" stroke-opacity="0.05600000000000001" stroke-width="2.5" fill="none"/>
    <g transform="translate(884.2423743149266 575.1268899803981) scale(1.3351027751341462)" opacity=".5">
      <path d="M0 0 q 22 -14 44 0 q -22 14 -44 0 Z" fill="#f3ecdd"/><path d="M44 0 l 16 -10 v20 Z" fill="#f3ecdd"/></g><g transform="translate(995.4801655188203 599.3109583286569) scale(0.9740904193371533)" opacity=".5">
      <path d="M0 0 q 22 -14 44 0 q -22 14 -44 0 Z" fill="#f3ecdd"/><path d="M44 0 l 16 -10 v20 Z" fill="#f3ecdd"/></g><g transform="translate(413.12177267856896 546.1119025796652) scale(1.0123164810240268)" opacity=".5">
      <path d="M0 0 q 22 -14 44 0 q -22 14 -44 0 Z" fill="#f3ecdd"/><path d="M44 0 l 16 -10 v20 Z" fill="#f3ecdd"/></g><g transform="translate(429.76829775609076 567.5372315142304) scale(1.4869342111051083)" opacity=".5">
      <path d="M0 0 q 22 -14 44 0 q -22 14 -44 0 Z" fill="#f3ecdd"/><path d="M44 0 l 16 -10 v20 Z" fill="#f3ecdd"/></g><g transform="translate(531.1897921655327 520.4682198623195) scale(0.8379553804174065)" opacity=".5">
      <path d="M0 0 q 22 -14 44 0 q -22 14 -44 0 Z" fill="#f3ecdd"/><path d="M44 0 l 16 -10 v20 Z" fill="#f3ecdd"/></g>
    <path d="M0 900 L 408.00000000000006 426 L 504 426 L 240 900 Z" fill="#e2cda1" opacity=".9"/>
    <g transform="translate(888 702)">
      <path d="M-140 40 q 140 60 280 0 l -30 -34 h -220 Z" fill="#7a5335"/>
      <rect x="-16" y="-150" width="12" height="160" fill="#4a3826"/>
      <path d="M-10 -150 L 150 -60 L -10 -20 Z" fill="#2ba7a0"/>
    </g>
    <g transform="translate(120 810) scale(1.8)">
    <path d="M0 0 C -10 -60 -26 -110 -46 -150" stroke="#a5673f" stroke-width="14" stroke-linecap="round" fill="none"/>
    <g transform="translate(-46 -150)"><path d="M0 0 q -12.554319953485155 -46 -25.10863990697031 -30" stroke="#a5673f" stroke-width="10" stroke-linecap="round" fill="none"/><path d="M0 0 q -41.108419502715435 -52 -82.21683900543087 -20" stroke="#a5673f" stroke-width="10" stroke-linecap="round" fill="none"/><path d="M0 0 q -57.79413037842027 -58 -115.58826075684054 -10" stroke="#a5673f" stroke-width="10" stroke-linecap="round" fill="none"/><path d="M0 0 q -57.79413037842027 -64 -115.58826075684054 0" stroke="#a5673f" stroke-width="10" stroke-linecap="round" fill="none"/><path d="M0 0 q -41.108419502715435 -70 -82.21683900543087 10" stroke="#a5673f" stroke-width="10" stroke-linecap="round" fill="none"/><path d="M0 0 q -12.554319953485155 -76 -25.10863990697031 20" stroke="#a5673f" stroke-width="10" stroke-linecap="round" fill="none"/></g></g>
    <circle cx="1032" cy="180" r="8" fill="#fff" opacity=".8"/>
    <path d="M983.9999999999999 216 q 40 -30 80 0" stroke="#ffffff88" stroke-width="4" fill="none"/>
<rect width="1200" height="900" filter="url(#grainx)" opacity=".8"/>
  <rect x="0" y="0" width="1200" height="900" fill="none" stroke="#0e0b08" stroke-opacity=".25" stroke-width="2"/>
</svg>