<svg xmlns="http://www.w3.org/2000/svg" viewBox="0 0 1200 900" preserveAspectRatio="xMidYMid slice">
<defs>
  <linearGradient id="skyx" x1="0" y1="0" x2="0" y2="1">
    <stop offset="0" stop-color="#2b1f3a"/><stop offset=".55" stop-color="#c25b3f"/><stop offset="1" stop-color="#e8a35c"/>
  </linearGradient>
  <linearGradient id="seax" x1="0" y1="0" x2="0" y2="1">
    <stop offset="0" stop-color="#2c6f70"/><stop offset="1" stop-color="#173f46"/>
  </linearGradient>
  <radialGradient id="glowx" cx=".5" cy=".5" r=".5">
    <stop offset="0" stop-color="#f4c479" stop-opacity=".9"/><stop offset="1" stop-color="#f4c479" stop-opacity="0"/>
  </radialGradient>
  <linearGradient id="accx" x1="0" y1="0" x2="1" y2="1">
    <stop offset="0" stop-color="#b06ab3"/><stop offset="1" stop-color="#b06ab3" stop-opacity=".6"/>
  </linearGradient>
  <filter id="grainx"><feTurbulence type="fractalNoise" baseFrequency=".9" numOctaves="2" stitchTiles="stitch"/>
    <feColorMatrix type="matrix" values="0 0 0 0 0  0 0 0 0 0  0 0 0 0 0  0 0 0 .06 0"/>
  </filter>
  <filter id="softx" x="-20%" y="-20%" width="140%" height="140%"><feGaussianBlur stdDeviation="18"/></filter>
</defs>
<rect width="1200" height="900" fill="url(#skyx)"/>
<circle cx="441.4" cy="381.7" r="1.6" fill="#fff" opacity="0.31"/><circle cx="761.8" cy="178.9" r="1.7" fill="#fff" opacity="0.19"/><circle cx="672.6" cy="399.5" r="0.7" fill="#fff" opacity="0.31"/><circle cx="355.0" cy="202.3" r="1.8" fill="#fff" opacity="0.13"/><circle cx="719.6" cy="388.1" r="1.6" fill="#fff" opacity="0.24"/><circle cx="844.7" cy="127.2" r="0.7" fill="#fff" opacity="0.19"/><circle cx="1002.8" cy="339.1" r="0.9" fill="#fff" opacity="0.25"/><circle cx="174.3" cy="374.8" r="1.0" fill="#fff" opacity="0.11"/><circle cx="605.0" cy="414.7" r="1.0" fill="#fff" opacity="0.27"/><circle cx="1100.6" cy="326.8" r="1.1" fill="#fff" opacity="0.20"/><circle cx="1170.1" cy="14.1" r="2.2" fill="#fff" opacity="0.19"/><circle cx="323.9" cy="154.6" r="1.2" fill="#fff" opacity="0.29"/><circle cx="620.0" cy="228.3" r="0.6" fill="#fff" opacity="0.24"/><circle cx="1118.8" cy="110.9" r="1.4" fill="#fff" opacity="0.19"/><circle cx="835.7" cy="325.2" r="0.8" fill="#fff" opacity="0.29"/><circle cx="1115.4" cy="107.2" r="0.6" fill="#fff" opacity="0.22"/><circle cx="278.6" cy="72.5" r="0.8" fill="#fff" opacity="0.30"/><circle cx="554.2" cy="269.4" r="1.9" fill="#fff" opacity="0.12"/><circle cx="1133.4" cy="101.4" r="1.3" fill="#fff" opacity="0.24"/><circle cx="647.6" cy="19.1" r="1.6" fill="#fff" opacity="0.18"/><circle cx="815.2" cy="429.4" r="0.4" fill="#fff" opacity="0.19"/><circle cx="717.5" cy="428.0" r="1.8" fill="#fff" opacity="0.16"/><circle cx="708.4" cy="366.6" r="1.9" fill="#fff" opacity="0.26"/><circle cx="539.9" cy="413.5" r="2.2" fill="#fff" opacity="0.18"/><circle cx="288.9" cy="15.5" r="1.7" fill="#fff" opacity="0.15"/><circle cx="540.4" cy="360.6" r="1.5" fill="#fff" opacity="0.27"/><circle cx="707.3" cy="221.9" r="2.0" fill="#fff" opacity="0.31"/><circle cx="1103.7" cy="214.7" r="2.2" fill="#fff" opacity="0.26"/><circle cx="163.7" cy="288.0" r="1.5" fill="#fff" opacity="0.22"/><circle cx="78.0" cy="134.7" r="0.6" fill="#fff" opacity="0.24"/><circle cx="148.6" cy="199.8" r="2.1" fill="#fff" opacity="0.16"/><circle cx="36.3" cy="424.0" r="1.0" fill="#fff" opacity="0.29"/><circle cx="610.4" cy="341.8" r="1.9" fill="#fff" opacity="0.30"/><circle cx="677.6" cy="163.4" r="1.0" fill="#fff" opacity="0.16"/><circle cx="886.1" cy="168.8" r="1.7" fill="#fff" opacity="0.31"/><circle cx="506.1" cy="191.5" r="0.5" fill="#fff" opacity="0.29"/><circle cx="33.8" cy="96.8" r="2.0" fill="#fff" opacity="0.14"/><circle cx="573.8" cy="15.3" r="0.8" fill="#fff" opacity="0.13"/><circle cx="1196.0" cy="403.9" r="1.5" fill="#fff" opacity="0.22"/><circle cx="656.1" cy="67.8" r="1.7" fill="#fff" opacity="0.25"/><circle cx="444.2" cy="368.5" r="0.8" fill="#fff" opacity="0.26"/><circle cx="621.4" cy="281.1" r="1.2" fill="#fff" opacity="0.22"/><circle cx="51.7" cy="75.6" r="0.6" fill="#fff" opacity="0.18"/><circle cx="947.6" cy="391.1" r="0.6" fill="#fff" opacity="0.25"/><circle cx="454.7" cy="49.4" r="1.3" fill="#fff" opacity="0.14"/><circle cx="1180.4" cy="218.5" r="0.6" fill="#fff" opacity="0.26"/><circle cx="954.3" cy="416.4" r="1.1" fill="#fff" opacity="0.11"/><circle cx="218.6" cy="31.1" r="1.1" fill="#fff" opacity="0.27"/><circle cx="862.3" cy="73.4" r="1.3" fill="#fff" opacity="0.11"/><circle cx="363.0" cy="349.0" r="0.5" fill="#fff" opacity="0.16"/><circle cx="517.2" cy="146.4" r="0.7" fill="#fff" opacity="0.20"/><circle cx="1128.7" cy="150.8" r="0.8" fill="#fff" opacity="0.30"/><circle cx="753.1" cy="268.4" r="1.6" fill="#fff" opacity="0.17"/><circle cx="565.6" cy="276.7" r="0.6" fill="#fff" opacity="0.30"/><circle cx="834.1" cy="312.2" r="0.9" fill="#fff" opacity="0.21"/><circle cx="564.0" cy="325.6" r="1.4" fill="#fff" opacity="0.14"/><circle cx="681.7" cy="257.8" r="1.5" fill="#fff" opacity="0.15"/><circle cx="1194.9" cy="47.9" r="0.5" fill="#fff" opacity="0.19"/><circle cx="582.0" cy="142.4" r="0.6" fill="#fff" opacity="0.11"/><circle cx="371.4" cy="169.3" r="1.0" fill="#fff" opacity="0.15"/><circle cx="232.95953944325447" cy="270" r="251.6" fill="url(#glow)"/><circle cx="232.95953944325447" cy="270" r="74" fill="#f4c479"/>
    <path d="M0 468 L0 418.6547932769172 L60 405.9069426539354 L120 430.55012238631025 L180 397.6821333630942 L240 428.95537340501323 L300 436.1439600791782 L360 432.9603049037978 L420 378.3993680025451 L480 440.3899623309262 L540 378.7846841355786 L600 444.31302669877186 L660 402.287419160828 L720 442.81810631696135 L780 394.0845214058645 L840 435.2257388033904 L900 426.48953992594033 L960 422.86428315285593 L1020 427.71591264242306 L1080 433.8792617637664 L1140 408.612189299427 L1200 411.6320493882522 L1200 468 Z" fill="#31203a" opacity=".7"/><path d="M0 478 L0 387.02746475534514 L90 279.14910444710404 L180 287.9814804829657 L270 295.514260080643 L360 329.4889267180115 L450 404.3212144630961 L540 325.2393420361914 L630 339.4984143781476 L720 326.7325841351412 L810 368.6517760735005 L900 291.0178304272704 L990 280.69065597327426 L1080 338.93235831707716 L1170 363.71384253678843 L1200 478 Z" fill="#1d1626"/>
    <rect x="0" y="472" width="1200" height="144" fill="url(#seax)"/><path d="M0 486 Q 300 480 600 486 T 1200 486" stroke="#ffffff" stroke-opacity="0.14" stroke-width="2.5" fill="none"/><path d="M0 502 Q 300 496 600 502 T 1200 502" stroke="#ffffff" stroke-opacity="0.128" stroke-width="2.5" fill="none"/><path d="M0 518 Q 300 512 600 518 T 1200 518" stroke="#ffffff" stroke-opacity="0.11600000000000002" stroke-width="2.5" fill="none"/><path d="M0 534 Q 300 528 600 534 T 1200 534" stroke="#ffffff" stroke-opacity="0.10400000000000001" stroke-width="2.5" fill="none"/><path d="M0 550 Q 300 544 600 550 T 1200 550" stroke="#ffffff" stroke-opacity="0.09200000000000001" stroke-width="2.5" fill="none"/><path d="M0 566 Q 300 560 600 566 T 1200 566" stroke="#ffffff" stroke-opacity="0.08000000000000002" stroke-width="2.5" fill="none"/><path d="M0 582 Q 300 576 600 582 T 1200 582" stroke="#ffffff" stroke-opacity="0.068" stroke-width="2.5" fill="none"/><path d="M0 598 Q 300 592 600 598 T 1200 598" stroke="#ffffff" stroke-opacity="0.05600000000000001" stroke-width="2.5" fill="none"/>
    <rect x="0" y="594" width="1200" height="306" fill="#8a6a4d"/>
    <ellipse cx="600" cy="886.5" rx="744" ry="40" fill="#00000022"/>
    <rect x="192" y="450" width="480" height="330" rx="12" fill="#d3bd93"/>
      <rect x="240" y="522" width="120" height="150" rx="8" fill="#2b1f3a" stroke="#3a2c1c" stroke-width="6"/>
      <rect x="528" y="522" width="120" height="220" rx="8" fill="#3a2c1c"/>
      <rect x="192" y="423" width="480" height="36" rx="10" fill="#b06ab3"/><g transform="translate(900 774) scale(1.5)">
    <path d="M0 0 C 10 -60 26 -110 46 -150" stroke="#1d1626" stroke-width="14" stroke-linecap="round" fill="none"/>
    <g transform="translate(46 -150)"><path d="M0 0 q 12.554319953485155 -46 25.10863990697031 -30" stroke="#1d1626" stroke-width="10" stroke-linecap="round" fill="none"/><path d="M0 0 q 41.108419502715435 -52 82.21683900543087 -20" stroke="#1d1626" stroke-width="10" stroke-linecap="round" fill="none"/><path d="M0 0 q 57.79413037842027 -58 115.58826075684054 -10" stroke="#1d1626" stroke-width="10" stroke-linecap="round" fill="none"/><path d="M0 0 q 57.79413037842027 -64 115.58826075684054 0" stroke="#1d1626" stroke-width="10" stroke-linecap="round" fill="none"/><path d="M0 0 q 41.108419502715435 -70 82.21683900543087 10" stroke="#1d1626" stroke-width="10" stroke-linecap="round" fill="none"/><path d="M0 0 q 12.554319953485155 -76 25.10863990697031 20" stroke="#1d1626" stroke-width="10" stroke-linecap="round" fill="none"/></g></g>
    <path d="M60 162 Q 600 242 1140 162" stroke="#1a140f" stroke-width="3" fill="none"/><circle cx="168" cy="182.3606797749979" r="5" fill="#f4c479"/><circle cx="168" cy="182.3606797749979" r="12" fill="#f4c479" opacity=".25"/><circle cx="276" cy="193.51141009169893" r="5" fill="#f4c479"/><circle cx="276" cy="193.51141009169893" r="12" fill="#f4c479" opacity=".25"/><circle cx="384" cy="202.3606797749979" r="5" fill="#f4c479"/><circle cx="384" cy="202.3606797749979" r="12" fill="#f4c479" opacity=".25"/><circle cx="492" cy="208.04226065180615" r="5" fill="#f4c479"/><circle cx="492" cy="208.04226065180615" r="12" fill="#f4c479" opacity=".25"/><circle cx="600" cy="210" r="5" fill="#f4c479"/><circle cx="600" cy="210" r="12" fill="#f4c479" opacity=".25"/><circle cx="708" cy="208.04226065180615" r="5" fill="#f4c479"/><circle cx="708" cy="208.04226065180615" r="12" fill="#f4c479" opacity=".25"/><circle cx="816" cy="202.3606797749979" r="5" fill="#f4c479"/><circle cx="816" cy="202.3606797749979" r="12" fill="#f4c479" opacity=".25"/><circle cx="924" cy="193.51141009169893" r="5" fill="#f4c479"/><circle cx="924" cy="193.51141009169893" r="12" fill="#f4c479" opacity=".25"/><circle cx="1032" cy="182.3606797749979" r="5" fill="#f4c479"/><circle cx="1032" cy="182.3606797749979" r="12" fill="#f4c479" opacity=".25"/>
    <g transform="translate(1056 720) scale(1.2)">
    <circle cx="0" cy="26" r="46" fill="#f4c479" opacity=".28"/>
    <line x1="0" y1="-34" x2="0" y2="-12" stroke="#2a2118" stroke-width="4"/>
    <path d="M-16 -12 h32 l6 14 v22 l-6 14 h-32 l-6 -14 v-22 Z" fill="#2a2118"/>
    <path d="M-10 -6 h20 l4 10 v18 l-4 10 h-20 l-4 -10 v-18 Z" fill="#f4c479"/>
  </g>
<rect width="1200" height="900" filter="url(#grainx)" opacity=".8"/>
  <rect x="0" y="0" width="1200" height="900" fill="none" stroke="#0e0b08" stroke-opacity=".25" stroke-width="2"/>
</svg>