<svg xmlns="http://www.w3.org/2000/svg" viewBox="0 0 1200 900" preserveAspectRatio="xMidYMid slice">
<defs>
  <linearGradient id="skyx" x1="0" y1="0" x2="0" y2="1">
    <stop offset="0" stop-color="#33415e"/><stop offset=".55" stop-color="#a6738a"/><stop offset="1" stop-color="#e7b98a"/>
  </linearGradient>
  <linearGradient id="seax" x1="0" y1="0" x2="0" y2="1">
    <stop offset="0" stop-color="#3b8a83"/><stop offset="1" stop-color="#1b4e57"/>
  </linearGradient>
  <radialGradient id="glowx" cx=".5" cy=".5" r=".5">
    <stop offset="0" stop-color="#f2d9a6" stop-opacity=".9"/><stop offset="1" stop-color="#f2d9a6" stop-opacity="0"/>
  </radialGradient>
  <linearGradient id="accx" x1="0" y1="0" x2="1" y2="1">
    <stop offset="0" stop-color="#b06ab3"/><stop offset="1" stop-color="#b06ab3" stop-opacity=".6"/>
  </linearGradient>
  <filter id="grainx"><feTurbulence type="fractalNoise" baseFrequency=".9" numOctaves="2" stitchTiles="stitch"/>
    <feColorMatrix type="matrix" values="0 0 0 0 0  0 0 0 0 0  0 0 0 0 0  0 0 0 .06 0"/>
  </filter>
  <filter id="softx" x="-20%" y="-20%" width="140%" height="140%"><feGaussianBlur stdDeviation="18"/></filter>
</defs>
<rect width="1200" height="900" fill="url(#skyx)"/>
<circle cx="202.2" cy="217.1" r="0.7" fill="#fff" opacity="0.12"/><circle cx="821.1" cy="426.2" r="0.6" fill="#fff" opacity="0.12"/><circle cx="370.7" cy="332.0" r="1.0" fill="#fff" opacity="0.12"/><circle cx="411.9" cy="409.9" r="1.0" fill="#fff" opacity="0.12"/><circle cx="1138.1" cy="198.9" r="1.4" fill="#fff" opacity="0.10"/><circle cx="1075.6" cy="282.7" r="2.0" fill="#fff" opacity="0.06"/><circle cx="496.9" cy="306.1" r="1.0" fill="#fff" opacity="0.06"/><circle cx="154.0" cy="323.3" r="0.4" fill="#fff" opacity="0.12"/><circle cx="978.8" cy="366.3" r="1.7" fill="#fff" opacity="0.11"/><circle cx="142.0" cy="183.5" r="1.6" fill="#fff" opacity="0.06"/><circle cx="825.3" cy="205.0" r="1.0" fill="#fff" opacity="0.12"/><circle cx="1085.1" cy="242.0" r="1.9" fill="#fff" opacity="0.07"/><circle cx="351.5" cy="343.5" r="0.7" fill="#fff" opacity="0.11"/><circle cx="504.0" cy="48.3" r="0.9" fill="#fff" opacity="0.10"/><circle cx="31.1" cy="179.7" r="0.5" fill="#fff" opacity="0.10"/><circle cx="1196.8" cy="359.6" r="1.8" fill="#fff" opacity="0.07"/><circle cx="604.4" cy="369.3" r="1.6" fill="#fff" opacity="0.08"/><circle cx="650.0" cy="300.7" r="0.6" fill="#fff" opacity="0.08"/><circle cx="434.2" cy="161.5" r="1.7" fill="#fff" opacity="0.05"/><circle cx="751.4" cy="304.1" r="1.3" fill="#fff" opacity="0.05"/><circle cx="119.7" cy="449.2" r="1.7" fill="#fff" opacity="0.12"/><circle cx="521.4" cy="276.5" r="2.0" fill="#fff" opacity="0.11"/><circle cx="770.7" cy="392.9" r="1.1" fill="#fff" opacity="0.09"/><circle cx="880.5" cy="71.6" r="0.5" fill="#fff" opacity="0.06"/><circle cx="168.8" cy="56.4" r="0.6" fill="#fff" opacity="0.09"/><circle cx="345.7" cy="227.0" r="1.1" fill="#fff" opacity="0.05"/><circle cx="928.2" cy="111.5" r="1.6" fill="#fff" opacity="0.13"/><circle cx="481.7" cy="115.3" r="2.1" fill="#fff" opacity="0.13"/><circle cx="485.3" cy="154.6" r="0.5" fill="#fff" opacity="0.09"/><circle cx="629.4" cy="1.5" r="2.1" fill="#fff" opacity="0.11"/><circle cx="225.7" cy="137.5" r="0.5" fill="#fff" opacity="0.09"/><circle cx="439.7" cy="219.7" r="0.5" fill="#fff" opacity="0.13"/><circle cx="942.6" cy="89.7" r="2.1" fill="#fff" opacity="0.09"/><circle cx="382.6" cy="13.6" r="0.6" fill="#fff" opacity="0.06"/><circle cx="770.0" cy="207.9" r="1.2" fill="#fff" opacity="0.08"/><circle cx="33.7" cy="8.9" r="1.2" fill="#fff" opacity="0.08"/><circle cx="187.7" cy="50.3" r="1.8" fill="#fff" opacity="0.12"/><circle cx="0.6" cy="148.2" r="2.1" fill="#fff" opacity="0.12"/><circle cx="1104.7" cy="332.8" r="1.0" fill="#fff" opacity="0.10"/><circle cx="748.6" cy="346.1" r="0.6" fill="#fff" opacity="0.07"/><circle cx="1168.9" cy="320.5" r="1.9" fill="#fff" opacity="0.13"/><circle cx="268.4" cy="140.8" r="1.7" fill="#fff" opacity="0.12"/><circle cx="1193.8" cy="146.9" r="1.5" fill="#fff" opacity="0.09"/><circle cx="1064.9" cy="207.4" r="1.2" fill="#fff" opacity="0.06"/><circle cx="627.6" cy="27.6" r="0.8" fill="#fff" opacity="0.08"/><circle cx="1125.5" cy="117.4" r="1.9" fill="#fff" opacity="0.11"/><circle cx="303.9" cy="287.5" r="1.9" fill="#fff" opacity="0.07"/><circle cx="831.0" cy="219.9" r="1.4" fill="#fff" opacity="0.08"/><circle cx="706.5" cy="270.4" r="1.1" fill="#fff" opacity="0.10"/><circle cx="561.1" cy="227.3" r="1.6" fill="#fff" opacity="0.06"/><circle cx="337.1" cy="220.1" r="1.5" fill="#fff" opacity="0.06"/><circle cx="676.8" cy="165.6" r="0.6" fill="#fff" opacity="0.06"/><circle cx="268.3" cy="7.0" r="1.0" fill="#fff" opacity="0.06"/><circle cx="621.0" cy="77.4" r="0.8" fill="#fff" opacity="0.10"/><circle cx="608.4" cy="93.6" r="0.6" fill="#fff" opacity="0.12"/><circle cx="23.1" cy="260.2" r="1.2" fill="#fff" opacity="0.13"/><circle cx="984.6" cy="253.5" r="0.5" fill="#fff" opacity="0.12"/><circle cx="261.8" cy="381.2" r="1.8" fill="#fff" opacity="0.06"/><circle cx="809.0" cy="378.5" r="1.7" fill="#fff" opacity="0.12"/><circle cx="1046.4" cy="281.6" r="1.5" fill="#fff" opacity="0.13"/><circle cx="936" cy="216" r="251.6" fill="url(#glow)"/><circle cx="936" cy="216" r="74" fill="#f2d9a6"/>
    <path d="M0 450 L0 373.50038630887866 L60 405.7783991214819 L120 380.9259517607279 L180 389.33391883969307 L240 398.94296780927107 L300 398.51916696410626 L360 373.383050665725 L420 383.86980378767475 L480 379.8381519690156 L540 378.00338661065325 L600 424.55461042467505 L660 416.088918983005 L720 367.74561202852055 L780 362.2190887061879 L840 388.99156059138477 L900 398.7101083714515 L960 392.5508399796672 L1020 378.93531795125455 L1080 429.0073172748089 L1140 403.320557649713 L1200 373.22183454874903 L1200 450 Z" fill="#3d2f48" opacity=".7"/><path d="M0 460 L0 384.6002231305465 L90 275.24984115269035 L180 306.2007744493894 L270 336.0035751434043 L360 278.1246974202804 L450 300.0560035253875 L540 268.6833577021025 L630 301.18872815044597 L720 267.0510581601411 L810 374.5206566131674 L900 387.21134525490925 L990 280.6725516496226 L1080 356.6354698385112 L1170 374.377912862692 L1200 460 Z" fill="#241d33"/>
    <rect x="0" y="454" width="1200" height="126.00000000000001" fill="url(#seax)"/><path d="M0 468 Q 300 462 600 468 T 1200 468" stroke="#ffffff" stroke-opacity="0.14" stroke-width="2.5" fill="none"/><path d="M0 482 Q 300 476 600 482 T 1200 482" stroke="#ffffff" stroke-opacity="0.128" stroke-width="2.5" fill="none"/><path d="M0 496 Q 300 490 600 496 T 1200 496" stroke="#ffffff" stroke-opacity="0.11600000000000002" stroke-width="2.5" fill="none"/><path d="M0 510 Q 300 504 600 510 T 1200 510" stroke="#ffffff" stroke-opacity="0.10400000000000001" stroke-width="2.5" fill="none"/><path d="M0 524 Q 300 518 600 524 T 1200 524" stroke="#ffffff" stroke-opacity="0.09200000000000001" stroke-width="2.5" fill="none"/><path d="M0 538 Q 300 532 600 538 T 1200 538" stroke="#ffffff" stroke-opacity="0.08000000000000002" stroke-width="2.5" fill="none"/><path d="M0 552 Q 300 546 600 552 T 1200 552" stroke="#ffffff" stroke-opacity="0.068" stroke-width="2.5" fill="none"/><path d="M0 566 Q 300 560 600 566 T 1200 566" stroke="#ffffff" stroke-opacity="0.05600000000000001" stroke-width="2.5" fill="none"/>
    <rect x="0" y="558" width="1200" height="342" fill="#9c7350"/>
    <g transform="translate(600 648)">
      <ellipse cx="0" cy="60" rx="130" ry="24" fill="#00000033"/>
      <rect x="-110" y="-10" width="220" height="64" rx="12" fill="#7a5335"/>
      <circle cx="0" cy="-30" r="26" fill="#f2d9a6"/>
      <path d="M-14 -30 q14 -46 28 0" fill="#f2d9a6" opacity=".7"/>
      <g stroke="#3a2c1c" stroke-width="5"><line x1="-70" y1="-4" x2="-78" y2="-58"/><line x1="-24" y1="-4" x2="-32" y2="-58"/><line x1="22" y1="-4" x2="14" y2="-58"/><line x1="68" y1="-4" x2="60" y2="-58"/></g>
    </g>
    <g transform="translate(173.648893693462 720)">
      <ellipse cx="0" cy="34" rx="120" ry="26" fill="#00000022"/>
      <rect x="-100" y="-30" width="200" height="60" rx="26" fill="#b06ab3"/>
      <rect x="-100" y="-44" width="200" height="34" rx="17" fill="#f3ecdd" opacity=".9"/>
    </g><g transform="translate(440.5345858819783 720)">
      <ellipse cx="0" cy="34" rx="120" ry="26" fill="#00000022"/>
      <rect x="-100" y="-30" width="200" height="60" rx="26" fill="#f3ecdd"/>
      <rect x="-100" y="-44" width="200" height="34" rx="17" fill="#d8a24a" opacity=".9"/>
    </g><g transform="translate(671.9930991716683 720)">
      <ellipse cx="0" cy="34" rx="120" ry="26" fill="#00000022"/>
      <rect x="-100" y="-30" width="200" height="60" rx="26" fill="#d8a24a"/>
      <rect x="-100" y="-44" width="200" height="34" rx="17" fill="#b06ab3" opacity=".9"/>
    </g><g transform="translate(936.160184238106 720)">
      <ellipse cx="0" cy="34" rx="120" ry="26" fill="#00000022"/>
      <rect x="-100" y="-30" width="200" height="60" rx="26" fill="#b06ab3"/>
      <rect x="-100" y="-44" width="200" height="34" rx="17" fill="#b06ab3" opacity=".9"/>
    </g>
    <path d="M0 108 Q 600 200 1200 108" stroke="#1a140f" stroke-width="3" fill="none"/><circle cx="120" cy="130.21478174124758" r="5" fill="#f2d9a6"/><circle cx="120" cy="130.21478174124758" r="12" fill="#f2d9a6" opacity=".25"/><circle cx="240" cy="143.03812160545377" r="5" fill="#f2d9a6"/><circle cx="240" cy="143.03812160545377" r="12" fill="#f2d9a6" opacity=".25"/><circle cx="360" cy="153.21478174124758" r="5" fill="#f2d9a6"/><circle cx="360" cy="153.21478174124758" r="12" fill="#f2d9a6" opacity=".25"/><circle cx="480" cy="159.74859974957707" r="5" fill="#f2d9a6"/><circle cx="480" cy="159.74859974957707" r="12" fill="#f2d9a6" opacity=".25"/><circle cx="600" cy="162" r="5" fill="#f2d9a6"/><circle cx="600" cy="162" r="12" fill="#f2d9a6" opacity=".25"/><circle cx="720" cy="159.74859974957707" r="5" fill="#f2d9a6"/><circle cx="720" cy="159.74859974957707" r="12" fill="#f2d9a6" opacity=".25"/><circle cx="840" cy="153.21478174124758" r="5" fill="#f2d9a6"/><circle cx="840" cy="153.21478174124758" r="12" fill="#f2d9a6" opacity=".25"/><circle cx="960" cy="143.03812160545377" r="5" fill="#f2d9a6"/><circle cx="960" cy="143.03812160545377" r="12" fill="#f2d9a6" opacity=".25"/><circle cx="1080" cy="130.21478174124758" r="5" fill="#f2d9a6"/><circle cx="1080" cy="130.21478174124758" r="12" fill="#f2d9a6" opacity=".25"/>
    <g transform="translate(72 594) scale(1.3)">
    <path d="M0 0 C -10 -60 -26 -110 -46 -150" stroke="#241d33" stroke-width="14" stroke-linecap="round" fill="none"/>
    <g transform="translate(-46 -150)"><path d="M0 0 q -12.554319953485155 -46 -25.10863990697031 -30" stroke="#241d33" stroke-width="10" stroke-linecap="round" fill="none"/><path d="M0 0 q -41.108419502715435 -52 -82.21683900543087 -20" stroke="#241d33" stroke-width="10" stroke-linecap="round" fill="none"/><path d="M0 0 q -57.79413037842027 -58 -115.58826075684054 -10" stroke="#241d33" stroke-width="10" stroke-linecap="round" fill="none"/><path d="M0 0 q -57.79413037842027 -64 -115.58826075684054 0" stroke="#241d33" stroke-width="10" stroke-linecap="round" fill="none"/><path d="M0 0 q -41.108419502715435 -70 -82.21683900543087 10" stroke="#241d33" stroke-width="10" stroke-linecap="round" fill="none"/><path d="M0 0 q -12.554319953485155 -76 -25.10863990697031 20" stroke="#241d33" stroke-width="10" stroke-linecap="round" fill="none"/></g></g>
    <g transform="translate(1128 594) scale(1.4)">
    <path d="M0 0 C 10 -60 26 -110 46 -150" stroke="#241d33" stroke-width="14" stroke-linecap="round" fill="none"/>
    <g transform="translate(46 -150)"><path d="M0 0 q 12.554319953485155 -46 25.10863990697031 -30" stroke="#241d33" stroke-width="10" stroke-linecap="round" fill="none"/><path d="M0 0 q 41.108419502715435 -52 82.21683900543087 -20" stroke="#241d33" stroke-width="10" stroke-linecap="round" fill="none"/><path d="M0 0 q 57.79413037842027 -58 115.58826075684054 -10" stroke="#241d33" stroke-width="10" stroke-linecap="round" fill="none"/><path d="M0 0 q 57.79413037842027 -64 115.58826075684054 0" stroke="#241d33" stroke-width="10" stroke-linecap="round" fill="none"/><path d="M0 0 q 41.108419502715435 -70 82.21683900543087 10" stroke="#241d33" stroke-width="10" stroke-linecap="round" fill="none"/><path d="M0 0 q 12.554319953485155 -76 25.10863990697031 20" stroke="#241d33" stroke-width="10" stroke-linecap="round" fill="none"/></g></g>
    <g transform="translate(360 594) scale(1.1)">
    <circle cx="0" cy="26" r="46" fill="#f2d9a6" opacity=".28"/>
    <line x1="0" y1="-34" x2="0" y2="-12" stroke="#2a2118" stroke-width="4"/>
    <path d="M-16 -12 h32 l6 14 v22 l-6 14 h-32 l-6 -14 v-22 Z" fill="#2a2118"/>
    <path d="M-10 -6 h20 l4 10 v18 l-4 10 h-20 l-4 -10 v-18 Z" fill="#f2d9a6"/>
  </g><g transform="translate(840 594) scale(1.1)">
    <circle cx="0" cy="26" r="46" fill="#f2d9a6" opacity=".28"/>
    <line x1="0" y1="-34" x2="0" y2="-12" stroke="#2a2118" stroke-width="4"/>
    <path d="M-16 -12 h32 l6 14 v22 l-6 14 h-32 l-6 -14 v-22 Z" fill="#2a2118"/>
    <path d="M-10 -6 h20 l4 10 v18 l-4 10 h-20 l-4 -10 v-18 Z" fill="#f2d9a6"/>
  </g>
<rect width="1200" height="900" filter="url(#grainx)" opacity=".8"/>
  <rect x="0" y="0" width="1200" height="900" fill="none" stroke="#0e0b08" stroke-opacity=".25" stroke-width="2"/>
</svg>