<svg xmlns="http://www.w3.org/2000/svg" viewBox="0 0 1200 900" preserveAspectRatio="xMidYMid slice">
<defs>
  <linearGradient id="skyx" x1="0" y1="0" x2="0" y2="1">
    <stop offset="0" stop-color="#070d1c"/><stop offset=".55" stop-color="#122036"/><stop offset="1" stop-color="#1d3a4a"/>
  </linearGradient>
  <linearGradient id="seax" x1="0" y1="0" x2="0" y2="1">
    <stop offset="0" stop-color="#174a52"/><stop offset="1" stop-color="#0a2531"/>
  </linearGradient>
  <radialGradient id="glowx" cx=".5" cy=".5" r=".5">
    <stop offset="0" stop-color="#e9e4d0" stop-opacity=".9"/><stop offset="1" stop-color="#e9e4d0" stop-opacity="0"/>
  </radialGradient>
  <linearGradient id="accx" x1="0" y1="0" x2="1" y2="1">
    <stop offset="0" stop-color="#b06ab3"/><stop offset="1" stop-color="#b06ab3" stop-opacity=".6"/>
  </linearGradient>
  <filter id="grainx"><feTurbulence type="fractalNoise" baseFrequency=".9" numOctaves="2" stitchTiles="stitch"/>
    <feColorMatrix type="matrix" values="0 0 0 0 0  0 0 0 0 0  0 0 0 0 0  0 0 0 .06 0"/>
  </filter>
  <filter id="softx" x="-20%" y="-20%" width="140%" height="140%"><feGaussianBlur stdDeviation="18"/></filter>
</defs>
<rect width="1200" height="900" fill="url(#skyx)"/>
<circle cx="943.3" cy="32.4" r="1.8" fill="#fff" opacity="0.50"/><circle cx="1000.4" cy="121.5" r="1.4" fill="#fff" opacity="0.42"/><circle cx="11.4" cy="51.9" r="1.7" fill="#fff" opacity="0.74"/><circle cx="851.0" cy="421.3" r="0.4" fill="#fff" opacity="0.37"/><circle cx="609.2" cy="363.9" r="1.9" fill="#fff" opacity="0.86"/><circle cx="487.9" cy="136.0" r="1.5" fill="#fff" opacity="0.48"/><circle cx="154.9" cy="159.0" r="1.4" fill="#fff" opacity="0.87"/><circle cx="924.2" cy="4.2" r="1.9" fill="#fff" opacity="0.58"/><circle cx="233.1" cy="8.7" r="0.6" fill="#fff" opacity="0.75"/><circle cx="627.1" cy="330.1" r="0.7" fill="#fff" opacity="0.65"/><circle cx="260.0" cy="396.3" r="1.5" fill="#fff" opacity="0.53"/><circle cx="433.3" cy="320.1" r="1.6" fill="#fff" opacity="0.72"/><circle cx="20.4" cy="205.5" r="0.7" fill="#fff" opacity="0.40"/><circle cx="119.9" cy="224.1" r="1.3" fill="#fff" opacity="0.56"/><circle cx="31.5" cy="110.0" r="1.1" fill="#fff" opacity="0.39"/><circle cx="1033.9" cy="66.3" r="1.2" fill="#fff" opacity="0.71"/><circle cx="45.7" cy="210.1" r="1.8" fill="#fff" opacity="0.73"/><circle cx="717.6" cy="312.6" r="0.5" fill="#fff" opacity="0.37"/><circle cx="940.4" cy="310.8" r="2.1" fill="#fff" opacity="0.89"/><circle cx="931.1" cy="95.5" r="1.4" fill="#fff" opacity="0.74"/><circle cx="724.2" cy="339.1" r="2.0" fill="#fff" opacity="0.55"/><circle cx="921.8" cy="258.9" r="1.3" fill="#fff" opacity="0.56"/><circle cx="1024.3" cy="179.6" r="2.2" fill="#fff" opacity="0.80"/><circle cx="105.9" cy="415.9" r="0.8" fill="#fff" opacity="0.52"/><circle cx="83.4" cy="116.1" r="1.3" fill="#fff" opacity="0.53"/><circle cx="91.6" cy="427.3" r="1.9" fill="#fff" opacity="0.53"/><circle cx="686.3" cy="81.3" r="1.1" fill="#fff" opacity="0.50"/><circle cx="795.6" cy="412.2" r="1.5" fill="#fff" opacity="0.50"/><circle cx="459.4" cy="429.7" r="1.9" fill="#fff" opacity="0.83"/><circle cx="902.5" cy="267.2" r="1.4" fill="#fff" opacity="0.74"/><circle cx="603.7" cy="442.1" r="1.4" fill="#fff" opacity="0.61"/><circle cx="701.0" cy="103.1" r="1.6" fill="#fff" opacity="0.59"/><circle cx="989.8" cy="208.3" r="1.0" fill="#fff" opacity="0.77"/><circle cx="520.7" cy="152.0" r="0.9" fill="#fff" opacity="0.52"/><circle cx="778.5" cy="355.2" r="2.0" fill="#fff" opacity="0.54"/><circle cx="653.0" cy="253.4" r="1.3" fill="#fff" opacity="0.38"/><circle cx="28.9" cy="375.9" r="1.1" fill="#fff" opacity="0.33"/><circle cx="1159.4" cy="265.3" r="0.6" fill="#fff" opacity="0.38"/><circle cx="324.1" cy="112.1" r="2.1" fill="#fff" opacity="0.36"/><circle cx="1154.0" cy="446.8" r="0.9" fill="#fff" opacity="0.79"/><circle cx="460.4" cy="135.0" r="0.7" fill="#fff" opacity="0.42"/><circle cx="907.2" cy="323.1" r="1.2" fill="#fff" opacity="0.78"/><circle cx="816.6" cy="190.5" r="0.5" fill="#fff" opacity="0.46"/><circle cx="1006.9" cy="123.1" r="0.5" fill="#fff" opacity="0.73"/><circle cx="230.0" cy="46.9" r="0.9" fill="#fff" opacity="0.39"/><circle cx="352.2" cy="340.6" r="0.6" fill="#fff" opacity="0.64"/><circle cx="86.8" cy="140.0" r="0.8" fill="#fff" opacity="0.83"/><circle cx="167.1" cy="209.1" r="1.9" fill="#fff" opacity="0.71"/><circle cx="3.0" cy="373.8" r="2.1" fill="#fff" opacity="0.59"/><circle cx="71.9" cy="305.1" r="1.4" fill="#fff" opacity="0.66"/><circle cx="1027.5" cy="28.3" r="1.0" fill="#fff" opacity="0.33"/><circle cx="951.6" cy="13.0" r="1.1" fill="#fff" opacity="0.40"/><circle cx="1107.2" cy="253.5" r="1.9" fill="#fff" opacity="0.82"/><circle cx="1025.0" cy="1.0" r="1.3" fill="#fff" opacity="0.86"/><circle cx="159.0" cy="276.0" r="1.5" fill="#fff" opacity="0.75"/><circle cx="350.4" cy="170.3" r="0.7" fill="#fff" opacity="0.70"/><circle cx="208.7" cy="131.6" r="0.6" fill="#fff" opacity="0.42"/><circle cx="466.9" cy="324.6" r="1.1" fill="#fff" opacity="0.65"/><circle cx="70.5" cy="419.3" r="1.4" fill="#fff" opacity="0.74"/><circle cx="1164.6" cy="82.3" r="2.1" fill="#fff" opacity="0.48"/><circle cx="360" cy="198" r="156.4" fill="url(#glow)"/><circle cx="360" cy="198" r="46" fill="#e9e4d0"/><circle cx="376" cy="188" r="46" fill="#070d1c"/>
    <path d="M0 396 L0 316.9613297460601 L60 357.6710234223865 L120 320.5250595221296 L180 324.64604701520875 L240 331.0784564926289 L300 343.4120241915807 L360 333.00413248036057 L420 331.1730520185083 L480 373.57731807651 L540 338.1500302432105 L600 312.82184387464076 L660 313.74189530173317 L720 338.0497928536497 L780 347.7021998600103 L840 342.1498191719875 L900 340.2898518126458 L960 340.93491096189246 L1020 347.16983842337504 L1080 330.0136971278116 L1140 318.5753924041055 L1200 328.9275009431876 L1200 396 Z" fill="#16202f" opacity=".7"/><path d="M0 406 L0 305.7990462882444 L90 332.2488067569211 L180 219.95936037180945 L270 324.2270650449209 L360 223.32979209627956 L450 283.21434821607545 L540 234.4975449903868 L630 273.7316268067807 L720 305.68677322613075 L810 309.3185096341185 L900 309.6651292908937 L990 333.3648659209721 L1080 214.5363001888618 L1170 326.22767313057557 L1200 406 Z" fill="#0b111e"/>
    <rect x="0" y="396" width="1200" height="504" fill="url(#seax)"/><path d="M0 410 Q 300 404 600 410 T 1200 410" stroke="#ffffff" stroke-opacity="0.14" stroke-width="2.5" fill="none"/><path d="M0 466 Q 300 460 600 466 T 1200 466" stroke="#ffffff" stroke-opacity="0.128" stroke-width="2.5" fill="none"/><path d="M0 522 Q 300 516 600 522 T 1200 522" stroke="#ffffff" stroke-opacity="0.11600000000000002" stroke-width="2.5" fill="none"/><path d="M0 578 Q 300 572 600 578 T 1200 578" stroke="#ffffff" stroke-opacity="0.10400000000000001" stroke-width="2.5" fill="none"/><path d="M0 634 Q 300 628 600 634 T 1200 634" stroke="#ffffff" stroke-opacity="0.09200000000000001" stroke-width="2.5" fill="none"/><path d="M0 690 Q 300 684 600 690 T 1200 690" stroke="#ffffff" stroke-opacity="0.08000000000000002" stroke-width="2.5" fill="none"/><path d="M0 746 Q 300 740 600 746 T 1200 746" stroke="#ffffff" stroke-opacity="0.068" stroke-width="2.5" fill="none"/><path d="M0 802 Q 300 796 600 802 T 1200 802" stroke="#ffffff" stroke-opacity="0.05600000000000001" stroke-width="2.5" fill="none"/>
    <g transform="translate(661.6269306326285 554.0800568545237) scale(0.986710125952959)" opacity=".5">
      <path d="M0 0 q 22 -14 44 0 q -22 14 -44 0 Z" fill="#f3ecdd"/><path d="M44 0 l 16 -10 v20 Z" fill="#f3ecdd"/></g><g transform="translate(800.9386689215899 608.2439720807597) scale(0.7271619135513901)" opacity=".5">
      <path d="M0 0 q 22 -14 44 0 q -22 14 -44 0 Z" fill="#f3ecdd"/><path d="M44 0 l 16 -10 v20 Z" fill="#f3ecdd"/></g><g transform="translate(143.57835858128965 553.6362855965272) scale(1.4708164870738982)" opacity=".5">
      <path d="M0 0 q 22 -14 44 0 q -22 14 -44 0 Z" fill="#f3ecdd"/><path d="M44 0 l 16 -10 v20 Z" fill="#f3ecdd"/></g><g transform="translate(172.1341951098293 676.6460017338395) scale(0.8010284025222063)" opacity=".5">
      <path d="M0 0 q 22 -14 44 0 q -22 14 -44 0 Z" fill="#f3ecdd"/><path d="M44 0 l 16 -10 v20 Z" fill="#f3ecdd"/></g><g transform="translate(620.0906271860003 569.8935023918748) scale(0.7814343146979809)" opacity=".5">
      <path d="M0 0 q 22 -14 44 0 q -22 14 -44 0 Z" fill="#f3ecdd"/><path d="M44 0 l 16 -10 v20 Z" fill="#f3ecdd"/></g>
    <path d="M0 900 L 408.00000000000006 426 L 504 426 L 240 900 Z" fill="#e2cda1" opacity=".9"/>
    <g transform="translate(888 702)">
      <path d="M-140 40 q 140 60 280 0 l -30 -34 h -220 Z" fill="#7a5335"/>
      <rect x="-16" y="-150" width="12" height="160" fill="#4a3826"/>
      <path d="M-10 -150 L 150 -60 L -10 -20 Z" fill="#b06ab3"/>
    </g>
    <g transform="translate(120 810) scale(1.8)">
    <path d="M0 0 C -10 -60 -26 -110 -46 -150" stroke="#0b111e" stroke-width="14" stroke-linecap="round" fill="none"/>
    <g transform="translate(-46 -150)"><path d="M0 0 q -12.554319953485155 -46 -25.10863990697031 -30" stroke="#0b111e" stroke-width="10" stroke-linecap="round" fill="none"/><path d="M0 0 q -41.108419502715435 -52 -82.21683900543087 -20" stroke="#0b111e" stroke-width="10" stroke-linecap="round" fill="none"/><path d="M0 0 q -57.79413037842027 -58 -115.58826075684054 -10" stroke="#0b111e" stroke-width="10" stroke-linecap="round" fill="none"/><path d="M0 0 q -57.79413037842027 -64 -115.58826075684054 0" stroke="#0b111e" stroke-width="10" stroke-linecap="round" fill="none"/><path d="M0 0 q -41.108419502715435 -70 -82.21683900543087 10" stroke="#0b111e" stroke-width="10" stroke-linecap="round" fill="none"/><path d="M0 0 q -12.554319953485155 -76 -25.10863990697031 20" stroke="#0b111e" stroke-width="10" stroke-linecap="round" fill="none"/></g></g>
    <circle cx="1032" cy="180" r="8" fill="#fff" opacity=".8"/>
    <path d="M983.9999999999999 216 q 40 -30 80 0" stroke="#ffffff88" stroke-width="4" fill="none"/>
<rect width="1200" height="900" filter="url(#grainx)" opacity=".8"/>
  <rect x="0" y="0" width="1200" height="900" fill="none" stroke="#0e0b08" stroke-opacity=".25" stroke-width="2"/>
</svg>