<svg xmlns="http://www.w3.org/2000/svg" viewBox="0 0 1200 900" preserveAspectRatio="xMidYMid slice">
<defs>
  <linearGradient id="skyx" x1="0" y1="0" x2="0" y2="1">
    <stop offset="0" stop-color="#070d1c"/><stop offset=".55" stop-color="#122036"/><stop offset="1" stop-color="#1d3a4a"/>
  </linearGradient>
  <linearGradient id="seax" x1="0" y1="0" x2="0" y2="1">
    <stop offset="0" stop-color="#174a52"/><stop offset="1" stop-color="#0a2531"/>
  </linearGradient>
  <radialGradient id="glowx" cx=".5" cy=".5" r=".5">
    <stop offset="0" stop-color="#e9e4d0" stop-opacity=".9"/><stop offset="1" stop-color="#e9e4d0" stop-opacity="0"/>
  </radialGradient>
  <linearGradient id="accx" x1="0" y1="0" x2="1" y2="1">
    <stop offset="0" stop-color="#d8a24a"/><stop offset="1" stop-color="#d8a24a" stop-opacity=".6"/>
  </linearGradient>
  <filter id="grainx"><feTurbulence type="fractalNoise" baseFrequency=".9" numOctaves="2" stitchTiles="stitch"/>
    <feColorMatrix type="matrix" values="0 0 0 0 0  0 0 0 0 0  0 0 0 0 0  0 0 0 .06 0"/>
  </filter>
  <filter id="softx" x="-20%" y="-20%" width="140%" height="140%"><feGaussianBlur stdDeviation="18"/></filter>
</defs>
<rect width="1200" height="900" fill="url(#skyx)"/>
<circle cx="40.0" cy="113.1" r="1.0" fill="#fff" opacity="0.31"/><circle cx="871.7" cy="364.7" r="0.8" fill="#fff" opacity="0.30"/><circle cx="698.7" cy="11.2" r="0.9" fill="#fff" opacity="0.37"/><circle cx="1153.5" cy="150.7" r="2.0" fill="#fff" opacity="0.64"/><circle cx="359.3" cy="393.0" r="1.1" fill="#fff" opacity="0.37"/><circle cx="231.0" cy="48.7" r="1.8" fill="#fff" opacity="0.73"/><circle cx="1136.8" cy="384.5" r="2.2" fill="#fff" opacity="0.39"/><circle cx="699.6" cy="386.7" r="1.6" fill="#fff" opacity="0.60"/><circle cx="494.2" cy="326.5" r="0.7" fill="#fff" opacity="0.55"/><circle cx="162.0" cy="337.9" r="0.5" fill="#fff" opacity="0.66"/><circle cx="908.1" cy="258.7" r="1.8" fill="#fff" opacity="0.44"/><circle cx="439.6" cy="379.3" r="2.0" fill="#fff" opacity="0.63"/><circle cx="355.7" cy="445.1" r="1.9" fill="#fff" opacity="0.40"/><circle cx="811.0" cy="345.1" r="1.5" fill="#fff" opacity="0.69"/><circle cx="844.6" cy="21.0" r="1.9" fill="#fff" opacity="0.34"/><circle cx="781.8" cy="442.2" r="2.0" fill="#fff" opacity="0.89"/><circle cx="929.5" cy="434.1" r="2.1" fill="#fff" opacity="0.33"/><circle cx="978.5" cy="261.9" r="0.6" fill="#fff" opacity="0.43"/><circle cx="447.6" cy="276.8" r="0.7" fill="#fff" opacity="0.49"/><circle cx="958.0" cy="140.9" r="1.4" fill="#fff" opacity="0.49"/><circle cx="671.6" cy="99.9" r="2.1" fill="#fff" opacity="0.61"/><circle cx="254.6" cy="298.9" r="1.0" fill="#fff" opacity="0.39"/><circle cx="206.8" cy="212.8" r="2.0" fill="#fff" opacity="0.31"/><circle cx="682.5" cy="23.4" r="1.0" fill="#fff" opacity="0.56"/><circle cx="340.4" cy="421.0" r="1.8" fill="#fff" opacity="0.77"/><circle cx="655.1" cy="67.9" r="1.8" fill="#fff" opacity="0.52"/><circle cx="790.9" cy="214.3" r="1.0" fill="#fff" opacity="0.79"/><circle cx="589.3" cy="198.8" r="1.4" fill="#fff" opacity="0.82"/><circle cx="297.8" cy="427.3" r="1.1" fill="#fff" opacity="0.57"/><circle cx="947.3" cy="38.6" r="1.8" fill="#fff" opacity="0.55"/><circle cx="859.5" cy="448.2" r="1.1" fill="#fff" opacity="0.38"/><circle cx="704.6" cy="60.4" r="1.6" fill="#fff" opacity="0.31"/><circle cx="31.5" cy="357.9" r="1.7" fill="#fff" opacity="0.39"/><circle cx="161.3" cy="321.4" r="1.4" fill="#fff" opacity="0.68"/><circle cx="1025.6" cy="311.5" r="1.0" fill="#fff" opacity="0.77"/><circle cx="1121.6" cy="195.0" r="1.5" fill="#fff" opacity="0.32"/><circle cx="144.1" cy="104.1" r="0.4" fill="#fff" opacity="0.54"/><circle cx="925.6" cy="120.2" r="1.6" fill="#fff" opacity="0.57"/><circle cx="266.0" cy="449.4" r="0.9" fill="#fff" opacity="0.37"/><circle cx="125.8" cy="447.3" r="1.4" fill="#fff" opacity="0.44"/><circle cx="95.3" cy="397.9" r="0.4" fill="#fff" opacity="0.88"/><circle cx="676.2" cy="209.5" r="1.5" fill="#fff" opacity="0.55"/><circle cx="78.3" cy="312.2" r="1.8" fill="#fff" opacity="0.38"/><circle cx="1160.4" cy="203.6" r="0.9" fill="#fff" opacity="0.87"/><circle cx="348.1" cy="402.4" r="1.4" fill="#fff" opacity="0.80"/><circle cx="983.5" cy="87.9" r="1.0" fill="#fff" opacity="0.42"/><circle cx="303.1" cy="383.9" r="0.6" fill="#fff" opacity="0.37"/><circle cx="564.2" cy="200.1" r="1.8" fill="#fff" opacity="0.69"/><circle cx="1127.6" cy="424.3" r="0.5" fill="#fff" opacity="0.50"/><circle cx="195.0" cy="342.1" r="1.5" fill="#fff" opacity="0.39"/><circle cx="757.3" cy="129.2" r="1.7" fill="#fff" opacity="0.87"/><circle cx="461.3" cy="426.3" r="0.7" fill="#fff" opacity="0.83"/><circle cx="673.4" cy="2.5" r="1.3" fill="#fff" opacity="0.52"/><circle cx="1086.0" cy="126.4" r="1.3" fill="#fff" opacity="0.49"/><circle cx="158.4" cy="90.8" r="1.2" fill="#fff" opacity="0.88"/><circle cx="48.5" cy="333.5" r="0.5" fill="#fff" opacity="0.51"/><circle cx="418.2" cy="102.8" r="0.9" fill="#fff" opacity="0.31"/><circle cx="312.6" cy="182.9" r="1.0" fill="#fff" opacity="0.66"/><circle cx="907.5" cy="277.1" r="2.1" fill="#fff" opacity="0.68"/><circle cx="358.1" cy="334.8" r="0.4" fill="#fff" opacity="0.74"/><circle cx="936" cy="216" r="156.4" fill="url(#glow)"/><circle cx="936" cy="216" r="46" fill="#e9e4d0"/><circle cx="952" cy="206" r="46" fill="#070d1c"/>
    <path d="M0 450 L0 421.8280277797021 L60 412.3555609979667 L120 405.8271853043698 L180 395.72267160052434 L240 409.7810291266069 L300 365.0957734044641 L360 375.38307157112285 L420 403.7680987804197 L480 385.5597060499713 L540 393.3983592665754 L600 393.6992039065808 L660 402.8967927256599 L720 377.08949032472447 L780 363.19327406352386 L840 427.34612776432186 L900 381.01266672601923 L960 383.54500429704785 L1020 410.748703815043 L1080 404.77038119453937 L1140 364.8573133861646 L1200 375.04620923660696 L1200 450 Z" fill="#16202f" opacity=".7"/><path d="M0 460 L0 389.30797988083214 L90 354.88935695728287 L180 285.2473927848041 L270 315.18433237448335 L360 267.30428335024044 L450 338.8648206857033 L540 318.8486209092662 L630 389.55925535876304 L720 370.4942210065201 L810 336.0462217335589 L900 353.82560186786577 L990 280.086974313017 L1080 386.3406347646378 L1170 319.55717670032755 L1200 460 Z" fill="#0b111e"/>
    <rect x="0" y="454" width="1200" height="126.00000000000001" fill="url(#seax)"/><path d="M0 468 Q 300 462 600 468 T 1200 468" stroke="#ffffff" stroke-opacity="0.14" stroke-width="2.5" fill="none"/><path d="M0 482 Q 300 476 600 482 T 1200 482" stroke="#ffffff" stroke-opacity="0.128" stroke-width="2.5" fill="none"/><path d="M0 496 Q 300 490 600 496 T 1200 496" stroke="#ffffff" stroke-opacity="0.11600000000000002" stroke-width="2.5" fill="none"/><path d="M0 510 Q 300 504 600 510 T 1200 510" stroke="#ffffff" stroke-opacity="0.10400000000000001" stroke-width="2.5" fill="none"/><path d="M0 524 Q 300 518 600 524 T 1200 524" stroke="#ffffff" stroke-opacity="0.09200000000000001" stroke-width="2.5" fill="none"/><path d="M0 538 Q 300 532 600 538 T 1200 538" stroke="#ffffff" stroke-opacity="0.08000000000000002" stroke-width="2.5" fill="none"/><path d="M0 552 Q 300 546 600 552 T 1200 552" stroke="#ffffff" stroke-opacity="0.068" stroke-width="2.5" fill="none"/><path d="M0 566 Q 300 560 600 566 T 1200 566" stroke="#ffffff" stroke-opacity="0.05600000000000001" stroke-width="2.5" fill="none"/>
    <rect x="0" y="558" width="1200" height="342" fill="#9c7350"/>
    <g transform="translate(600 648)">
      <ellipse cx="0" cy="60" rx="130" ry="24" fill="#00000033"/>
      <rect x="-110" y="-10" width="220" height="64" rx="12" fill="#7a5335"/>
      <circle cx="0" cy="-30" r="26" fill="#e9e4d0"/>
      <path d="M-14 -30 q14 -46 28 0" fill="#e9e4d0" opacity=".7"/>
      <g stroke="#3a2c1c" stroke-width="5"><line x1="-70" y1="-4" x2="-78" y2="-58"/><line x1="-24" y1="-4" x2="-32" y2="-58"/><line x1="22" y1="-4" x2="14" y2="-58"/><line x1="68" y1="-4" x2="60" y2="-58"/></g>
    </g>
    <g transform="translate(188.59887517988682 720)">
      <ellipse cx="0" cy="34" rx="120" ry="26" fill="#00000022"/>
      <rect x="-100" y="-30" width="200" height="60" rx="26" fill="#d8a24a"/>
      <rect x="-100" y="-44" width="200" height="34" rx="17" fill="#f3ecdd" opacity=".9"/>
    </g><g transform="translate(445.6225147191435 720)">
      <ellipse cx="0" cy="34" rx="120" ry="26" fill="#00000022"/>
      <rect x="-100" y="-30" width="200" height="60" rx="26" fill="#f3ecdd"/>
      <rect x="-100" y="-44" width="200" height="34" rx="17" fill="#d8a24a" opacity=".9"/>
    </g><g transform="translate(675.1680919528008 720)">
      <ellipse cx="0" cy="34" rx="120" ry="26" fill="#00000022"/>
      <rect x="-100" y="-30" width="200" height="60" rx="26" fill="#d8a24a"/>
      <rect x="-100" y="-44" width="200" height="34" rx="17" fill="#d8a24a" opacity=".9"/>
    </g><g transform="translate(937.6303461100906 720)">
      <ellipse cx="0" cy="34" rx="120" ry="26" fill="#00000022"/>
      <rect x="-100" y="-30" width="200" height="60" rx="26" fill="#d8a24a"/>
      <rect x="-100" y="-44" width="200" height="34" rx="17" fill="#d8a24a" opacity=".9"/>
    </g>
    <path d="M0 108 Q 600 200 1200 108" stroke="#1a140f" stroke-width="3" fill="none"/><circle cx="120" cy="130.21478174124758" r="5" fill="#e9e4d0"/><circle cx="120" cy="130.21478174124758" r="12" fill="#e9e4d0" opacity=".25"/><circle cx="240" cy="143.03812160545377" r="5" fill="#e9e4d0"/><circle cx="240" cy="143.03812160545377" r="12" fill="#e9e4d0" opacity=".25"/><circle cx="360" cy="153.21478174124758" r="5" fill="#e9e4d0"/><circle cx="360" cy="153.21478174124758" r="12" fill="#e9e4d0" opacity=".25"/><circle cx="480" cy="159.74859974957707" r="5" fill="#e9e4d0"/><circle cx="480" cy="159.74859974957707" r="12" fill="#e9e4d0" opacity=".25"/><circle cx="600" cy="162" r="5" fill="#e9e4d0"/><circle cx="600" cy="162" r="12" fill="#e9e4d0" opacity=".25"/><circle cx="720" cy="159.74859974957707" r="5" fill="#e9e4d0"/><circle cx="720" cy="159.74859974957707" r="12" fill="#e9e4d0" opacity=".25"/><circle cx="840" cy="153.21478174124758" r="5" fill="#e9e4d0"/><circle cx="840" cy="153.21478174124758" r="12" fill="#e9e4d0" opacity=".25"/><circle cx="960" cy="143.03812160545377" r="5" fill="#e9e4d0"/><circle cx="960" cy="143.03812160545377" r="12" fill="#e9e4d0" opacity=".25"/><circle cx="1080" cy="130.21478174124758" r="5" fill="#e9e4d0"/><circle cx="1080" cy="130.21478174124758" r="12" fill="#e9e4d0" opacity=".25"/>
    <g transform="translate(72 594) scale(1.3)">
    <path d="M0 0 C -10 -60 -26 -110 -46 -150" stroke="#0b111e" stroke-width="14" stroke-linecap="round" fill="none"/>
    <g transform="translate(-46 -150)"><path d="M0 0 q -12.554319953485155 -46 -25.10863990697031 -30" stroke="#0b111e" stroke-width="10" stroke-linecap="round" fill="none"/><path d="M0 0 q -41.108419502715435 -52 -82.21683900543087 -20" stroke="#0b111e" stroke-width="10" stroke-linecap="round" fill="none"/><path d="M0 0 q -57.79413037842027 -58 -115.58826075684054 -10" stroke="#0b111e" stroke-width="10" stroke-linecap="round" fill="none"/><path d="M0 0 q -57.79413037842027 -64 -115.58826075684054 0" stroke="#0b111e" stroke-width="10" stroke-linecap="round" fill="none"/><path d="M0 0 q -41.108419502715435 -70 -82.21683900543087 10" stroke="#0b111e" stroke-width="10" stroke-linecap="round" fill="none"/><path d="M0 0 q -12.554319953485155 -76 -25.10863990697031 20" stroke="#0b111e" stroke-width="10" stroke-linecap="round" fill="none"/></g></g>
    <g transform="translate(1128 594) scale(1.4)">
    <path d="M0 0 C 10 -60 26 -110 46 -150" stroke="#0b111e" stroke-width="14" stroke-linecap="round" fill="none"/>
    <g transform="translate(46 -150)"><path d="M0 0 q 12.554319953485155 -46 25.10863990697031 -30" stroke="#0b111e" stroke-width="10" stroke-linecap="round" fill="none"/><path d="M0 0 q 41.108419502715435 -52 82.21683900543087 -20" stroke="#0b111e" stroke-width="10" stroke-linecap="round" fill="none"/><path d="M0 0 q 57.79413037842027 -58 115.58826075684054 -10" stroke="#0b111e" stroke-width="10" stroke-linecap="round" fill="none"/><path d="M0 0 q 57.79413037842027 -64 115.58826075684054 0" stroke="#0b111e" stroke-width="10" stroke-linecap="round" fill="none"/><path d="M0 0 q 41.108419502715435 -70 82.21683900543087 10" stroke="#0b111e" stroke-width="10" stroke-linecap="round" fill="none"/><path d="M0 0 q 12.554319953485155 -76 25.10863990697031 20" stroke="#0b111e" stroke-width="10" stroke-linecap="round" fill="none"/></g></g>
    <g transform="translate(360 594) scale(1.1)">
    <circle cx="0" cy="26" r="46" fill="#e9e4d0" opacity=".28"/>
    <line x1="0" y1="-34" x2="0" y2="-12" stroke="#2a2118" stroke-width="4"/>
    <path d="M-16 -12 h32 l6 14 v22 l-6 14 h-32 l-6 -14 v-22 Z" fill="#2a2118"/>
    <path d="M-10 -6 h20 l4 10 v18 l-4 10 h-20 l-4 -10 v-18 Z" fill="#e9e4d0"/>
  </g><g transform="translate(840 594) scale(1.1)">
    <circle cx="0" cy="26" r="46" fill="#e9e4d0" opacity=".28"/>
    <line x1="0" y1="-34" x2="0" y2="-12" stroke="#2a2118" stroke-width="4"/>
    <path d="M-16 -12 h32 l6 14 v22 l-6 14 h-32 l-6 -14 v-22 Z" fill="#2a2118"/>
    <path d="M-10 -6 h20 l4 10 v18 l-4 10 h-20 l-4 -10 v-18 Z" fill="#e9e4d0"/>
  </g>
<rect width="1200" height="900" filter="url(#grainx)" opacity=".8"/>
  <rect x="0" y="0" width="1200" height="900" fill="none" stroke="#0e0b08" stroke-opacity=".25" stroke-width="2"/>
</svg>