<svg xmlns="http://www.w3.org/2000/svg" viewBox="0 0 1200 900" preserveAspectRatio="xMidYMid slice">
<defs>
  <linearGradient id="skyx" x1="0" y1="0" x2="0" y2="1">
    <stop offset="0" stop-color="#2b1f3a"/><stop offset=".55" stop-color="#c25b3f"/><stop offset="1" stop-color="#e8a35c"/>
  </linearGradient>
  <linearGradient id="seax" x1="0" y1="0" x2="0" y2="1">
    <stop offset="0" stop-color="#2c6f70"/><stop offset="1" stop-color="#173f46"/>
  </linearGradient>
  <radialGradient id="glowx" cx=".5" cy=".5" r=".5">
    <stop offset="0" stop-color="#f4c479" stop-opacity=".9"/><stop offset="1" stop-color="#f4c479" stop-opacity="0"/>
  </radialGradient>
  <linearGradient id="accx" x1="0" y1="0" x2="1" y2="1">
    <stop offset="0" stop-color="#ff5c39"/><stop offset="1" stop-color="#ff5c39" stop-opacity=".6"/>
  </linearGradient>
  <filter id="grainx"><feTurbulence type="fractalNoise" baseFrequency=".9" numOctaves="2" stitchTiles="stitch"/>
    <feColorMatrix type="matrix" values="0 0 0 0 0  0 0 0 0 0  0 0 0 0 0  0 0 0 .06 0"/>
  </filter>
  <filter id="softx" x="-20%" y="-20%" width="140%" height="140%"><feGaussianBlur stdDeviation="18"/></filter>
</defs>
<rect width="1200" height="900" fill="url(#skyx)"/>
<circle cx="1123.7" cy="59.7" r="1.1" fill="#fff" opacity="0.28"/><circle cx="231.7" cy="145.0" r="1.1" fill="#fff" opacity="0.28"/><circle cx="514.8" cy="123.4" r="0.7" fill="#fff" opacity="0.15"/><circle cx="608.9" cy="305.5" r="0.5" fill="#fff" opacity="0.19"/><circle cx="757.1" cy="39.3" r="1.7" fill="#fff" opacity="0.21"/><circle cx="1148.4" cy="20.9" r="1.1" fill="#fff" opacity="0.17"/><circle cx="286.5" cy="395.1" r="1.4" fill="#fff" opacity="0.19"/><circle cx="1088.8" cy="268.3" r="2.0" fill="#fff" opacity="0.27"/><circle cx="275.5" cy="27.8" r="1.8" fill="#fff" opacity="0.12"/><circle cx="900.0" cy="112.3" r="2.0" fill="#fff" opacity="0.31"/><circle cx="727.6" cy="253.0" r="0.6" fill="#fff" opacity="0.15"/><circle cx="176.5" cy="307.1" r="0.4" fill="#fff" opacity="0.23"/><circle cx="1098.6" cy="271.4" r="1.8" fill="#fff" opacity="0.30"/><circle cx="1133.2" cy="39.3" r="1.4" fill="#fff" opacity="0.25"/><circle cx="666.3" cy="348.1" r="0.6" fill="#fff" opacity="0.31"/><circle cx="1068.1" cy="363.5" r="1.2" fill="#fff" opacity="0.29"/><circle cx="557.4" cy="253.7" r="0.9" fill="#fff" opacity="0.23"/><circle cx="238.3" cy="49.2" r="0.9" fill="#fff" opacity="0.17"/><circle cx="934.0" cy="194.6" r="1.5" fill="#fff" opacity="0.16"/><circle cx="377.1" cy="313.5" r="1.8" fill="#fff" opacity="0.16"/><circle cx="25.6" cy="258.8" r="1.6" fill="#fff" opacity="0.27"/><circle cx="296.0" cy="21.3" r="1.3" fill="#fff" opacity="0.16"/><circle cx="4.6" cy="438.8" r="1.0" fill="#fff" opacity="0.14"/><circle cx="621.9" cy="433.6" r="1.4" fill="#fff" opacity="0.16"/><circle cx="131.5" cy="424.3" r="0.5" fill="#fff" opacity="0.22"/><circle cx="719.1" cy="108.1" r="1.8" fill="#fff" opacity="0.24"/><circle cx="31.2" cy="149.1" r="1.3" fill="#fff" opacity="0.13"/><circle cx="696.1" cy="154.6" r="1.3" fill="#fff" opacity="0.14"/><circle cx="28.1" cy="38.5" r="2.2" fill="#fff" opacity="0.12"/><circle cx="1168.4" cy="188.5" r="1.2" fill="#fff" opacity="0.11"/><circle cx="997.9" cy="183.3" r="0.6" fill="#fff" opacity="0.27"/><circle cx="49.6" cy="249.0" r="0.8" fill="#fff" opacity="0.18"/><circle cx="640.7" cy="73.2" r="0.8" fill="#fff" opacity="0.28"/><circle cx="80.9" cy="328.9" r="1.5" fill="#fff" opacity="0.21"/><circle cx="873.4" cy="264.2" r="1.9" fill="#fff" opacity="0.26"/><circle cx="143.8" cy="57.2" r="1.4" fill="#fff" opacity="0.13"/><circle cx="17.3" cy="324.1" r="1.6" fill="#fff" opacity="0.30"/><circle cx="650.1" cy="251.8" r="0.8" fill="#fff" opacity="0.30"/><circle cx="1041.9" cy="6.1" r="2.1" fill="#fff" opacity="0.14"/><circle cx="1108.0" cy="52.3" r="0.5" fill="#fff" opacity="0.25"/><circle cx="654.2" cy="232.5" r="1.3" fill="#fff" opacity="0.17"/><circle cx="335.4" cy="83.3" r="0.6" fill="#fff" opacity="0.16"/><circle cx="908.3" cy="353.8" r="1.8" fill="#fff" opacity="0.13"/><circle cx="210.4" cy="322.9" r="1.4" fill="#fff" opacity="0.26"/><circle cx="81.8" cy="279.5" r="0.9" fill="#fff" opacity="0.13"/><circle cx="116.7" cy="214.4" r="1.4" fill="#fff" opacity="0.29"/><circle cx="139.6" cy="423.6" r="0.4" fill="#fff" opacity="0.15"/><circle cx="755.1" cy="397.6" r="1.1" fill="#fff" opacity="0.18"/><circle cx="1092.6" cy="226.3" r="1.7" fill="#fff" opacity="0.19"/><circle cx="483.2" cy="421.8" r="1.8" fill="#fff" opacity="0.18"/><circle cx="848.3" cy="424.8" r="0.4" fill="#fff" opacity="0.19"/><circle cx="1020.9" cy="43.5" r="2.1" fill="#fff" opacity="0.25"/><circle cx="490.8" cy="124.8" r="1.0" fill="#fff" opacity="0.12"/><circle cx="1030.3" cy="323.4" r="1.8" fill="#fff" opacity="0.31"/><circle cx="904.1" cy="46.3" r="1.8" fill="#fff" opacity="0.20"/><circle cx="813.8" cy="372.2" r="2.0" fill="#fff" opacity="0.21"/><circle cx="87.2" cy="207.1" r="1.8" fill="#fff" opacity="0.21"/><circle cx="553.0" cy="274.2" r="0.6" fill="#fff" opacity="0.25"/><circle cx="623.3" cy="158.6" r="1.2" fill="#fff" opacity="0.24"/><circle cx="655.1" cy="139.1" r="1.0" fill="#fff" opacity="0.27"/><circle cx="377.07039918750525" cy="270" r="251.6" fill="url(#glow)"/><circle cx="377.07039918750525" cy="270" r="74" fill="#f4c479"/>
    <path d="M0 468 L0 439.3596413540654 L60 442.08770848298445 L120 447.63571417843923 L180 446.2917954423465 L240 440.22187970764935 L300 414.70972789637744 L360 430.086993008852 L420 423.1995879714377 L480 383.1458011637442 L540 432.1747999121435 L600 426.69925441686064 L660 429.97997806826606 L720 409.11160467145965 L780 412.80242426972836 L840 382.4063584296964 L900 429.734338440001 L960 420.83686731476337 L1020 417.3898319802247 L1080 439.20507119689137 L1140 430.0808765757829 L1200 403.67176199052483 L1200 468 Z" fill="#31203a" opacity=".7"/><path d="M0 478 L0 359.294318230357 L90 291.35548422299325 L180 281.4008002281189 L270 305.43139173835516 L360 299.19732345221564 L450 300.6061804406345 L540 283.7554751355201 L630 395.89641226409003 L720 284.5274973795749 L810 354.6955180489458 L900 310.89992242353037 L990 365.09535954520106 L1080 326.17422452615574 L1170 344.7615222511813 L1200 478 Z" fill="#1d1626"/>
    <rect x="0" y="472" width="1200" height="144" fill="url(#seax)"/><path d="M0 486 Q 300 480 600 486 T 1200 486" stroke="#ffffff" stroke-opacity="0.14" stroke-width="2.5" fill="none"/><path d="M0 502 Q 300 496 600 502 T 1200 502" stroke="#ffffff" stroke-opacity="0.128" stroke-width="2.5" fill="none"/><path d="M0 518 Q 300 512 600 518 T 1200 518" stroke="#ffffff" stroke-opacity="0.11600000000000002" stroke-width="2.5" fill="none"/><path d="M0 534 Q 300 528 600 534 T 1200 534" stroke="#ffffff" stroke-opacity="0.10400000000000001" stroke-width="2.5" fill="none"/><path d="M0 550 Q 300 544 600 550 T 1200 550" stroke="#ffffff" stroke-opacity="0.09200000000000001" stroke-width="2.5" fill="none"/><path d="M0 566 Q 300 560 600 566 T 1200 566" stroke="#ffffff" stroke-opacity="0.08000000000000002" stroke-width="2.5" fill="none"/><path d="M0 582 Q 300 576 600 582 T 1200 582" stroke="#ffffff" stroke-opacity="0.068" stroke-width="2.5" fill="none"/><path d="M0 598 Q 300 592 600 598 T 1200 598" stroke="#ffffff" stroke-opacity="0.05600000000000001" stroke-width="2.5" fill="none"/>
    <rect x="0" y="594" width="1200" height="306" fill="#8a6a4d"/>
    <ellipse cx="600" cy="886.5" rx="744" ry="40" fill="#00000022"/>
    <g>
    <path d="M192 774 h360 v-260 h-360 Z" fill="#caa96f"/>
    <line x1="228" y1="774" x2="228" y2="514" stroke="#00000022" stroke-width="3"/><line x1="264" y1="774" x2="264" y2="514" stroke="#00000022" stroke-width="3"/><line x1="300" y1="774" x2="300" y2="514" stroke="#00000022" stroke-width="3"/><line x1="336" y1="774" x2="336" y2="514" stroke="#00000022" stroke-width="3"/><line x1="372" y1="774" x2="372" y2="514" stroke="#00000022" stroke-width="3"/><line x1="408" y1="774" x2="408" y2="514" stroke="#00000022" stroke-width="3"/><line x1="444" y1="774" x2="444" y2="514" stroke="#00000022" stroke-width="3"/><line x1="480" y1="774" x2="480" y2="514" stroke="#00000022" stroke-width="3"/><line x1="516" y1="774" x2="516" y2="514" stroke="#00000022" stroke-width="3"/>
    <path d="M148.8 514 L372 362.8 L595.2 514 Z" fill="#ff5c39"/>
    <line x1="154.8" y1="514" x2="140.8" y2="540" stroke="#00000030" stroke-width="4" stroke-linecap="round"/><line x1="192" y1="514" x2="178" y2="540" stroke="#00000030" stroke-width="4" stroke-linecap="round"/><line x1="229.2" y1="514" x2="215.2" y2="540" stroke="#00000030" stroke-width="4" stroke-linecap="round"/><line x1="266.4" y1="514" x2="252.39999999999998" y2="540" stroke="#00000030" stroke-width="4" stroke-linecap="round"/><line x1="303.6" y1="514" x2="289.6" y2="540" stroke="#00000030" stroke-width="4" stroke-linecap="round"/><line x1="340.79999999999995" y1="514" x2="326.79999999999995" y2="540" stroke="#00000030" stroke-width="4" stroke-linecap="round"/><line x1="378" y1="514" x2="364" y2="540" stroke="#00000030" stroke-width="4" stroke-linecap="round"/><line x1="415.2" y1="514" x2="401.2" y2="540" stroke="#00000030" stroke-width="4" stroke-linecap="round"/><line x1="452.4" y1="514" x2="438.4" y2="540" stroke="#00000030" stroke-width="4" stroke-linecap="round"/><line x1="489.59999999999997" y1="514" x2="475.59999999999997" y2="540" stroke="#00000030" stroke-width="4" stroke-linecap="round"/><line x1="526.8" y1="514" x2="512.8" y2="540" stroke="#00000030" stroke-width="4" stroke-linecap="round"/><line x1="564" y1="514" x2="550" y2="540" stroke="#00000030" stroke-width="4" stroke-linecap="round"/>
    <rect x="328.8" y="586.8" width="86.39999999999999" height="187.2" rx="6" fill="#3a2c1c"/>
  </g><g transform="translate(864 783) scale(1.5)">
    <path d="M0 0 C 10 -60 26 -110 46 -150" stroke="#1d1626" stroke-width="14" stroke-linecap="round" fill="none"/>
    <g transform="translate(46 -150)"><path d="M0 0 q 12.554319953485155 -46 25.10863990697031 -30" stroke="#1d1626" stroke-width="10" stroke-linecap="round" fill="none"/><path d="M0 0 q 41.108419502715435 -52 82.21683900543087 -20" stroke="#1d1626" stroke-width="10" stroke-linecap="round" fill="none"/><path d="M0 0 q 57.79413037842027 -58 115.58826075684054 -10" stroke="#1d1626" stroke-width="10" stroke-linecap="round" fill="none"/><path d="M0 0 q 57.79413037842027 -64 115.58826075684054 0" stroke="#1d1626" stroke-width="10" stroke-linecap="round" fill="none"/><path d="M0 0 q 41.108419502715435 -70 82.21683900543087 10" stroke="#1d1626" stroke-width="10" stroke-linecap="round" fill="none"/><path d="M0 0 q 12.554319953485155 -76 25.10863990697031 20" stroke="#1d1626" stroke-width="10" stroke-linecap="round" fill="none"/></g></g><g transform="translate(108 792) scale(1.1)">
    <path d="M0 0 C -10 -60 -26 -110 -46 -150" stroke="#1d1626" stroke-width="14" stroke-linecap="round" fill="none"/>
    <g transform="translate(-46 -150)"><path d="M0 0 q -12.554319953485155 -46 -25.10863990697031 -30" stroke="#1d1626" stroke-width="10" stroke-linecap="round" fill="none"/><path d="M0 0 q -41.108419502715435 -52 -82.21683900543087 -20" stroke="#1d1626" stroke-width="10" stroke-linecap="round" fill="none"/><path d="M0 0 q -57.79413037842027 -58 -115.58826075684054 -10" stroke="#1d1626" stroke-width="10" stroke-linecap="round" fill="none"/><path d="M0 0 q -57.79413037842027 -64 -115.58826075684054 0" stroke="#1d1626" stroke-width="10" stroke-linecap="round" fill="none"/><path d="M0 0 q -41.108419502715435 -70 -82.21683900543087 10" stroke="#1d1626" stroke-width="10" stroke-linecap="round" fill="none"/><path d="M0 0 q -12.554319953485155 -76 -25.10863990697031 20" stroke="#1d1626" stroke-width="10" stroke-linecap="round" fill="none"/></g></g>
    <path d="M60 162 Q 600 242 1140 162" stroke="#1a140f" stroke-width="3" fill="none"/><circle cx="168" cy="182.3606797749979" r="5" fill="#f4c479"/><circle cx="168" cy="182.3606797749979" r="12" fill="#f4c479" opacity=".25"/><circle cx="276" cy="193.51141009169893" r="5" fill="#f4c479"/><circle cx="276" cy="193.51141009169893" r="12" fill="#f4c479" opacity=".25"/><circle cx="384" cy="202.3606797749979" r="5" fill="#f4c479"/><circle cx="384" cy="202.3606797749979" r="12" fill="#f4c479" opacity=".25"/><circle cx="492" cy="208.04226065180615" r="5" fill="#f4c479"/><circle cx="492" cy="208.04226065180615" r="12" fill="#f4c479" opacity=".25"/><circle cx="600" cy="210" r="5" fill="#f4c479"/><circle cx="600" cy="210" r="12" fill="#f4c479" opacity=".25"/><circle cx="708" cy="208.04226065180615" r="5" fill="#f4c479"/><circle cx="708" cy="208.04226065180615" r="12" fill="#f4c479" opacity=".25"/><circle cx="816" cy="202.3606797749979" r="5" fill="#f4c479"/><circle cx="816" cy="202.3606797749979" r="12" fill="#f4c479" opacity=".25"/><circle cx="924" cy="193.51141009169893" r="5" fill="#f4c479"/><circle cx="924" cy="193.51141009169893" r="12" fill="#f4c479" opacity=".25"/><circle cx="1032" cy="182.3606797749979" r="5" fill="#f4c479"/><circle cx="1032" cy="182.3606797749979" r="12" fill="#f4c479" opacity=".25"/>
    <g transform="translate(1056 720) scale(1.2)">
    <circle cx="0" cy="26" r="46" fill="#f4c479" opacity=".28"/>
    <line x1="0" y1="-34" x2="0" y2="-12" stroke="#2a2118" stroke-width="4"/>
    <path d="M-16 -12 h32 l6 14 v22 l-6 14 h-32 l-6 -14 v-22 Z" fill="#2a2118"/>
    <path d="M-10 -6 h20 l4 10 v18 l-4 10 h-20 l-4 -10 v-18 Z" fill="#f4c479"/>
  </g>
<rect width="1200" height="900" filter="url(#grainx)" opacity=".8"/>
  <rect x="0" y="0" width="1200" height="900" fill="none" stroke="#0e0b08" stroke-opacity=".25" stroke-width="2"/>
</svg>