<svg xmlns="http://www.w3.org/2000/svg" viewBox="0 0 1200 900" preserveAspectRatio="xMidYMid slice">
<defs>
  <linearGradient id="skyx" x1="0" y1="0" x2="0" y2="1">
    <stop offset="0" stop-color="#7fb6c9"/><stop offset=".55" stop-color="#cfe3dd"/><stop offset="1" stop-color="#efe6cc"/>
  </linearGradient>
  <linearGradient id="seax" x1="0" y1="0" x2="0" y2="1">
    <stop offset="0" stop-color="#57b3a6"/><stop offset="1" stop-color="#1c7a7c"/>
  </linearGradient>
  <radialGradient id="glowx" cx=".5" cy=".5" r=".5">
    <stop offset="0" stop-color="#f7ead0" stop-opacity=".9"/><stop offset="1" stop-color="#f7ead0" stop-opacity="0"/>
  </radialGradient>
  <linearGradient id="accx" x1="0" y1="0" x2="1" y2="1">
    <stop offset="0" stop-color="#3f9d6e"/><stop offset="1" stop-color="#3f9d6e" stop-opacity=".6"/>
  </linearGradient>
  <filter id="grainx"><feTurbulence type="fractalNoise" baseFrequency=".9" numOctaves="2" stitchTiles="stitch"/>
    <feColorMatrix type="matrix" values="0 0 0 0 0  0 0 0 0 0  0 0 0 0 0  0 0 0 .06 0"/>
  </filter>
  <filter id="softx" x="-20%" y="-20%" width="140%" height="140%"><feGaussianBlur stdDeviation="18"/></filter>
</defs>
<rect width="1200" height="900" fill="url(#skyx)"/>
<circle cx="840" cy="216" r="251.6" fill="url(#glow)"/><circle cx="840" cy="216" r="74" fill="#f7ead0"/><path d="M0 450 L0 425.58574779191986 L60 365.12988527538255 L120 369.9124010303058 L180 371.85289736138657 L240 373.2505188602954 L300 380.0655751931481 L360 400.10244035627693 L420 388.80146958865225 L480 378.43312956392765 L540 410.8949190704152 L600 380.4604629497044 L660 411.9301490485668 L720 370.21668151486665 L780 390.65720241284 L840 415.1868652063422 L900 383.2567452150397 L960 408.87552447849885 L1020 365.50053535960615 L1080 370.780112252105 L1140 420.5124274943955 L1200 395.0668043526821 L1200 450 Z" fill="#c8895a" opacity=".7"/><path d="M0 460 L0 273.9996090414934 L90 266.02966517210007 L180 376.69516519177705 L270 331.0429068398662 L360 279.64835436316207 L450 372.2342385817319 L540 353.96931507159024 L630 356.9772597239353 L720 321.4205982978456 L810 339.18802375905216 L900 284.290247769095 L990 295.0409430498257 L1080 331.43670841120183 L1170 280.49400883493945 L1200 460 Z" fill="#a5673f"/><rect x="0" y="450" width="1200" height="450" fill="url(#seax)"/><path d="M0 464 Q 300 458 600 464 T 1200 464" stroke="#ffffff" stroke-opacity="0.14" stroke-width="2.5" fill="none"/><path d="M0 514 Q 300 508 600 514 T 1200 514" stroke="#ffffff" stroke-opacity="0.128" stroke-width="2.5" fill="none"/><path d="M0 564 Q 300 558 600 564 T 1200 564" stroke="#ffffff" stroke-opacity="0.11600000000000002" stroke-width="2.5" fill="none"/><path d="M0 614 Q 300 608 600 614 T 1200 614" stroke="#ffffff" stroke-opacity="0.10400000000000001" stroke-width="2.5" fill="none"/><path d="M0 664 Q 300 658 600 664 T 1200 664" stroke="#ffffff" stroke-opacity="0.09200000000000001" stroke-width="2.5" fill="none"/><path d="M0 714 Q 300 708 600 714 T 1200 714" stroke="#ffffff" stroke-opacity="0.08000000000000002" stroke-width="2.5" fill="none"/><path d="M0 764 Q 300 758 600 764 T 1200 764" stroke="#ffffff" stroke-opacity="0.068" stroke-width="2.5" fill="none"/><path d="M0 814 Q 300 808 600 814 T 1200 814" stroke="#ffffff" stroke-opacity="0.05600000000000001" stroke-width="2.5" fill="none"/><g transform="translate(600 612)"><ellipse rx="180" ry="120" fill="#0b3a44" opacity=".45"/><g transform="translate(-120 -20) scale(0.9)"><path d="M0 0 q 22 -14 44 0 q -22 14 -44 0 Z" fill="#f3ecdd"/><path d="M44 0 l 16 -10 v20 Z" fill="#f3ecdd"/></g><g transform="translate(-60 40) scale(1.2)"><path d="M0 0 q 22 -14 44 0 q -22 14 -44 0 Z" fill="#3f9d6e"/><path d="M44 0 l 16 -10 v20 Z" fill="#3f9d6e"/></g><g transform="translate(0 -20) scale(1.5)"><path d="M0 0 q 22 -14 44 0 q -22 14 -44 0 Z" fill="#f3ecdd"/><path d="M44 0 l 16 -10 v20 Z" fill="#f3ecdd"/></g><g transform="translate(60 40) scale(0.9)"><path d="M0 0 q 22 -14 44 0 q -22 14 -44 0 Z" fill="#3f9d6e"/><path d="M44 0 l 16 -10 v20 Z" fill="#3f9d6e"/></g><g transform="translate(120 -20) scale(1.2)"><path d="M0 0 q 22 -14 44 0 q -22 14 -44 0 Z" fill="#f3ecdd"/><path d="M44 0 l 16 -10 v20 Z" fill="#f3ecdd"/></g><path d="M-150 90 q 20 -60 40 0 q 20 -60 40 0" stroke="#e2557b" stroke-width="10" fill="none" stroke-linecap="round"/></g>
<rect width="1200" height="900" filter="url(#grainx)" opacity=".8"/>
  <rect x="0" y="0" width="1200" height="900" fill="none" stroke="#0e0b08" stroke-opacity=".25" stroke-width="2"/>
</svg>