<svg xmlns="http://www.w3.org/2000/svg" viewBox="0 0 1200 900" preserveAspectRatio="xMidYMid slice">
<defs>
  <linearGradient id="skyx" x1="0" y1="0" x2="0" y2="1">
    <stop offset="0" stop-color="#070d1c"/><stop offset=".55" stop-color="#122036"/><stop offset="1" stop-color="#1d3a4a"/>
  </linearGradient>
  <linearGradient id="seax" x1="0" y1="0" x2="0" y2="1">
    <stop offset="0" stop-color="#174a52"/><stop offset="1" stop-color="#0a2531"/>
  </linearGradient>
  <radialGradient id="glowx" cx=".5" cy=".5" r=".5">
    <stop offset="0" stop-color="#e9e4d0" stop-opacity=".9"/><stop offset="1" stop-color="#e9e4d0" stop-opacity="0"/>
  </radialGradient>
  <linearGradient id="accx" x1="0" y1="0" x2="1" y2="1">
    <stop offset="0" stop-color="#e2557b"/><stop offset="1" stop-color="#e2557b" stop-opacity=".6"/>
  </linearGradient>
  <filter id="grainx"><feTurbulence type="fractalNoise" baseFrequency=".9" numOctaves="2" stitchTiles="stitch"/>
    <feColorMatrix type="matrix" values="0 0 0 0 0  0 0 0 0 0  0 0 0 0 0  0 0 0 .06 0"/>
  </filter>
  <filter id="softx" x="-20%" y="-20%" width="140%" height="140%"><feGaussianBlur stdDeviation="18"/></filter>
</defs>
<rect width="1200" height="900" fill="url(#skyx)"/>
<circle cx="83.3" cy="244.6" r="2.2" fill="#fff" opacity="0.62"/><circle cx="1024.2" cy="178.9" r="1.0" fill="#fff" opacity="0.77"/><circle cx="698.6" cy="14.0" r="0.6" fill="#fff" opacity="0.82"/><circle cx="417.7" cy="147.3" r="2.1" fill="#fff" opacity="0.67"/><circle cx="574.6" cy="349.5" r="1.0" fill="#fff" opacity="0.80"/><circle cx="630.2" cy="199.1" r="0.6" fill="#fff" opacity="0.87"/><circle cx="146.5" cy="117.0" r="0.8" fill="#fff" opacity="0.81"/><circle cx="595.5" cy="123.8" r="0.7" fill="#fff" opacity="0.36"/><circle cx="438.7" cy="115.0" r="1.2" fill="#fff" opacity="0.48"/><circle cx="690.2" cy="217.5" r="1.7" fill="#fff" opacity="0.72"/><circle cx="1081.9" cy="414.0" r="1.9" fill="#fff" opacity="0.86"/><circle cx="392.6" cy="308.3" r="2.0" fill="#fff" opacity="0.67"/><circle cx="90.6" cy="446.5" r="1.5" fill="#fff" opacity="0.55"/><circle cx="197.8" cy="404.7" r="1.1" fill="#fff" opacity="0.71"/><circle cx="832.5" cy="261.9" r="2.2" fill="#fff" opacity="0.42"/><circle cx="317.4" cy="44.1" r="0.9" fill="#fff" opacity="0.68"/><circle cx="602.5" cy="424.6" r="0.7" fill="#fff" opacity="0.54"/><circle cx="371.1" cy="184.5" r="1.6" fill="#fff" opacity="0.31"/><circle cx="453.3" cy="105.9" r="1.1" fill="#fff" opacity="0.52"/><circle cx="1188.5" cy="253.2" r="1.0" fill="#fff" opacity="0.36"/><circle cx="1140.2" cy="240.0" r="2.1" fill="#fff" opacity="0.49"/><circle cx="954.7" cy="125.5" r="0.5" fill="#fff" opacity="0.49"/><circle cx="603.5" cy="179.2" r="2.0" fill="#fff" opacity="0.32"/><circle cx="464.9" cy="382.4" r="1.6" fill="#fff" opacity="0.36"/><circle cx="175.5" cy="121.4" r="1.0" fill="#fff" opacity="0.67"/><circle cx="177.1" cy="432.3" r="1.1" fill="#fff" opacity="0.31"/><circle cx="563.8" cy="302.1" r="0.7" fill="#fff" opacity="0.53"/><circle cx="167.2" cy="341.7" r="1.1" fill="#fff" opacity="0.53"/><circle cx="132.0" cy="274.8" r="0.9" fill="#fff" opacity="0.68"/><circle cx="399.3" cy="237.9" r="1.7" fill="#fff" opacity="0.49"/><circle cx="231.2" cy="15.3" r="0.8" fill="#fff" opacity="0.64"/><circle cx="1046.6" cy="122.0" r="1.5" fill="#fff" opacity="0.83"/><circle cx="881.4" cy="24.2" r="1.8" fill="#fff" opacity="0.41"/><circle cx="211.2" cy="145.6" r="1.0" fill="#fff" opacity="0.63"/><circle cx="359.9" cy="282.3" r="0.4" fill="#fff" opacity="0.48"/><circle cx="1064.4" cy="120.8" r="2.2" fill="#fff" opacity="0.53"/><circle cx="285.6" cy="191.1" r="1.8" fill="#fff" opacity="0.48"/><circle cx="332.9" cy="420.6" r="1.8" fill="#fff" opacity="0.77"/><circle cx="219.8" cy="267.1" r="1.0" fill="#fff" opacity="0.84"/><circle cx="670.9" cy="72.4" r="1.3" fill="#fff" opacity="0.48"/><circle cx="909.1" cy="141.0" r="0.9" fill="#fff" opacity="0.86"/><circle cx="520.5" cy="192.7" r="0.5" fill="#fff" opacity="0.45"/><circle cx="853.5" cy="326.6" r="1.0" fill="#fff" opacity="0.45"/><circle cx="1138.5" cy="132.9" r="2.1" fill="#fff" opacity="0.77"/><circle cx="1170.7" cy="200.0" r="1.4" fill="#fff" opacity="0.76"/><circle cx="158.1" cy="138.4" r="2.2" fill="#fff" opacity="0.88"/><circle cx="830.8" cy="381.5" r="2.1" fill="#fff" opacity="0.82"/><circle cx="528.4" cy="257.9" r="1.2" fill="#fff" opacity="0.61"/><circle cx="87.0" cy="22.7" r="1.8" fill="#fff" opacity="0.31"/><circle cx="12.0" cy="317.8" r="1.7" fill="#fff" opacity="0.63"/><circle cx="1122.9" cy="374.2" r="1.1" fill="#fff" opacity="0.88"/><circle cx="73.8" cy="4.8" r="0.4" fill="#fff" opacity="0.52"/><circle cx="429.3" cy="244.5" r="1.0" fill="#fff" opacity="0.64"/><circle cx="179.2" cy="75.5" r="1.5" fill="#fff" opacity="0.89"/><circle cx="260.6" cy="22.9" r="1.2" fill="#fff" opacity="0.80"/><circle cx="1179.5" cy="361.4" r="1.4" fill="#fff" opacity="0.56"/><circle cx="544.6" cy="282.0" r="1.7" fill="#fff" opacity="0.78"/><circle cx="594.8" cy="354.1" r="2.1" fill="#fff" opacity="0.61"/><circle cx="822.2" cy="228.7" r="1.1" fill="#fff" opacity="0.37"/><circle cx="350.1" cy="186.7" r="1.9" fill="#fff" opacity="0.55"/><circle cx="377.5924317538738" cy="270" r="156.4" fill="url(#glow)"/><circle cx="377.5924317538738" cy="270" r="46" fill="#e9e4d0"/><circle cx="393.5924317538738" cy="260" r="46" fill="#070d1c"/>
    <path d="M0 468 L0 397.38060444546863 L60 407.79917504359037 L120 435.6291444594972 L180 409.7829594598152 L240 406.5774159897119 L300 442.6656467206776 L360 407.53567277872935 L420 403.1887255697511 L480 408.81996771739796 L540 387.91883729817346 L600 420.854785642121 L660 426.73936265241355 L720 404.60153803182766 L780 447.97051826911047 L840 443.20799569319934 L900 429.67659054277465 L960 412.88799730548635 L1020 383.0981524772942 L1080 430.8702982724644 L1140 447.5201361598447 L1200 410.3292654915713 L1200 468 Z" fill="#16202f" opacity=".7"/><path d="M0 478 L0 361.21592760505155 L90 294.82510210201144 L180 313.34532812424004 L270 310.5024075154215 L360 381.6957172071561 L450 362.43395954556763 L540 391.4091416117735 L630 381.3748734020628 L720 403.29633396770805 L810 312.84192182542756 L900 280.2757161501795 L990 306.27666525729 L1080 368.74139506323263 L1170 397.2238704417832 L1200 478 Z" fill="#0b111e"/>
    <rect x="0" y="472" width="1200" height="144" fill="url(#seax)"/><path d="M0 486 Q 300 480 600 486 T 1200 486" stroke="#ffffff" stroke-opacity="0.14" stroke-width="2.5" fill="none"/><path d="M0 502 Q 300 496 600 502 T 1200 502" stroke="#ffffff" stroke-opacity="0.128" stroke-width="2.5" fill="none"/><path d="M0 518 Q 300 512 600 518 T 1200 518" stroke="#ffffff" stroke-opacity="0.11600000000000002" stroke-width="2.5" fill="none"/><path d="M0 534 Q 300 528 600 534 T 1200 534" stroke="#ffffff" stroke-opacity="0.10400000000000001" stroke-width="2.5" fill="none"/><path d="M0 550 Q 300 544 600 550 T 1200 550" stroke="#ffffff" stroke-opacity="0.09200000000000001" stroke-width="2.5" fill="none"/><path d="M0 566 Q 300 560 600 566 T 1200 566" stroke="#ffffff" stroke-opacity="0.08000000000000002" stroke-width="2.5" fill="none"/><path d="M0 582 Q 300 576 600 582 T 1200 582" stroke="#ffffff" stroke-opacity="0.068" stroke-width="2.5" fill="none"/><path d="M0 598 Q 300 592 600 598 T 1200 598" stroke="#ffffff" stroke-opacity="0.05600000000000001" stroke-width="2.5" fill="none"/>
    <rect x="0" y="594" width="1200" height="306" fill="#8a6a4d"/>
    <ellipse cx="600" cy="886.5" rx="744" ry="40" fill="#00000022"/>
    <rect x="144" y="504.00000000000006" width="620" height="270" rx="10" fill="#cbb489"/>
      <rect x="194" y="558" width="86" height="110" rx="8" fill="#070d1c" stroke="#3a2c1c" stroke-width="6"/><rect x="344" y="558" width="86" height="110" rx="8" fill="#070d1c" stroke="#3a2c1c" stroke-width="6"/><rect x="494" y="558" width="86" height="110" rx="8" fill="#070d1c" stroke="#3a2c1c" stroke-width="6"/><rect x="644" y="558" width="86" height="110" rx="8" fill="#070d1c" stroke="#3a2c1c" stroke-width="6"/>
      <rect x="144" y="477" width="620" height="34" rx="8" fill="#e2557b"/><g transform="translate(960 783) scale(1.6)">
    <path d="M0 0 C 10 -60 26 -110 46 -150" stroke="#0b111e" stroke-width="14" stroke-linecap="round" fill="none"/>
    <g transform="translate(46 -150)"><path d="M0 0 q 12.554319953485155 -46 25.10863990697031 -30" stroke="#0b111e" stroke-width="10" stroke-linecap="round" fill="none"/><path d="M0 0 q 41.108419502715435 -52 82.21683900543087 -20" stroke="#0b111e" stroke-width="10" stroke-linecap="round" fill="none"/><path d="M0 0 q 57.79413037842027 -58 115.58826075684054 -10" stroke="#0b111e" stroke-width="10" stroke-linecap="round" fill="none"/><path d="M0 0 q 57.79413037842027 -64 115.58826075684054 0" stroke="#0b111e" stroke-width="10" stroke-linecap="round" fill="none"/><path d="M0 0 q 41.108419502715435 -70 82.21683900543087 10" stroke="#0b111e" stroke-width="10" stroke-linecap="round" fill="none"/><path d="M0 0 q 12.554319953485155 -76 25.10863990697031 20" stroke="#0b111e" stroke-width="10" stroke-linecap="round" fill="none"/></g></g>
    <path d="M60 162 Q 600 242 1140 162" stroke="#1a140f" stroke-width="3" fill="none"/><circle cx="168" cy="182.3606797749979" r="5" fill="#e9e4d0"/><circle cx="168" cy="182.3606797749979" r="12" fill="#e9e4d0" opacity=".25"/><circle cx="276" cy="193.51141009169893" r="5" fill="#e9e4d0"/><circle cx="276" cy="193.51141009169893" r="12" fill="#e9e4d0" opacity=".25"/><circle cx="384" cy="202.3606797749979" r="5" fill="#e9e4d0"/><circle cx="384" cy="202.3606797749979" r="12" fill="#e9e4d0" opacity=".25"/><circle cx="492" cy="208.04226065180615" r="5" fill="#e9e4d0"/><circle cx="492" cy="208.04226065180615" r="12" fill="#e9e4d0" opacity=".25"/><circle cx="600" cy="210" r="5" fill="#e9e4d0"/><circle cx="600" cy="210" r="12" fill="#e9e4d0" opacity=".25"/><circle cx="708" cy="208.04226065180615" r="5" fill="#e9e4d0"/><circle cx="708" cy="208.04226065180615" r="12" fill="#e9e4d0" opacity=".25"/><circle cx="816" cy="202.3606797749979" r="5" fill="#e9e4d0"/><circle cx="816" cy="202.3606797749979" r="12" fill="#e9e4d0" opacity=".25"/><circle cx="924" cy="193.51141009169893" r="5" fill="#e9e4d0"/><circle cx="924" cy="193.51141009169893" r="12" fill="#e9e4d0" opacity=".25"/><circle cx="1032" cy="182.3606797749979" r="5" fill="#e9e4d0"/><circle cx="1032" cy="182.3606797749979" r="12" fill="#e9e4d0" opacity=".25"/>
    <g transform="translate(1056 720) scale(1.2)">
    <circle cx="0" cy="26" r="46" fill="#e9e4d0" opacity=".28"/>
    <line x1="0" y1="-34" x2="0" y2="-12" stroke="#2a2118" stroke-width="4"/>
    <path d="M-16 -12 h32 l6 14 v22 l-6 14 h-32 l-6 -14 v-22 Z" fill="#2a2118"/>
    <path d="M-10 -6 h20 l4 10 v18 l-4 10 h-20 l-4 -10 v-18 Z" fill="#e9e4d0"/>
  </g>
<rect width="1200" height="900" filter="url(#grainx)" opacity=".8"/>
  <rect x="0" y="0" width="1200" height="900" fill="none" stroke="#0e0b08" stroke-opacity=".25" stroke-width="2"/>
</svg>