<svg xmlns="http://www.w3.org/2000/svg" viewBox="0 0 1200 900" preserveAspectRatio="xMidYMid slice">
<defs>
  <linearGradient id="skyx" x1="0" y1="0" x2="0" y2="1">
    <stop offset="0" stop-color="#7fb6c9"/><stop offset=".55" stop-color="#cfe3dd"/><stop offset="1" stop-color="#efe6cc"/>
  </linearGradient>
  <linearGradient id="seax" x1="0" y1="0" x2="0" y2="1">
    <stop offset="0" stop-color="#57b3a6"/><stop offset="1" stop-color="#1c7a7c"/>
  </linearGradient>
  <radialGradient id="glowx" cx=".5" cy=".5" r=".5">
    <stop offset="0" stop-color="#f7ead0" stop-opacity=".9"/><stop offset="1" stop-color="#f7ead0" stop-opacity="0"/>
  </radialGradient>
  <linearGradient id="accx" x1="0" y1="0" x2="1" y2="1">
    <stop offset="0" stop-color="#e2557b"/><stop offset="1" stop-color="#e2557b" stop-opacity=".6"/>
  </linearGradient>
  <filter id="grainx"><feTurbulence type="fractalNoise" baseFrequency=".9" numOctaves="2" stitchTiles="stitch"/>
    <feColorMatrix type="matrix" values="0 0 0 0 0  0 0 0 0 0  0 0 0 0 0  0 0 0 .06 0"/>
  </filter>
  <filter id="softx" x="-20%" y="-20%" width="140%" height="140%"><feGaussianBlur stdDeviation="18"/></filter>
</defs>
<rect width="1200" height="900" fill="url(#skyx)"/>
<circle cx="936" cy="216" r="251.6" fill="url(#glow)"/><circle cx="936" cy="216" r="74" fill="#f7ead0"/>
    <path d="M0 450 L0 360.5731512606144 L60 389.24052852904424 L120 388.14634933369234 L180 393.3579448214732 L240 393.0171138723381 L300 413.2381404307671 L360 419.7443067887798 L420 362.91089528705925 L480 379.94602331193164 L540 368.2588960789144 L600 411.6813379479572 L660 370.75634758453816 L720 367.714086282067 L780 429.21586622018367 L840 362.68003039993346 L900 407.6465444173664 L960 373.48887158790603 L1020 373.58849038137123 L1080 426.5768684865907 L1140 402.03650949755684 L1200 390.3194637596607 L1200 450 Z" fill="#c8895a" opacity=".7"/><path d="M0 460 L0 297.9360999329947 L90 375.7658565812744 L180 365.3566117002629 L270 307.1841130149551 L360 269.8424552148208 L450 287.3910363134928 L540 303.46325386082754 L630 271.6752597782761 L720 322.3723364225589 L810 274.8154524550773 L900 304.645662503317 L990 353.73421002179384 L1080 287.5992416916415 L1170 373.23397043859586 L1200 460 Z" fill="#a5673f"/>
    <rect x="0" y="454" width="1200" height="126.00000000000001" fill="url(#seax)"/><path d="M0 468 Q 300 462 600 468 T 1200 468" stroke="#ffffff" stroke-opacity="0.14" stroke-width="2.5" fill="none"/><path d="M0 482 Q 300 476 600 482 T 1200 482" stroke="#ffffff" stroke-opacity="0.128" stroke-width="2.5" fill="none"/><path d="M0 496 Q 300 490 600 496 T 1200 496" stroke="#ffffff" stroke-opacity="0.11600000000000002" stroke-width="2.5" fill="none"/><path d="M0 510 Q 300 504 600 510 T 1200 510" stroke="#ffffff" stroke-opacity="0.10400000000000001" stroke-width="2.5" fill="none"/><path d="M0 524 Q 300 518 600 524 T 1200 524" stroke="#ffffff" stroke-opacity="0.09200000000000001" stroke-width="2.5" fill="none"/><path d="M0 538 Q 300 532 600 538 T 1200 538" stroke="#ffffff" stroke-opacity="0.08000000000000002" stroke-width="2.5" fill="none"/><path d="M0 552 Q 300 546 600 552 T 1200 552" stroke="#ffffff" stroke-opacity="0.068" stroke-width="2.5" fill="none"/><path d="M0 566 Q 300 560 600 566 T 1200 566" stroke="#ffffff" stroke-opacity="0.05600000000000001" stroke-width="2.5" fill="none"/>
    <rect x="0" y="558" width="1200" height="342" fill="#9c7350"/>
    <g transform="translate(600 648)">
      <ellipse cx="0" cy="60" rx="130" ry="24" fill="#00000033"/>
      <rect x="-110" y="-10" width="220" height="64" rx="12" fill="#7a5335"/>
      <circle cx="0" cy="-30" r="26" fill="#f7ead0"/>
      <path d="M-14 -30 q14 -46 28 0" fill="#f7ead0" opacity=".7"/>
      <g stroke="#3a2c1c" stroke-width="5"><line x1="-70" y1="-4" x2="-78" y2="-58"/><line x1="-24" y1="-4" x2="-32" y2="-58"/><line x1="22" y1="-4" x2="14" y2="-58"/><line x1="68" y1="-4" x2="60" y2="-58"/></g>
    </g>
    <g transform="translate(188.34851074963808 720)">
      <ellipse cx="0" cy="34" rx="120" ry="26" fill="#00000022"/>
      <rect x="-100" y="-30" width="200" height="60" rx="26" fill="#e2557b"/>
      <rect x="-100" y="-44" width="200" height="34" rx="17" fill="#f3ecdd" opacity=".9"/>
    </g><g transform="translate(427.17881770804524 720)">
      <ellipse cx="0" cy="34" rx="120" ry="26" fill="#00000022"/>
      <rect x="-100" y="-30" width="200" height="60" rx="26" fill="#f3ecdd"/>
      <rect x="-100" y="-44" width="200" height="34" rx="17" fill="#d8a24a" opacity=".9"/>
    </g><g transform="translate(704.7731627523899 720)">
      <ellipse cx="0" cy="34" rx="120" ry="26" fill="#00000022"/>
      <rect x="-100" y="-30" width="200" height="60" rx="26" fill="#d8a24a"/>
      <rect x="-100" y="-44" width="200" height="34" rx="17" fill="#e2557b" opacity=".9"/>
    </g><g transform="translate(954.6550294663757 720)">
      <ellipse cx="0" cy="34" rx="120" ry="26" fill="#00000022"/>
      <rect x="-100" y="-30" width="200" height="60" rx="26" fill="#e2557b"/>
      <rect x="-100" y="-44" width="200" height="34" rx="17" fill="#e2557b" opacity=".9"/>
    </g>
    <path d="M0 108 Q 600 200 1200 108" stroke="#1a140f" stroke-width="3" fill="none"/><circle cx="120" cy="130.21478174124758" r="5" fill="#f7ead0"/><circle cx="120" cy="130.21478174124758" r="12" fill="#f7ead0" opacity=".25"/><circle cx="240" cy="143.03812160545377" r="5" fill="#f7ead0"/><circle cx="240" cy="143.03812160545377" r="12" fill="#f7ead0" opacity=".25"/><circle cx="360" cy="153.21478174124758" r="5" fill="#f7ead0"/><circle cx="360" cy="153.21478174124758" r="12" fill="#f7ead0" opacity=".25"/><circle cx="480" cy="159.74859974957707" r="5" fill="#f7ead0"/><circle cx="480" cy="159.74859974957707" r="12" fill="#f7ead0" opacity=".25"/><circle cx="600" cy="162" r="5" fill="#f7ead0"/><circle cx="600" cy="162" r="12" fill="#f7ead0" opacity=".25"/><circle cx="720" cy="159.74859974957707" r="5" fill="#f7ead0"/><circle cx="720" cy="159.74859974957707" r="12" fill="#f7ead0" opacity=".25"/><circle cx="840" cy="153.21478174124758" r="5" fill="#f7ead0"/><circle cx="840" cy="153.21478174124758" r="12" fill="#f7ead0" opacity=".25"/><circle cx="960" cy="143.03812160545377" r="5" fill="#f7ead0"/><circle cx="960" cy="143.03812160545377" r="12" fill="#f7ead0" opacity=".25"/><circle cx="1080" cy="130.21478174124758" r="5" fill="#f7ead0"/><circle cx="1080" cy="130.21478174124758" r="12" fill="#f7ead0" opacity=".25"/>
    <g transform="translate(72 594) scale(1.3)">
    <path d="M0 0 C -10 -60 -26 -110 -46 -150" stroke="#a5673f" stroke-width="14" stroke-linecap="round" fill="none"/>
    <g transform="translate(-46 -150)"><path d="M0 0 q -12.554319953485155 -46 -25.10863990697031 -30" stroke="#a5673f" stroke-width="10" stroke-linecap="round" fill="none"/><path d="M0 0 q -41.108419502715435 -52 -82.21683900543087 -20" stroke="#a5673f" stroke-width="10" stroke-linecap="round" fill="none"/><path d="M0 0 q -57.79413037842027 -58 -115.58826075684054 -10" stroke="#a5673f" stroke-width="10" stroke-linecap="round" fill="none"/><path d="M0 0 q -57.79413037842027 -64 -115.58826075684054 0" stroke="#a5673f" stroke-width="10" stroke-linecap="round" fill="none"/><path d="M0 0 q -41.108419502715435 -70 -82.21683900543087 10" stroke="#a5673f" stroke-width="10" stroke-linecap="round" fill="none"/><path d="M0 0 q -12.554319953485155 -76 -25.10863990697031 20" stroke="#a5673f" stroke-width="10" stroke-linecap="round" fill="none"/></g></g>
    <g transform="translate(1128 594) scale(1.4)">
    <path d="M0 0 C 10 -60 26 -110 46 -150" stroke="#a5673f" stroke-width="14" stroke-linecap="round" fill="none"/>
    <g transform="translate(46 -150)"><path d="M0 0 q 12.554319953485155 -46 25.10863990697031 -30" stroke="#a5673f" stroke-width="10" stroke-linecap="round" fill="none"/><path d="M0 0 q 41.108419502715435 -52 82.21683900543087 -20" stroke="#a5673f" stroke-width="10" stroke-linecap="round" fill="none"/><path d="M0 0 q 57.79413037842027 -58 115.58826075684054 -10" stroke="#a5673f" stroke-width="10" stroke-linecap="round" fill="none"/><path d="M0 0 q 57.79413037842027 -64 115.58826075684054 0" stroke="#a5673f" stroke-width="10" stroke-linecap="round" fill="none"/><path d="M0 0 q 41.108419502715435 -70 82.21683900543087 10" stroke="#a5673f" stroke-width="10" stroke-linecap="round" fill="none"/><path d="M0 0 q 12.554319953485155 -76 25.10863990697031 20" stroke="#a5673f" stroke-width="10" stroke-linecap="round" fill="none"/></g></g>
    <g transform="translate(360 594) scale(1.1)">
    <circle cx="0" cy="26" r="46" fill="#f7ead0" opacity=".28"/>
    <line x1="0" y1="-34" x2="0" y2="-12" stroke="#2a2118" stroke-width="4"/>
    <path d="M-16 -12 h32 l6 14 v22 l-6 14 h-32 l-6 -14 v-22 Z" fill="#2a2118"/>
    <path d="M-10 -6 h20 l4 10 v18 l-4 10 h-20 l-4 -10 v-18 Z" fill="#f7ead0"/>
  </g><g transform="translate(840 594) scale(1.1)">
    <circle cx="0" cy="26" r="46" fill="#f7ead0" opacity=".28"/>
    <line x1="0" y1="-34" x2="0" y2="-12" stroke="#2a2118" stroke-width="4"/>
    <path d="M-16 -12 h32 l6 14 v22 l-6 14 h-32 l-6 -14 v-22 Z" fill="#2a2118"/>
    <path d="M-10 -6 h20 l4 10 v18 l-4 10 h-20 l-4 -10 v-18 Z" fill="#f7ead0"/>
  </g>
<rect width="1200" height="900" filter="url(#grainx)" opacity=".8"/>
  <rect x="0" y="0" width="1200" height="900" fill="none" stroke="#0e0b08" stroke-opacity=".25" stroke-width="2"/>
</svg>