<svg xmlns="http://www.w3.org/2000/svg" viewBox="0 0 1200 900" preserveAspectRatio="xMidYMid slice">
<defs>
  <linearGradient id="skyx" x1="0" y1="0" x2="0" y2="1">
    <stop offset="0" stop-color="#070d1c"/><stop offset=".55" stop-color="#122036"/><stop offset="1" stop-color="#1d3a4a"/>
  </linearGradient>
  <linearGradient id="seax" x1="0" y1="0" x2="0" y2="1">
    <stop offset="0" stop-color="#174a52"/><stop offset="1" stop-color="#0a2531"/>
  </linearGradient>
  <radialGradient id="glowx" cx=".5" cy=".5" r=".5">
    <stop offset="0" stop-color="#e9e4d0" stop-opacity=".9"/><stop offset="1" stop-color="#e9e4d0" stop-opacity="0"/>
  </radialGradient>
  <linearGradient id="accx" x1="0" y1="0" x2="1" y2="1">
    <stop offset="0" stop-color="#2ba7a0"/><stop offset="1" stop-color="#2ba7a0" stop-opacity=".6"/>
  </linearGradient>
  <filter id="grainx"><feTurbulence type="fractalNoise" baseFrequency=".9" numOctaves="2" stitchTiles="stitch"/>
    <feColorMatrix type="matrix" values="0 0 0 0 0  0 0 0 0 0  0 0 0 0 0  0 0 0 .06 0"/>
  </filter>
  <filter id="softx" x="-20%" y="-20%" width="140%" height="140%"><feGaussianBlur stdDeviation="18"/></filter>
</defs>
<rect width="1200" height="900" fill="url(#skyx)"/>
<defs><linearGradient id="wsky" x1="0" y1="0" x2="0" y2="1">
      <stop offset="0" stop-color="#070d1c"/><stop offset=".7" stop-color="#122036"/><stop offset="1" stop-color="#174a52"/></linearGradient></defs>
    <rect width="1200" height="900" fill="#e8d9b8"/>
    <line x1="120" y1="900" x2="120" y2="0" stroke="#0000000d" stroke-width="3"/><line x1="240" y1="900" x2="240" y2="0" stroke="#0000000d" stroke-width="3"/><line x1="360" y1="900" x2="360" y2="0" stroke="#0000000d" stroke-width="3"/><line x1="480" y1="900" x2="480" y2="0" stroke="#0000000d" stroke-width="3"/><line x1="600" y1="900" x2="600" y2="0" stroke="#0000000d" stroke-width="3"/><line x1="720" y1="900" x2="720" y2="0" stroke="#0000000d" stroke-width="3"/><line x1="840" y1="900" x2="840" y2="0" stroke="#0000000d" stroke-width="3"/><line x1="960" y1="900" x2="960" y2="0" stroke="#0000000d" stroke-width="3"/><line x1="1080" y1="900" x2="1080" y2="0" stroke="#0000000d" stroke-width="3"/>
    <rect x="0" y="702" width="1200" height="198" fill="#b98d5e"/>
    <g>
      <rect x="792" y="126.00000000000001" width="340" height="330" rx="18" fill="url(#wsky)" stroke="#4a3826" stroke-width="14"/>
      <line x1="962" y1="126.00000000000001" x2="962" y2="456" stroke="#4a3826" stroke-width="10"/>
      <path d="M792 336 h340" stroke="#ffffff55" stroke-width="3"/>
      <rect x="792" y="354" width="340" height="102" fill="#0a2531" opacity=".9"/>
    </g>
    <g>
        <rect x="110" y="558" width="280" height="150" rx="14" fill="#f0e6cf"/>
        <rect x="110" y="558" width="280" height="44" rx="14" fill="#2ba7a0"/>
        <rect x="126" y="522" width="86" height="40" rx="12" fill="#fff"/>
        <rect x="100" y="708" width="300" height="70" rx="8" fill="#8d6b45"/>
        <rect x="320" y="360" width="60" height="90" rx="6" fill="#6f5436"/>
      </g><g>
        <rect x="450" y="558" width="280" height="150" rx="14" fill="#f0e6cf"/>
        <rect x="450" y="558" width="280" height="44" rx="14" fill="#2ba7a0"/>
        <rect x="466" y="522" width="86" height="40" rx="12" fill="#fff"/>
        <rect x="440" y="708" width="300" height="70" rx="8" fill="#8d6b45"/>
        <rect x="660" y="360" width="60" height="90" rx="6" fill="#6f5436"/>
      </g><g>
        <rect x="790" y="558" width="280" height="150" rx="14" fill="#f0e6cf"/>
        <rect x="790" y="558" width="280" height="44" rx="14" fill="#2ba7a0"/>
        <rect x="806" y="522" width="86" height="40" rx="12" fill="#fff"/>
        <rect x="780" y="708" width="300" height="70" rx="8" fill="#8d6b45"/>
        <rect x="1000" y="360" width="60" height="90" rx="6" fill="#6f5436"/>
      </g><g transform="translate(744 792)">
      <rect x="-160" y="-26" width="420" height="90" rx="10" fill="#2ba7a0" opacity=".85"/>
      <rect x="-140" y="-12" width="90" height="62" rx="6" fill="#f3ecdd" opacity=".85"/><rect x="-10" y="-12" width="90" height="62" rx="6" fill="#f3ecdd" opacity=".85"/><rect x="120" y="-12" width="90" height="62" rx="6" fill="#f3ecdd" opacity=".85"/>
    </g>
    <g transform="translate(96 324) scale(1.3)">
    <circle cx="0" cy="26" r="46" fill="#e9e4d0" opacity=".28"/>
    <line x1="0" y1="-34" x2="0" y2="-12" stroke="#2a2118" stroke-width="4"/>
    <path d="M-16 -12 h32 l6 14 v22 l-6 14 h-32 l-6 -14 v-22 Z" fill="#2a2118"/>
    <path d="M-10 -6 h20 l4 10 v18 l-4 10 h-20 l-4 -10 v-18 Z" fill="#e9e4d0"/>
  </g>
    <circle cx="600" cy="108" r="70" fill="#2ba7a0" opacity=".14"/>
<rect width="1200" height="900" filter="url(#grainx)" opacity=".8"/>
  <rect x="0" y="0" width="1200" height="900" fill="none" stroke="#0e0b08" stroke-opacity=".25" stroke-width="2"/>
</svg>