<svg xmlns="http://www.w3.org/2000/svg" viewBox="0 0 1200 900" preserveAspectRatio="xMidYMid slice">
<defs>
  <linearGradient id="skyx" x1="0" y1="0" x2="0" y2="1">
    <stop offset="0" stop-color="#33415e"/><stop offset=".55" stop-color="#a6738a"/><stop offset="1" stop-color="#e7b98a"/>
  </linearGradient>
  <linearGradient id="seax" x1="0" y1="0" x2="0" y2="1">
    <stop offset="0" stop-color="#3b8a83"/><stop offset="1" stop-color="#1b4e57"/>
  </linearGradient>
  <radialGradient id="glowx" cx=".5" cy=".5" r=".5">
    <stop offset="0" stop-color="#f2d9a6" stop-opacity=".9"/><stop offset="1" stop-color="#f2d9a6" stop-opacity="0"/>
  </radialGradient>
  <linearGradient id="accx" x1="0" y1="0" x2="1" y2="1">
    <stop offset="0" stop-color="#d8a24a"/><stop offset="1" stop-color="#d8a24a" stop-opacity=".6"/>
  </linearGradient>
  <filter id="grainx"><feTurbulence type="fractalNoise" baseFrequency=".9" numOctaves="2" stitchTiles="stitch"/>
    <feColorMatrix type="matrix" values="0 0 0 0 0  0 0 0 0 0  0 0 0 0 0  0 0 0 .06 0"/>
  </filter>
  <filter id="softx" x="-20%" y="-20%" width="140%" height="140%"><feGaussianBlur stdDeviation="18"/></filter>
</defs>
<rect width="1200" height="900" fill="url(#skyx)"/>
<circle cx="420.9" cy="426.8" r="0.4" fill="#fff" opacity="0.06"/><circle cx="1057.2" cy="155.0" r="1.0" fill="#fff" opacity="0.09"/><circle cx="383.6" cy="349.8" r="1.4" fill="#fff" opacity="0.05"/><circle cx="606.3" cy="212.7" r="1.0" fill="#fff" opacity="0.05"/><circle cx="12.1" cy="51.9" r="0.5" fill="#fff" opacity="0.12"/><circle cx="567.8" cy="19.9" r="1.2" fill="#fff" opacity="0.08"/><circle cx="1169.2" cy="67.6" r="0.5" fill="#fff" opacity="0.09"/><circle cx="1006.7" cy="87.0" r="1.1" fill="#fff" opacity="0.05"/><circle cx="1120.2" cy="447.0" r="1.9" fill="#fff" opacity="0.12"/><circle cx="12.0" cy="45.2" r="1.0" fill="#fff" opacity="0.06"/><circle cx="786.5" cy="404.9" r="1.1" fill="#fff" opacity="0.06"/><circle cx="838.5" cy="144.1" r="1.8" fill="#fff" opacity="0.06"/><circle cx="328.2" cy="77.4" r="0.9" fill="#fff" opacity="0.06"/><circle cx="28.8" cy="178.9" r="1.2" fill="#fff" opacity="0.08"/><circle cx="502.2" cy="54.2" r="0.5" fill="#fff" opacity="0.08"/><circle cx="881.4" cy="176.5" r="1.4" fill="#fff" opacity="0.10"/><circle cx="421.0" cy="31.7" r="1.4" fill="#fff" opacity="0.06"/><circle cx="205.2" cy="417.7" r="1.4" fill="#fff" opacity="0.09"/><circle cx="1192.0" cy="8.3" r="1.8" fill="#fff" opacity="0.05"/><circle cx="670.7" cy="175.3" r="1.9" fill="#fff" opacity="0.10"/><circle cx="1170.5" cy="438.1" r="1.9" fill="#fff" opacity="0.13"/><circle cx="241.8" cy="270.0" r="1.3" fill="#fff" opacity="0.13"/><circle cx="217.3" cy="267.1" r="1.9" fill="#fff" opacity="0.13"/><circle cx="501.9" cy="383.6" r="1.7" fill="#fff" opacity="0.13"/><circle cx="953.0" cy="44.6" r="1.3" fill="#fff" opacity="0.07"/><circle cx="726.4" cy="152.2" r="1.7" fill="#fff" opacity="0.05"/><circle cx="1176.0" cy="216.4" r="1.5" fill="#fff" opacity="0.05"/><circle cx="1110.6" cy="377.6" r="1.0" fill="#fff" opacity="0.11"/><circle cx="1126.2" cy="63.0" r="1.3" fill="#fff" opacity="0.09"/><circle cx="464.0" cy="114.9" r="0.5" fill="#fff" opacity="0.06"/><circle cx="601.0" cy="385.8" r="1.8" fill="#fff" opacity="0.10"/><circle cx="450.7" cy="212.6" r="1.5" fill="#fff" opacity="0.07"/><circle cx="975.4" cy="279.5" r="0.7" fill="#fff" opacity="0.07"/><circle cx="303.4" cy="425.2" r="1.5" fill="#fff" opacity="0.10"/><circle cx="296.9" cy="438.1" r="0.7" fill="#fff" opacity="0.09"/><circle cx="645.9" cy="398.2" r="1.4" fill="#fff" opacity="0.05"/><circle cx="462.5" cy="277.6" r="1.0" fill="#fff" opacity="0.13"/><circle cx="472.1" cy="277.3" r="0.9" fill="#fff" opacity="0.05"/><circle cx="488.9" cy="337.5" r="1.1" fill="#fff" opacity="0.12"/><circle cx="335.1" cy="2.9" r="0.4" fill="#fff" opacity="0.06"/><circle cx="918.3" cy="210.9" r="1.5" fill="#fff" opacity="0.12"/><circle cx="861.2" cy="438.1" r="1.8" fill="#fff" opacity="0.13"/><circle cx="409.4" cy="300.7" r="0.6" fill="#fff" opacity="0.09"/><circle cx="1116.4" cy="21.0" r="1.3" fill="#fff" opacity="0.13"/><circle cx="760.5" cy="330.3" r="0.6" fill="#fff" opacity="0.09"/><circle cx="804.1" cy="254.2" r="1.1" fill="#fff" opacity="0.05"/><circle cx="885.7" cy="119.4" r="2.0" fill="#fff" opacity="0.09"/><circle cx="133.4" cy="92.5" r="1.4" fill="#fff" opacity="0.07"/><circle cx="731.3" cy="41.5" r="1.1" fill="#fff" opacity="0.05"/><circle cx="34.0" cy="380.6" r="1.9" fill="#fff" opacity="0.06"/><circle cx="1089.7" cy="402.0" r="2.1" fill="#fff" opacity="0.11"/><circle cx="586.9" cy="287.9" r="0.9" fill="#fff" opacity="0.12"/><circle cx="878.4" cy="408.4" r="1.8" fill="#fff" opacity="0.12"/><circle cx="86.9" cy="279.1" r="0.9" fill="#fff" opacity="0.09"/><circle cx="664.6" cy="136.2" r="2.1" fill="#fff" opacity="0.11"/><circle cx="195.3" cy="396.3" r="1.0" fill="#fff" opacity="0.08"/><circle cx="470.2" cy="39.2" r="0.9" fill="#fff" opacity="0.10"/><circle cx="446.4" cy="209.3" r="0.7" fill="#fff" opacity="0.08"/><circle cx="906.4" cy="367.7" r="1.8" fill="#fff" opacity="0.07"/><circle cx="32.5" cy="351.4" r="2.1" fill="#fff" opacity="0.09"/><circle cx="866.439008153975" cy="270" r="251.6" fill="url(#glow)"/><circle cx="866.439008153975" cy="270" r="74" fill="#f2d9a6"/>
    <path d="M0 468 L0 414.70642939629033 L60 409.9386223750189 L120 385.31333050876856 L180 423.0472391047515 L240 409.8896583141759 L300 391.2028227462433 L360 436.3633286948316 L420 405.7634880435653 L480 432.19669148279354 L540 443.27425539446995 L600 385.94974173186347 L660 388.2706989296712 L720 447.830959062092 L780 418.53977597970515 L840 416.9107451704331 L900 439.87073102220893 L960 403.1126858405769 L1020 382.72042753128335 L1080 381.30848744371906 L1140 422.74042209098116 L1200 409.0997266485356 L1200 468 Z" fill="#3d2f48" opacity=".7"/><path d="M0 478 L0 396.6874620220624 L90 358.0353133678436 L180 363.2654927014373 L270 326.29983117990196 L360 294.94469556678087 L450 319.3715063035488 L540 310.2096581803635 L630 291.9433782710694 L720 341.5739381145686 L810 363.70753435604274 L900 334.4908000989817 L990 305.47192468494177 L1080 309.1163117480464 L1170 399.44405588973314 L1200 478 Z" fill="#241d33"/>
    <rect x="0" y="472" width="1200" height="144" fill="url(#seax)"/><path d="M0 486 Q 300 480 600 486 T 1200 486" stroke="#ffffff" stroke-opacity="0.14" stroke-width="2.5" fill="none"/><path d="M0 502 Q 300 496 600 502 T 1200 502" stroke="#ffffff" stroke-opacity="0.128" stroke-width="2.5" fill="none"/><path d="M0 518 Q 300 512 600 518 T 1200 518" stroke="#ffffff" stroke-opacity="0.11600000000000002" stroke-width="2.5" fill="none"/><path d="M0 534 Q 300 528 600 534 T 1200 534" stroke="#ffffff" stroke-opacity="0.10400000000000001" stroke-width="2.5" fill="none"/><path d="M0 550 Q 300 544 600 550 T 1200 550" stroke="#ffffff" stroke-opacity="0.09200000000000001" stroke-width="2.5" fill="none"/><path d="M0 566 Q 300 560 600 566 T 1200 566" stroke="#ffffff" stroke-opacity="0.08000000000000002" stroke-width="2.5" fill="none"/><path d="M0 582 Q 300 576 600 582 T 1200 582" stroke="#ffffff" stroke-opacity="0.068" stroke-width="2.5" fill="none"/><path d="M0 598 Q 300 592 600 598 T 1200 598" stroke="#ffffff" stroke-opacity="0.05600000000000001" stroke-width="2.5" fill="none"/>
    <rect x="0" y="594" width="1200" height="306" fill="#8a6a4d"/>
    <ellipse cx="600" cy="886.5" rx="744" ry="40" fill="#00000022"/>
    <g>
    <path d="M192 774 h360 v-260 h-360 Z" fill="#caa96f"/>
    <line x1="228" y1="774" x2="228" y2="514" stroke="#00000022" stroke-width="3"/><line x1="264" y1="774" x2="264" y2="514" stroke="#00000022" stroke-width="3"/><line x1="300" y1="774" x2="300" y2="514" stroke="#00000022" stroke-width="3"/><line x1="336" y1="774" x2="336" y2="514" stroke="#00000022" stroke-width="3"/><line x1="372" y1="774" x2="372" y2="514" stroke="#00000022" stroke-width="3"/><line x1="408" y1="774" x2="408" y2="514" stroke="#00000022" stroke-width="3"/><line x1="444" y1="774" x2="444" y2="514" stroke="#00000022" stroke-width="3"/><line x1="480" y1="774" x2="480" y2="514" stroke="#00000022" stroke-width="3"/><line x1="516" y1="774" x2="516" y2="514" stroke="#00000022" stroke-width="3"/>
    <path d="M148.8 514 L372 362.8 L595.2 514 Z" fill="#d8a24a"/>
    <line x1="154.8" y1="514" x2="140.8" y2="540" stroke="#00000030" stroke-width="4" stroke-linecap="round"/><line x1="192" y1="514" x2="178" y2="540" stroke="#00000030" stroke-width="4" stroke-linecap="round"/><line x1="229.2" y1="514" x2="215.2" y2="540" stroke="#00000030" stroke-width="4" stroke-linecap="round"/><line x1="266.4" y1="514" x2="252.39999999999998" y2="540" stroke="#00000030" stroke-width="4" stroke-linecap="round"/><line x1="303.6" y1="514" x2="289.6" y2="540" stroke="#00000030" stroke-width="4" stroke-linecap="round"/><line x1="340.79999999999995" y1="514" x2="326.79999999999995" y2="540" stroke="#00000030" stroke-width="4" stroke-linecap="round"/><line x1="378" y1="514" x2="364" y2="540" stroke="#00000030" stroke-width="4" stroke-linecap="round"/><line x1="415.2" y1="514" x2="401.2" y2="540" stroke="#00000030" stroke-width="4" stroke-linecap="round"/><line x1="452.4" y1="514" x2="438.4" y2="540" stroke="#00000030" stroke-width="4" stroke-linecap="round"/><line x1="489.59999999999997" y1="514" x2="475.59999999999997" y2="540" stroke="#00000030" stroke-width="4" stroke-linecap="round"/><line x1="526.8" y1="514" x2="512.8" y2="540" stroke="#00000030" stroke-width="4" stroke-linecap="round"/><line x1="564" y1="514" x2="550" y2="540" stroke="#00000030" stroke-width="4" stroke-linecap="round"/>
    <rect x="328.8" y="586.8" width="86.39999999999999" height="187.2" rx="6" fill="#3a2c1c"/>
  </g><g transform="translate(864 783) scale(1.5)">
    <path d="M0 0 C 10 -60 26 -110 46 -150" stroke="#241d33" stroke-width="14" stroke-linecap="round" fill="none"/>
    <g transform="translate(46 -150)"><path d="M0 0 q 12.554319953485155 -46 25.10863990697031 -30" stroke="#241d33" stroke-width="10" stroke-linecap="round" fill="none"/><path d="M0 0 q 41.108419502715435 -52 82.21683900543087 -20" stroke="#241d33" stroke-width="10" stroke-linecap="round" fill="none"/><path d="M0 0 q 57.79413037842027 -58 115.58826075684054 -10" stroke="#241d33" stroke-width="10" stroke-linecap="round" fill="none"/><path d="M0 0 q 57.79413037842027 -64 115.58826075684054 0" stroke="#241d33" stroke-width="10" stroke-linecap="round" fill="none"/><path d="M0 0 q 41.108419502715435 -70 82.21683900543087 10" stroke="#241d33" stroke-width="10" stroke-linecap="round" fill="none"/><path d="M0 0 q 12.554319953485155 -76 25.10863990697031 20" stroke="#241d33" stroke-width="10" stroke-linecap="round" fill="none"/></g></g><g transform="translate(108 792) scale(1.1)">
    <path d="M0 0 C -10 -60 -26 -110 -46 -150" stroke="#241d33" stroke-width="14" stroke-linecap="round" fill="none"/>
    <g transform="translate(-46 -150)"><path d="M0 0 q -12.554319953485155 -46 -25.10863990697031 -30" stroke="#241d33" stroke-width="10" stroke-linecap="round" fill="none"/><path d="M0 0 q -41.108419502715435 -52 -82.21683900543087 -20" stroke="#241d33" stroke-width="10" stroke-linecap="round" fill="none"/><path d="M0 0 q -57.79413037842027 -58 -115.58826075684054 -10" stroke="#241d33" stroke-width="10" stroke-linecap="round" fill="none"/><path d="M0 0 q -57.79413037842027 -64 -115.58826075684054 0" stroke="#241d33" stroke-width="10" stroke-linecap="round" fill="none"/><path d="M0 0 q -41.108419502715435 -70 -82.21683900543087 10" stroke="#241d33" stroke-width="10" stroke-linecap="round" fill="none"/><path d="M0 0 q -12.554319953485155 -76 -25.10863990697031 20" stroke="#241d33" stroke-width="10" stroke-linecap="round" fill="none"/></g></g>
    <path d="M60 162 Q 600 242 1140 162" stroke="#1a140f" stroke-width="3" fill="none"/><circle cx="168" cy="182.3606797749979" r="5" fill="#f2d9a6"/><circle cx="168" cy="182.3606797749979" r="12" fill="#f2d9a6" opacity=".25"/><circle cx="276" cy="193.51141009169893" r="5" fill="#f2d9a6"/><circle cx="276" cy="193.51141009169893" r="12" fill="#f2d9a6" opacity=".25"/><circle cx="384" cy="202.3606797749979" r="5" fill="#f2d9a6"/><circle cx="384" cy="202.3606797749979" r="12" fill="#f2d9a6" opacity=".25"/><circle cx="492" cy="208.04226065180615" r="5" fill="#f2d9a6"/><circle cx="492" cy="208.04226065180615" r="12" fill="#f2d9a6" opacity=".25"/><circle cx="600" cy="210" r="5" fill="#f2d9a6"/><circle cx="600" cy="210" r="12" fill="#f2d9a6" opacity=".25"/><circle cx="708" cy="208.04226065180615" r="5" fill="#f2d9a6"/><circle cx="708" cy="208.04226065180615" r="12" fill="#f2d9a6" opacity=".25"/><circle cx="816" cy="202.3606797749979" r="5" fill="#f2d9a6"/><circle cx="816" cy="202.3606797749979" r="12" fill="#f2d9a6" opacity=".25"/><circle cx="924" cy="193.51141009169893" r="5" fill="#f2d9a6"/><circle cx="924" cy="193.51141009169893" r="12" fill="#f2d9a6" opacity=".25"/><circle cx="1032" cy="182.3606797749979" r="5" fill="#f2d9a6"/><circle cx="1032" cy="182.3606797749979" r="12" fill="#f2d9a6" opacity=".25"/>
    <g transform="translate(1056 720) scale(1.2)">
    <circle cx="0" cy="26" r="46" fill="#f2d9a6" opacity=".28"/>
    <line x1="0" y1="-34" x2="0" y2="-12" stroke="#2a2118" stroke-width="4"/>
    <path d="M-16 -12 h32 l6 14 v22 l-6 14 h-32 l-6 -14 v-22 Z" fill="#2a2118"/>
    <path d="M-10 -6 h20 l4 10 v18 l-4 10 h-20 l-4 -10 v-18 Z" fill="#f2d9a6"/>
  </g>
<rect width="1200" height="900" filter="url(#grainx)" opacity=".8"/>
  <rect x="0" y="0" width="1200" height="900" fill="none" stroke="#0e0b08" stroke-opacity=".25" stroke-width="2"/>
</svg>