<svg xmlns="http://www.w3.org/2000/svg" viewBox="0 0 1200 900" preserveAspectRatio="xMidYMid slice">
<defs>
  <linearGradient id="skyx" x1="0" y1="0" x2="0" y2="1">
    <stop offset="0" stop-color="#7fb6c9"/><stop offset=".55" stop-color="#cfe3dd"/><stop offset="1" stop-color="#efe6cc"/>
  </linearGradient>
  <linearGradient id="seax" x1="0" y1="0" x2="0" y2="1">
    <stop offset="0" stop-color="#57b3a6"/><stop offset="1" stop-color="#1c7a7c"/>
  </linearGradient>
  <radialGradient id="glowx" cx=".5" cy=".5" r=".5">
    <stop offset="0" stop-color="#f7ead0" stop-opacity=".9"/><stop offset="1" stop-color="#f7ead0" stop-opacity="0"/>
  </radialGradient>
  <linearGradient id="accx" x1="0" y1="0" x2="1" y2="1">
    <stop offset="0" stop-color="#d8a24a"/><stop offset="1" stop-color="#d8a24a" stop-opacity=".6"/>
  </linearGradient>
  <filter id="grainx"><feTurbulence type="fractalNoise" baseFrequency=".9" numOctaves="2" stitchTiles="stitch"/>
    <feColorMatrix type="matrix" values="0 0 0 0 0  0 0 0 0 0  0 0 0 0 0  0 0 0 .06 0"/>
  </filter>
  <filter id="softx" x="-20%" y="-20%" width="140%" height="140%"><feGaussianBlur stdDeviation="18"/></filter>
</defs>
<rect width="1200" height="900" fill="url(#skyx)"/>
<circle cx="360" cy="198" r="251.6" fill="url(#glow)"/><circle cx="360" cy="198" r="74" fill="#f7ead0"/>
    <path d="M0 396 L0 329.7671198020689 L60 361.7418734044768 L120 369.52083345875144 L180 374.27352142427117 L240 356.47457550186664 L300 311.6095503270626 L360 324.93272794783115 L420 313.957515604794 L480 311.67327925236896 L540 312.1251419177279 L600 319.2098496425897 L660 336.2101456793025 L720 351.84987699985504 L780 358.6286473707296 L840 335.50492311734706 L900 354.7455701106228 L960 360.12168327951804 L1020 315.92033869959414 L1080 332.0321448300965 L1140 350.0613238909282 L1200 324.6255959235132 L1200 396 Z" fill="#c8895a" opacity=".7"/><path d="M0 406 L0 291.51932194968686 L90 215.60221329471096 L180 276.09918273892254 L270 248.75367310503498 L360 261.6179521442391 L450 311.61173423891887 L540 329.8731066789478 L630 284.0601160717197 L720 211.56349442573264 L810 207.77035042317584 L900 252.69855274958536 L990 283.9314504447393 L1080 242.23384333215654 L1170 229.6104751052335 L1200 406 Z" fill="#a5673f"/>
    <rect x="0" y="396" width="1200" height="504" fill="url(#seax)"/><path d="M0 410 Q 300 404 600 410 T 1200 410" stroke="#ffffff" stroke-opacity="0.14" stroke-width="2.5" fill="none"/><path d="M0 466 Q 300 460 600 466 T 1200 466" stroke="#ffffff" stroke-opacity="0.128" stroke-width="2.5" fill="none"/><path d="M0 522 Q 300 516 600 522 T 1200 522" stroke="#ffffff" stroke-opacity="0.11600000000000002" stroke-width="2.5" fill="none"/><path d="M0 578 Q 300 572 600 578 T 1200 578" stroke="#ffffff" stroke-opacity="0.10400000000000001" stroke-width="2.5" fill="none"/><path d="M0 634 Q 300 628 600 634 T 1200 634" stroke="#ffffff" stroke-opacity="0.09200000000000001" stroke-width="2.5" fill="none"/><path d="M0 690 Q 300 684 600 690 T 1200 690" stroke="#ffffff" stroke-opacity="0.08000000000000002" stroke-width="2.5" fill="none"/><path d="M0 746 Q 300 740 600 746 T 1200 746" stroke="#ffffff" stroke-opacity="0.068" stroke-width="2.5" fill="none"/><path d="M0 802 Q 300 796 600 802 T 1200 802" stroke="#ffffff" stroke-opacity="0.05600000000000001" stroke-width="2.5" fill="none"/>
    <g transform="translate(227.28145181201398 556.4393977532163) scale(0.9967166278511286)" opacity=".5">
      <path d="M0 0 q 22 -14 44 0 q -22 14 -44 0 Z" fill="#f3ecdd"/><path d="M44 0 l 16 -10 v20 Z" fill="#f3ecdd"/></g><g transform="translate(766.7573252040893 547.0830916976556) scale(1.2116069423034785)" opacity=".5">
      <path d="M0 0 q 22 -14 44 0 q -22 14 -44 0 Z" fill="#f3ecdd"/><path d="M44 0 l 16 -10 v20 Z" fill="#f3ecdd"/></g><g transform="translate(728.3079926669598 714.9305674890056) scale(1.2366692723706363)" opacity=".5">
      <path d="M0 0 q 22 -14 44 0 q -22 14 -44 0 Z" fill="#f3ecdd"/><path d="M44 0 l 16 -10 v20 Z" fill="#f3ecdd"/></g><g transform="translate(385.54201610852033 576.185793354176) scale(1.0401409527286887)" opacity=".5">
      <path d="M0 0 q 22 -14 44 0 q -22 14 -44 0 Z" fill="#f3ecdd"/><path d="M44 0 l 16 -10 v20 Z" fill="#f3ecdd"/></g><g transform="translate(706.2692912109196 692.1684767249972) scale(1.2883196635171772)" opacity=".5">
      <path d="M0 0 q 22 -14 44 0 q -22 14 -44 0 Z" fill="#f3ecdd"/><path d="M44 0 l 16 -10 v20 Z" fill="#f3ecdd"/></g>
    <path d="M0 900 L 408.00000000000006 426 L 504 426 L 240 900 Z" fill="#e2cda1" opacity=".9"/>
    <g transform="translate(888 702)">
      <path d="M-140 40 q 140 60 280 0 l -30 -34 h -220 Z" fill="#7a5335"/>
      <rect x="-16" y="-150" width="12" height="160" fill="#4a3826"/>
      <path d="M-10 -150 L 150 -60 L -10 -20 Z" fill="#d8a24a"/>
    </g>
    <g transform="translate(120 810) scale(1.8)">
    <path d="M0 0 C -10 -60 -26 -110 -46 -150" stroke="#a5673f" stroke-width="14" stroke-linecap="round" fill="none"/>
    <g transform="translate(-46 -150)"><path d="M0 0 q -12.554319953485155 -46 -25.10863990697031 -30" stroke="#a5673f" stroke-width="10" stroke-linecap="round" fill="none"/><path d="M0 0 q -41.108419502715435 -52 -82.21683900543087 -20" stroke="#a5673f" stroke-width="10" stroke-linecap="round" fill="none"/><path d="M0 0 q -57.79413037842027 -58 -115.58826075684054 -10" stroke="#a5673f" stroke-width="10" stroke-linecap="round" fill="none"/><path d="M0 0 q -57.79413037842027 -64 -115.58826075684054 0" stroke="#a5673f" stroke-width="10" stroke-linecap="round" fill="none"/><path d="M0 0 q -41.108419502715435 -70 -82.21683900543087 10" stroke="#a5673f" stroke-width="10" stroke-linecap="round" fill="none"/><path d="M0 0 q -12.554319953485155 -76 -25.10863990697031 20" stroke="#a5673f" stroke-width="10" stroke-linecap="round" fill="none"/></g></g>
    <circle cx="1032" cy="180" r="8" fill="#fff" opacity=".8"/>
    <path d="M983.9999999999999 216 q 40 -30 80 0" stroke="#ffffff88" stroke-width="4" fill="none"/>
<rect width="1200" height="900" filter="url(#grainx)" opacity=".8"/>
  <rect x="0" y="0" width="1200" height="900" fill="none" stroke="#0e0b08" stroke-opacity=".25" stroke-width="2"/>
</svg>