<svg xmlns="http://www.w3.org/2000/svg" viewBox="0 0 1200 900" preserveAspectRatio="xMidYMid slice">
<defs>
  <linearGradient id="skyx" x1="0" y1="0" x2="0" y2="1">
    <stop offset="0" stop-color="#2b1f3a"/><stop offset=".55" stop-color="#c25b3f"/><stop offset="1" stop-color="#e8a35c"/>
  </linearGradient>
  <linearGradient id="seax" x1="0" y1="0" x2="0" y2="1">
    <stop offset="0" stop-color="#2c6f70"/><stop offset="1" stop-color="#173f46"/>
  </linearGradient>
  <radialGradient id="glowx" cx=".5" cy=".5" r=".5">
    <stop offset="0" stop-color="#f4c479" stop-opacity=".9"/><stop offset="1" stop-color="#f4c479" stop-opacity="0"/>
  </radialGradient>
  <linearGradient id="accx" x1="0" y1="0" x2="1" y2="1">
    <stop offset="0" stop-color="#ff5c39"/><stop offset="1" stop-color="#ff5c39" stop-opacity=".6"/>
  </linearGradient>
  <filter id="grainx"><feTurbulence type="fractalNoise" baseFrequency=".9" numOctaves="2" stitchTiles="stitch"/>
    <feColorMatrix type="matrix" values="0 0 0 0 0  0 0 0 0 0  0 0 0 0 0  0 0 0 .06 0"/>
  </filter>
  <filter id="softx" x="-20%" y="-20%" width="140%" height="140%"><feGaussianBlur stdDeviation="18"/></filter>
</defs>
<rect width="1200" height="900" fill="url(#skyx)"/>
<circle cx="93.4" cy="114.1" r="2.1" fill="#fff" opacity="0.22"/><circle cx="669.9" cy="45.8" r="1.2" fill="#fff" opacity="0.21"/><circle cx="191.9" cy="82.8" r="1.5" fill="#fff" opacity="0.19"/><circle cx="991.7" cy="118.6" r="2.0" fill="#fff" opacity="0.24"/><circle cx="293.8" cy="8.8" r="1.3" fill="#fff" opacity="0.17"/><circle cx="593.7" cy="252.5" r="2.1" fill="#fff" opacity="0.17"/><circle cx="1198.9" cy="441.3" r="1.0" fill="#fff" opacity="0.24"/><circle cx="649.2" cy="441.5" r="0.9" fill="#fff" opacity="0.15"/><circle cx="40.5" cy="47.5" r="1.6" fill="#fff" opacity="0.20"/><circle cx="171.9" cy="235.0" r="0.4" fill="#fff" opacity="0.30"/><circle cx="1044.1" cy="7.1" r="2.0" fill="#fff" opacity="0.30"/><circle cx="523.3" cy="116.8" r="1.7" fill="#fff" opacity="0.12"/><circle cx="38.1" cy="311.5" r="1.7" fill="#fff" opacity="0.19"/><circle cx="283.8" cy="333.2" r="0.8" fill="#fff" opacity="0.12"/><circle cx="253.5" cy="259.7" r="0.5" fill="#fff" opacity="0.20"/><circle cx="449.2" cy="217.3" r="0.5" fill="#fff" opacity="0.23"/><circle cx="148.1" cy="377.4" r="0.6" fill="#fff" opacity="0.23"/><circle cx="888.1" cy="112.4" r="0.6" fill="#fff" opacity="0.11"/><circle cx="99.8" cy="340.9" r="1.7" fill="#fff" opacity="0.25"/><circle cx="440.3" cy="239.4" r="1.6" fill="#fff" opacity="0.29"/><circle cx="1175.8" cy="128.2" r="1.8" fill="#fff" opacity="0.14"/><circle cx="453.3" cy="367.0" r="1.9" fill="#fff" opacity="0.24"/><circle cx="814.4" cy="401.1" r="1.2" fill="#fff" opacity="0.22"/><circle cx="928.9" cy="104.6" r="2.1" fill="#fff" opacity="0.12"/><circle cx="235.0" cy="296.1" r="1.4" fill="#fff" opacity="0.19"/><circle cx="12.4" cy="322.1" r="1.8" fill="#fff" opacity="0.30"/><circle cx="616.2" cy="252.4" r="1.7" fill="#fff" opacity="0.11"/><circle cx="277.0" cy="59.7" r="0.5" fill="#fff" opacity="0.19"/><circle cx="349.6" cy="403.7" r="1.2" fill="#fff" opacity="0.19"/><circle cx="206.7" cy="251.0" r="0.7" fill="#fff" opacity="0.27"/><circle cx="361.0" cy="408.5" r="1.8" fill="#fff" opacity="0.25"/><circle cx="370.8" cy="97.0" r="0.9" fill="#fff" opacity="0.25"/><circle cx="986.8" cy="39.4" r="0.7" fill="#fff" opacity="0.18"/><circle cx="123.9" cy="438.2" r="1.5" fill="#fff" opacity="0.30"/><circle cx="149.4" cy="400.5" r="1.9" fill="#fff" opacity="0.23"/><circle cx="760.6" cy="167.1" r="1.2" fill="#fff" opacity="0.22"/><circle cx="612.1" cy="278.5" r="0.9" fill="#fff" opacity="0.29"/><circle cx="54.0" cy="115.7" r="1.2" fill="#fff" opacity="0.13"/><circle cx="1142.7" cy="146.2" r="0.5" fill="#fff" opacity="0.23"/><circle cx="1171.7" cy="129.1" r="1.9" fill="#fff" opacity="0.23"/><circle cx="1115.6" cy="143.0" r="0.6" fill="#fff" opacity="0.21"/><circle cx="921.8" cy="133.6" r="1.6" fill="#fff" opacity="0.29"/><circle cx="332.5" cy="130.7" r="0.5" fill="#fff" opacity="0.13"/><circle cx="873.0" cy="268.4" r="0.5" fill="#fff" opacity="0.16"/><circle cx="144.5" cy="417.8" r="0.6" fill="#fff" opacity="0.28"/><circle cx="282.1" cy="412.5" r="1.5" fill="#fff" opacity="0.11"/><circle cx="1131.3" cy="292.5" r="0.6" fill="#fff" opacity="0.13"/><circle cx="864.8" cy="181.8" r="0.8" fill="#fff" opacity="0.29"/><circle cx="54.9" cy="108.9" r="2.2" fill="#fff" opacity="0.31"/><circle cx="980.8" cy="112.0" r="1.9" fill="#fff" opacity="0.13"/><circle cx="438.9" cy="412.4" r="1.6" fill="#fff" opacity="0.20"/><circle cx="783.0" cy="423.3" r="1.4" fill="#fff" opacity="0.20"/><circle cx="472.1" cy="435.8" r="1.8" fill="#fff" opacity="0.18"/><circle cx="753.1" cy="331.0" r="2.2" fill="#fff" opacity="0.28"/><circle cx="644.3" cy="389.4" r="1.0" fill="#fff" opacity="0.13"/><circle cx="970.7" cy="168.9" r="0.7" fill="#fff" opacity="0.21"/><circle cx="583.9" cy="317.8" r="1.5" fill="#fff" opacity="0.27"/><circle cx="258.7" cy="214.1" r="1.7" fill="#fff" opacity="0.24"/><circle cx="364.8" cy="252.2" r="2.1" fill="#fff" opacity="0.31"/><circle cx="87.8" cy="197.5" r="1.5" fill="#fff" opacity="0.27"/><circle cx="530.8323506265879" cy="270" r="251.6" fill="url(#glow)"/><circle cx="530.8323506265879" cy="270" r="74" fill="#f4c479"/>
    <path d="M0 468 L0 439.633320490364 L60 393.7801316585392 L120 416.8419917062856 L180 435.98317646607757 L240 446.2792329788208 L300 412.5777892670594 L360 446.48947905004025 L420 406.4454793599434 L480 415.8718885942362 L540 401.88670173706487 L600 387.43099519005045 L660 420.24300688132644 L720 414.01424355758354 L780 400.36818951321766 L840 427.7709334199317 L900 391.9333478687331 L960 429.52243566233665 L1020 439.555051158648 L1080 380.0259349234402 L1140 440.6899669319391 L1200 440.5579867535271 L1200 468 Z" fill="#31203a" opacity=".7"/><path d="M0 478 L0 345.71847954485565 L90 282.49961457168683 L180 388.48328161239624 L270 375.86231378791854 L360 371.8320857542567 L450 325.1993344812654 L540 365.95840370003134 L630 367.7922576847486 L720 358.5339075415395 L810 286.7228900496848 L900 291.7883918778971 L990 356.964265238028 L1080 330.5690218573436 L1170 382.2129129637033 L1200 478 Z" fill="#1d1626"/>
    <rect x="0" y="472" width="1200" height="144" fill="url(#seax)"/><path d="M0 486 Q 300 480 600 486 T 1200 486" stroke="#ffffff" stroke-opacity="0.14" stroke-width="2.5" fill="none"/><path d="M0 502 Q 300 496 600 502 T 1200 502" stroke="#ffffff" stroke-opacity="0.128" stroke-width="2.5" fill="none"/><path d="M0 518 Q 300 512 600 518 T 1200 518" stroke="#ffffff" stroke-opacity="0.11600000000000002" stroke-width="2.5" fill="none"/><path d="M0 534 Q 300 528 600 534 T 1200 534" stroke="#ffffff" stroke-opacity="0.10400000000000001" stroke-width="2.5" fill="none"/><path d="M0 550 Q 300 544 600 550 T 1200 550" stroke="#ffffff" stroke-opacity="0.09200000000000001" stroke-width="2.5" fill="none"/><path d="M0 566 Q 300 560 600 566 T 1200 566" stroke="#ffffff" stroke-opacity="0.08000000000000002" stroke-width="2.5" fill="none"/><path d="M0 582 Q 300 576 600 582 T 1200 582" stroke="#ffffff" stroke-opacity="0.068" stroke-width="2.5" fill="none"/><path d="M0 598 Q 300 592 600 598 T 1200 598" stroke="#ffffff" stroke-opacity="0.05600000000000001" stroke-width="2.5" fill="none"/>
    <rect x="0" y="594" width="1200" height="306" fill="#8a6a4d"/>
    <ellipse cx="600" cy="886.5" rx="744" ry="40" fill="#00000022"/>
    <g>
    <path d="M192 774 h360 v-260 h-360 Z" fill="#caa96f"/>
    <line x1="228" y1="774" x2="228" y2="514" stroke="#00000022" stroke-width="3"/><line x1="264" y1="774" x2="264" y2="514" stroke="#00000022" stroke-width="3"/><line x1="300" y1="774" x2="300" y2="514" stroke="#00000022" stroke-width="3"/><line x1="336" y1="774" x2="336" y2="514" stroke="#00000022" stroke-width="3"/><line x1="372" y1="774" x2="372" y2="514" stroke="#00000022" stroke-width="3"/><line x1="408" y1="774" x2="408" y2="514" stroke="#00000022" stroke-width="3"/><line x1="444" y1="774" x2="444" y2="514" stroke="#00000022" stroke-width="3"/><line x1="480" y1="774" x2="480" y2="514" stroke="#00000022" stroke-width="3"/><line x1="516" y1="774" x2="516" y2="514" stroke="#00000022" stroke-width="3"/>
    <path d="M148.8 514 L372 362.8 L595.2 514 Z" fill="#ff5c39"/>
    <line x1="154.8" y1="514" x2="140.8" y2="540" stroke="#00000030" stroke-width="4" stroke-linecap="round"/><line x1="192" y1="514" x2="178" y2="540" stroke="#00000030" stroke-width="4" stroke-linecap="round"/><line x1="229.2" y1="514" x2="215.2" y2="540" stroke="#00000030" stroke-width="4" stroke-linecap="round"/><line x1="266.4" y1="514" x2="252.39999999999998" y2="540" stroke="#00000030" stroke-width="4" stroke-linecap="round"/><line x1="303.6" y1="514" x2="289.6" y2="540" stroke="#00000030" stroke-width="4" stroke-linecap="round"/><line x1="340.79999999999995" y1="514" x2="326.79999999999995" y2="540" stroke="#00000030" stroke-width="4" stroke-linecap="round"/><line x1="378" y1="514" x2="364" y2="540" stroke="#00000030" stroke-width="4" stroke-linecap="round"/><line x1="415.2" y1="514" x2="401.2" y2="540" stroke="#00000030" stroke-width="4" stroke-linecap="round"/><line x1="452.4" y1="514" x2="438.4" y2="540" stroke="#00000030" stroke-width="4" stroke-linecap="round"/><line x1="489.59999999999997" y1="514" x2="475.59999999999997" y2="540" stroke="#00000030" stroke-width="4" stroke-linecap="round"/><line x1="526.8" y1="514" x2="512.8" y2="540" stroke="#00000030" stroke-width="4" stroke-linecap="round"/><line x1="564" y1="514" x2="550" y2="540" stroke="#00000030" stroke-width="4" stroke-linecap="round"/>
    <rect x="328.8" y="586.8" width="86.39999999999999" height="187.2" rx="6" fill="#3a2c1c"/>
  </g><g transform="translate(864 783) scale(1.5)">
    <path d="M0 0 C 10 -60 26 -110 46 -150" stroke="#1d1626" stroke-width="14" stroke-linecap="round" fill="none"/>
    <g transform="translate(46 -150)"><path d="M0 0 q 12.554319953485155 -46 25.10863990697031 -30" stroke="#1d1626" stroke-width="10" stroke-linecap="round" fill="none"/><path d="M0 0 q 41.108419502715435 -52 82.21683900543087 -20" stroke="#1d1626" stroke-width="10" stroke-linecap="round" fill="none"/><path d="M0 0 q 57.79413037842027 -58 115.58826075684054 -10" stroke="#1d1626" stroke-width="10" stroke-linecap="round" fill="none"/><path d="M0 0 q 57.79413037842027 -64 115.58826075684054 0" stroke="#1d1626" stroke-width="10" stroke-linecap="round" fill="none"/><path d="M0 0 q 41.108419502715435 -70 82.21683900543087 10" stroke="#1d1626" stroke-width="10" stroke-linecap="round" fill="none"/><path d="M0 0 q 12.554319953485155 -76 25.10863990697031 20" stroke="#1d1626" stroke-width="10" stroke-linecap="round" fill="none"/></g></g><g transform="translate(108 792) scale(1.1)">
    <path d="M0 0 C -10 -60 -26 -110 -46 -150" stroke="#1d1626" stroke-width="14" stroke-linecap="round" fill="none"/>
    <g transform="translate(-46 -150)"><path d="M0 0 q -12.554319953485155 -46 -25.10863990697031 -30" stroke="#1d1626" stroke-width="10" stroke-linecap="round" fill="none"/><path d="M0 0 q -41.108419502715435 -52 -82.21683900543087 -20" stroke="#1d1626" stroke-width="10" stroke-linecap="round" fill="none"/><path d="M0 0 q -57.79413037842027 -58 -115.58826075684054 -10" stroke="#1d1626" stroke-width="10" stroke-linecap="round" fill="none"/><path d="M0 0 q -57.79413037842027 -64 -115.58826075684054 0" stroke="#1d1626" stroke-width="10" stroke-linecap="round" fill="none"/><path d="M0 0 q -41.108419502715435 -70 -82.21683900543087 10" stroke="#1d1626" stroke-width="10" stroke-linecap="round" fill="none"/><path d="M0 0 q -12.554319953485155 -76 -25.10863990697031 20" stroke="#1d1626" stroke-width="10" stroke-linecap="round" fill="none"/></g></g>
    <path d="M60 162 Q 600 242 1140 162" stroke="#1a140f" stroke-width="3" fill="none"/><circle cx="168" cy="182.3606797749979" r="5" fill="#f4c479"/><circle cx="168" cy="182.3606797749979" r="12" fill="#f4c479" opacity=".25"/><circle cx="276" cy="193.51141009169893" r="5" fill="#f4c479"/><circle cx="276" cy="193.51141009169893" r="12" fill="#f4c479" opacity=".25"/><circle cx="384" cy="202.3606797749979" r="5" fill="#f4c479"/><circle cx="384" cy="202.3606797749979" r="12" fill="#f4c479" opacity=".25"/><circle cx="492" cy="208.04226065180615" r="5" fill="#f4c479"/><circle cx="492" cy="208.04226065180615" r="12" fill="#f4c479" opacity=".25"/><circle cx="600" cy="210" r="5" fill="#f4c479"/><circle cx="600" cy="210" r="12" fill="#f4c479" opacity=".25"/><circle cx="708" cy="208.04226065180615" r="5" fill="#f4c479"/><circle cx="708" cy="208.04226065180615" r="12" fill="#f4c479" opacity=".25"/><circle cx="816" cy="202.3606797749979" r="5" fill="#f4c479"/><circle cx="816" cy="202.3606797749979" r="12" fill="#f4c479" opacity=".25"/><circle cx="924" cy="193.51141009169893" r="5" fill="#f4c479"/><circle cx="924" cy="193.51141009169893" r="12" fill="#f4c479" opacity=".25"/><circle cx="1032" cy="182.3606797749979" r="5" fill="#f4c479"/><circle cx="1032" cy="182.3606797749979" r="12" fill="#f4c479" opacity=".25"/>
    <g transform="translate(1056 720) scale(1.2)">
    <circle cx="0" cy="26" r="46" fill="#f4c479" opacity=".28"/>
    <line x1="0" y1="-34" x2="0" y2="-12" stroke="#2a2118" stroke-width="4"/>
    <path d="M-16 -12 h32 l6 14 v22 l-6 14 h-32 l-6 -14 v-22 Z" fill="#2a2118"/>
    <path d="M-10 -6 h20 l4 10 v18 l-4 10 h-20 l-4 -10 v-18 Z" fill="#f4c479"/>
  </g>
<rect width="1200" height="900" filter="url(#grainx)" opacity=".8"/>
  <rect x="0" y="0" width="1200" height="900" fill="none" stroke="#0e0b08" stroke-opacity=".25" stroke-width="2"/>
</svg>